{"glyphs":{"0":{"ha":1235,"x_min":0,"x_max":0,"o":"m 617 -14 b 82 486 319 -14 82 146 b 617 986 82 826 322 986 b 1153 486 911 986 1153 826 b 617 -14 1153 146 913 -14 m 626 151 b 960 486 771 151 960 219 b 626 821 960 753 771 821 l 607 821 b 275 486 465 821 275 753 b 607 151 275 219 465 151 "},"1":{"ha":738,"x_min":0,"x_max":0,"o":"m 435 972 l 593 972 l 593 0 l 406 0 l 406 749 l 53 522 l 53 728 "},"2":{"ha":1088,"x_min":0,"x_max":0,"o":"m 314 172 l 999 172 l 999 0 l 88 0 l 88 250 l 574 489 b 800 696 733 568 800 613 b 572 821 800 769 713 821 l 553 821 b 293 668 393 821 299 753 l 96 668 b 563 986 103 858 293 986 b 993 697 814 986 993 878 b 671 346 993 539 871 443 "},"3":{"ha":1122,"x_min":0,"x_max":0,"o":"m 564 -14 b 74 268 282 -14 83 96 l 271 268 b 551 151 290 190 411 151 l 571 151 b 839 281 731 151 839 197 b 581 404 839 354 743 404 l 404 404 l 404 569 l 581 569 b 832 699 747 569 832 621 b 571 821 832 772 740 821 l 551 821 b 289 701 403 821 303 771 l 92 701 b 564 986 97 863 285 986 b 1025 721 853 986 1025 879 b 825 492 1025 590 918 524 b 1032 271 929 465 1032 390 b 564 -14 1032 93 844 -14 "},"4":{"ha":1172,"x_min":0,"x_max":0,"o":"m 917 360 l 1122 360 l 1122 196 l 917 196 l 917 0 l 729 0 l 729 196 l 47 196 l 47 383 l 697 972 l 917 972 m 260 360 l 729 360 l 729 785 "},"5":{"ha":1075,"x_min":0,"x_max":0,"o":"m 567 626 b 994 308 844 626 994 494 b 529 -14 994 111 814 -14 b 57 271 267 -14 85 82 l 254 271 b 517 151 282 192 388 151 l 536 151 b 801 304 703 151 801 214 b 543 461 801 400 697 461 l 524 461 b 285 382 438 461 335 439 l 88 382 l 210 972 l 968 972 l 968 800 l 354 800 l 306 563 b 567 626 378 606 469 626 "},"6":{"ha":1164,"x_min":0,"x_max":0,"o":"m 607 661 b 1071 328 867 661 1071 549 b 582 -14 1071 121 872 -14 b 81 440 279 -14 81 124 b 635 986 81 751 307 986 b 1088 722 879 986 1060 886 l 890 722 b 644 821 872 771 792 821 l 625 821 b 276 558 453 821 321 719 b 607 661 357 626 478 661 m 594 151 b 876 321 743 151 876 211 b 594 496 876 444 743 496 l 575 496 b 286 322 424 496 286 446 b 575 151 286 213 419 151 "},"7":{"ha":1051,"x_min":0,"x_max":0,"o":"m 38 972 l 1003 972 l 1003 789 b 478 28 647 650 478 419 l 478 0 l 285 0 l 285 40 b 718 800 285 390 456 650 l 38 800 "},"8":{"ha":1097,"x_min":0,"x_max":0,"o":"m 549 -14 b 114 250 296 -14 114 90 b 314 472 114 365 215 447 b 81 711 207 493 81 572 b 549 986 81 871 274 986 b 1017 711 824 986 1017 875 b 783 472 1017 572 890 493 b 983 250 882 447 983 365 b 549 -14 983 90 801 -14 m 558 560 b 824 693 724 560 824 613 b 558 821 824 778 724 821 l 539 821 b 274 693 374 821 274 778 b 539 560 274 613 374 560 m 558 151 b 790 272 703 151 790 201 b 558 394 790 346 703 394 l 539 394 b 307 272 394 394 307 346 b 539 151 307 201 394 151 "},"9":{"ha":1164,"x_min":0,"x_max":0,"o":"m 582 986 b 1083 532 885 986 1083 849 b 529 -14 1083 221 857 -14 b 76 250 285 -14 104 86 l 274 250 b 519 151 292 201 372 151 l 539 151 b 888 414 711 151 843 253 b 557 311 807 346 686 311 b 93 644 297 311 93 424 b 582 986 93 851 292 986 m 589 476 b 878 650 740 476 878 526 b 589 821 878 760 744 821 l 569 821 b 288 651 421 821 288 761 b 569 476 288 528 421 476 "}," ":{"ha":411,"x_min":0,"x_max":0,"o":""},"A":{"ha":1297,"x_min":0,"x_max":0,"o":"m 1075 0 l 953 228 l 338 228 l 215 0 l -3 0 l 525 972 l 772 972 l 1300 0 m 429 400 l 861 400 l 646 806 "},"Á":{"ha":1297,"x_min":0,"x_max":0,"o":"m 915 1236 l 714 1035 l 583 1035 l 694 1236 m 1075 0 l 953 228 l 338 228 l 215 0 l -3 0 l 525 972 l 772 972 l 1300 0 m 429 400 l 861 400 l 646 806 "},"Ă":{"ha":1297,"x_min":0,"x_max":0,"o":"m 649 1036 b 358 1244 479 1036 361 1118 l 517 1244 b 649 1168 525 1193 578 1168 b 781 1244 719 1168 772 1193 l 939 1244 b 649 1036 936 1118 818 1036 m 1075 0 l 953 228 l 338 228 l 215 0 l -3 0 l 525 972 l 772 972 l 1300 0 m 429 400 l 861 400 l 646 806 "},"Â":{"ha":1297,"x_min":0,"x_max":0,"o":"m 649 1124 l 496 1035 l 338 1035 l 546 1236 l 751 1236 l 960 1035 l 801 1035 m 1075 0 l 953 228 l 338 228 l 215 0 l -3 0 l 525 972 l 772 972 l 1300 0 m 429 400 l 861 400 l 646 806 "},"Ä":{"ha":1297,"x_min":0,"x_max":0,"o":"m 567 1231 l 567 1061 l 378 1061 l 378 1231 m 919 1231 l 919 1061 l 731 1061 l 731 1231 m 1075 0 l 953 228 l 338 228 l 215 0 l -3 0 l 525 972 l 772 972 l 1300 0 m 429 400 l 861 400 l 646 806 "},"Ȧ":{"ha":1297,"x_min":0,"x_max":0,"o":"m 750 1249 l 750 1053 l 546 1053 l 546 1249 m 1075 0 l 953 228 l 338 228 l 215 0 l -3 0 l 525 972 l 772 972 l 1300 0 m 429 400 l 861 400 l 646 806 "},"À":{"ha":1297,"x_min":0,"x_max":0,"o":"m 714 1021 l 583 1021 l 382 1222 l 603 1222 m 1075 0 l 953 228 l 338 228 l 215 0 l -3 0 l 525 972 l 772 972 l 1300 0 m 429 400 l 861 400 l 646 806 "},"Ā":{"ha":1297,"x_min":0,"x_max":0,"o":"m 960 1217 l 960 1061 l 336 1061 l 336 1217 m 1075 0 l 953 228 l 338 228 l 215 0 l -3 0 l 525 972 l 772 972 l 1300 0 m 429 400 l 861 400 l 646 806 "},"Ą":{"ha":1297,"x_min":0,"x_max":0,"o":"m 1349 -192 l 1349 -306 l 1225 -306 b 1040 -167 1125 -306 1040 -247 b 1160 0 1040 -86 1101 -32 l 1075 0 l 953 228 l 338 228 l 215 0 l -3 0 l 525 972 l 772 972 l 1300 0 b 1171 -125 1249 -26 1171 -69 b 1258 -192 1171 -174 1217 -192 m 429 400 l 861 400 l 646 806 "},"Å":{"ha":1297,"x_min":0,"x_max":0,"o":"m 650 1014 b 461 1167 543 1014 461 1079 b 650 1319 461 1246 543 1319 b 839 1167 757 1319 839 1246 b 650 1014 839 1079 757 1014 m 650 1221 b 568 1167 603 1221 568 1196 b 650 1113 568 1138 603 1113 b 731 1167 697 1113 731 1138 b 650 1221 731 1196 697 1221 m 1075 0 l 953 228 l 338 228 l 215 0 l -3 0 l 525 972 l 772 972 l 1300 0 m 429 400 l 861 400 l 646 806 "},"Ã":{"ha":1297,"x_min":0,"x_max":0,"o":"m 514 1111 b 454 1050 472 1111 454 1082 l 315 1050 l 315 1089 b 489 1250 315 1175 394 1250 b 621 1224 547 1250 586 1235 l 703 1197 b 785 1175 728 1189 763 1175 b 843 1236 826 1175 843 1204 l 982 1236 l 982 1197 b 811 1036 982 1111 928 1036 b 681 1064 776 1036 733 1046 l 596 1092 b 514 1111 567 1101 542 1111 m 1075 0 l 953 228 l 338 228 l 215 0 l -3 0 l 525 972 l 772 972 l 1300 0 m 429 400 l 861 400 l 646 806 "},"Æ":{"ha":1994,"x_min":0,"x_max":0,"o":"m 1226 172 l 1963 172 l 1963 0 l 1060 0 l 1014 228 l 429 228 l 233 0 l -31 0 l 818 972 l 1842 972 l 1842 800 l 1100 800 l 1143 586 l 1783 586 l 1783 414 l 1178 414 m 578 400 l 981 400 l 904 781 "},"Ǽ":{"ha":1994,"x_min":0,"x_max":0,"o":"m 1403 1236 l 1201 1035 l 1071 1035 l 1182 1236 m 1226 172 l 1963 172 l 1963 0 l 1060 0 l 1014 228 l 429 228 l 233 0 l -31 0 l 818 972 l 1842 972 l 1842 800 l 1100 800 l 1143 586 l 1783 586 l 1783 414 l 1178 414 m 578 400 l 981 400 l 904 781 "},"B":{"ha":1269,"x_min":0,"x_max":0,"o":"m 131 0 l 131 972 l 835 972 b 1160 715 1022 972 1160 875 b 1015 501 1160 606 1089 532 b 1188 267 1107 476 1188 389 b 860 0 1188 101 1047 0 m 328 579 l 804 579 b 958 690 906 579 958 619 b 804 800 958 760 906 800 l 328 800 m 328 172 l 818 172 b 986 290 926 172 986 207 b 818 407 986 365 926 407 l 328 407 "},"C":{"ha":1325,"x_min":0,"x_max":0,"o":"m 706 -14 b 68 486 307 -14 68 197 b 706 986 68 775 307 986 b 1265 653 1104 986 1243 779 l 1043 653 b 719 814 1025 724 926 814 l 692 814 b 268 486 431 814 268 675 b 692 158 268 297 431 158 l 719 158 b 1043 319 926 158 1021 250 l 1265 319 b 706 -14 1243 193 1104 -14 "},"Ć":{"ha":1325,"x_min":0,"x_max":0,"o":"m 640 1035 l 751 1236 l 972 1236 l 771 1035 m 706 -14 b 68 486 307 -14 68 197 b 706 986 68 775 307 986 b 1265 653 1104 986 1243 779 l 1043 653 b 719 814 1025 724 926 814 l 692 814 b 268 486 431 814 268 675 b 692 158 268 297 431 158 l 719 158 b 1043 319 926 158 1021 250 l 1265 319 b 706 -14 1243 193 1104 -14 "},"Č":{"ha":1325,"x_min":0,"x_max":0,"o":"m 603 1035 l 394 1236 l 553 1236 l 706 1147 l 858 1236 l 1017 1236 l 808 1035 m 706 -14 b 68 486 307 -14 68 197 b 706 986 68 775 307 986 b 1265 653 1104 986 1243 779 l 1043 653 b 719 814 1025 724 926 814 l 692 814 b 268 486 431 814 268 675 b 692 158 268 297 431 158 l 719 158 b 1043 319 926 158 1021 250 l 1265 319 b 706 -14 1243 193 1104 -14 "},"Ç":{"ha":1325,"x_min":0,"x_max":0,"o":"m 719 158 b 1043 319 926 158 1021 250 l 1265 319 b 754 -12 1244 199 1115 3 l 754 -62 b 918 -194 851 -62 918 -104 b 744 -342 918 -285 842 -342 l 575 -342 l 575 -235 l 749 -235 b 808 -194 783 -235 808 -222 b 756 -154 808 -174 790 -154 l 649 -154 l 649 -12 b 68 486 285 7 68 211 b 706 986 68 775 307 986 b 1265 653 1104 986 1243 779 l 1043 653 b 719 814 1025 724 926 814 l 692 814 b 268 486 431 814 268 675 b 692 158 268 297 431 158 "},"Ĉ":{"ha":1325,"x_min":0,"x_max":0,"o":"m 394 1035 l 603 1236 l 808 1236 l 1017 1035 l 858 1035 l 706 1124 l 553 1035 m 706 -14 b 68 486 307 -14 68 197 b 706 986 68 775 307 986 b 1265 653 1104 986 1243 779 l 1043 653 b 719 814 1025 724 926 814 l 692 814 b 268 486 431 814 268 675 b 692 158 268 297 431 158 l 719 158 b 1043 319 926 158 1021 250 l 1265 319 b 706 -14 1243 193 1104 -14 "},"Ċ":{"ha":1325,"x_min":0,"x_max":0,"o":"m 603 1053 l 603 1249 l 807 1249 l 807 1053 m 706 -14 b 68 486 307 -14 68 197 b 706 986 68 775 307 986 b 1265 653 1104 986 1243 779 l 1043 653 b 719 814 1025 724 926 814 l 692 814 b 268 486 431 814 268 675 b 692 158 268 297 431 158 l 719 158 b 1043 319 926 158 1021 250 l 1265 319 b 706 -14 1243 193 1104 -14 "},"D":{"ha":1364,"x_min":0,"x_max":0,"o":"m 131 0 l 131 972 l 736 972 b 1293 486 1064 972 1293 792 b 736 0 1293 176 1064 0 m 328 172 l 704 172 b 1093 486 953 172 1093 278 b 704 800 1093 694 953 800 l 328 800 "},"Ð":{"ha":1414,"x_min":0,"x_max":0,"o":"m 786 972 b 1343 486 1114 972 1343 792 b 786 0 1343 176 1114 0 l 181 0 l 181 401 l 31 401 l 31 571 l 181 571 l 181 972 m 754 172 b 1143 486 1003 172 1143 278 b 754 800 1143 694 1003 800 l 378 800 l 378 571 l 768 571 l 768 401 l 378 401 l 378 172 "},"Ď":{"ha":1364,"x_min":0,"x_max":0,"o":"m 540 1035 l 332 1236 l 490 1236 l 643 1147 l 796 1236 l 954 1236 l 746 1035 m 131 0 l 131 972 l 736 972 b 1293 486 1064 972 1293 792 b 736 0 1293 176 1064 0 m 328 172 l 704 172 b 1093 486 953 172 1093 278 b 704 800 1093 694 953 800 l 328 800 "},"Đ":{"ha":1414,"x_min":0,"x_max":0,"o":"m 786 972 b 1343 486 1114 972 1343 792 b 786 0 1343 176 1114 0 l 181 0 l 181 401 l 31 401 l 31 571 l 181 571 l 181 972 m 754 172 b 1143 486 1003 172 1143 278 b 754 800 1143 694 1003 800 l 378 800 l 378 571 l 768 571 l 768 401 l 378 401 l 378 172 "},"E":{"ha":1231,"x_min":0,"x_max":0,"o":"m 328 172 l 1160 172 l 1160 0 l 131 0 l 131 972 l 1146 972 l 1146 800 l 328 800 l 328 586 l 1063 586 l 1063 414 l 328 414 "},"É":{"ha":1231,"x_min":0,"x_max":0,"o":"m 906 1236 l 704 1035 l 574 1035 l 685 1236 m 328 172 l 1160 172 l 1160 0 l 131 0 l 131 972 l 1146 972 l 1146 800 l 328 800 l 328 586 l 1063 586 l 1063 414 l 328 414 "},"Ĕ":{"ha":1231,"x_min":0,"x_max":0,"o":"m 639 1036 b 349 1244 469 1036 351 1118 l 507 1244 b 639 1168 515 1193 568 1168 b 771 1244 710 1168 763 1193 l 929 1244 b 639 1036 926 1118 808 1036 m 328 172 l 1160 172 l 1160 0 l 131 0 l 131 972 l 1146 972 l 1146 800 l 328 800 l 328 586 l 1063 586 l 1063 414 l 328 414 "},"Ě":{"ha":1231,"x_min":0,"x_max":0,"o":"m 742 1035 l 536 1035 l 328 1236 l 486 1236 l 639 1147 l 792 1236 l 950 1236 m 328 172 l 1160 172 l 1160 0 l 131 0 l 131 972 l 1146 972 l 1146 800 l 328 800 l 328 586 l 1063 586 l 1063 414 l 328 414 "},"Ê":{"ha":1231,"x_min":0,"x_max":0,"o":"m 639 1124 l 486 1035 l 328 1035 l 536 1236 l 742 1236 l 950 1035 l 792 1035 m 328 172 l 1160 172 l 1160 0 l 131 0 l 131 972 l 1146 972 l 1146 800 l 328 800 l 328 586 l 1063 586 l 1063 414 l 328 414 "},"Ë":{"ha":1231,"x_min":0,"x_max":0,"o":"m 557 1231 l 557 1061 l 368 1061 l 368 1231 m 910 1231 l 910 1061 l 721 1061 l 721 1231 m 328 172 l 1160 172 l 1160 0 l 131 0 l 131 972 l 1146 972 l 1146 800 l 328 800 l 328 586 l 1063 586 l 1063 414 l 328 414 "},"Ė":{"ha":1231,"x_min":0,"x_max":0,"o":"m 740 1249 l 740 1053 l 536 1053 l 536 1249 m 328 172 l 1160 172 l 1160 0 l 131 0 l 131 972 l 1146 972 l 1146 800 l 328 800 l 328 586 l 1063 586 l 1063 414 l 328 414 "},"È":{"ha":1231,"x_min":0,"x_max":0,"o":"m 704 1021 l 574 1021 l 372 1222 l 593 1222 m 328 172 l 1160 172 l 1160 0 l 131 0 l 131 972 l 1146 972 l 1146 800 l 328 800 l 328 586 l 1063 586 l 1063 414 l 328 414 "},"Ē":{"ha":1231,"x_min":0,"x_max":0,"o":"m 950 1217 l 950 1061 l 326 1061 l 326 1217 m 328 172 l 1160 172 l 1160 0 l 131 0 l 131 972 l 1146 972 l 1146 800 l 328 800 l 328 586 l 1063 586 l 1063 414 l 328 414 "},"Ę":{"ha":1231,"x_min":0,"x_max":0,"o":"m 1208 -192 l 1208 -306 l 1085 -306 b 900 -167 985 -306 900 -247 b 1019 0 900 -86 961 -32 l 131 0 l 131 972 l 1146 972 l 1146 800 l 328 800 l 328 586 l 1063 586 l 1063 414 l 328 414 l 328 172 l 1160 172 l 1160 0 b 1031 -125 1108 -26 1031 -69 b 1118 -192 1031 -174 1076 -192 "},"F":{"ha":1156,"x_min":0,"x_max":0,"o":"m 131 0 l 131 972 l 1118 972 l 1118 800 l 328 800 l 328 558 l 1028 558 l 1028 386 l 328 386 l 328 0 "},"G":{"ha":1413,"x_min":0,"x_max":0,"o":"m 713 -14 b 68 486 292 -14 68 194 b 719 986 68 778 308 986 b 1301 639 1078 986 1274 832 l 1079 639 b 732 814 1065 707 971 814 l 704 814 b 268 486 449 814 268 696 b 699 158 268 276 436 158 l 726 158 b 1126 343 990 158 1126 250 l 1126 347 l 699 347 l 699 519 l 1192 519 b 1324 388 1285 519 1324 457 l 1324 0 l 1126 0 l 1126 126 b 713 -14 1078 68 960 -14 "},"Ğ":{"ha":1413,"x_min":0,"x_max":0,"o":"m 721 1036 b 431 1244 551 1036 433 1118 l 589 1244 b 721 1168 597 1193 650 1168 b 853 1244 792 1168 844 1193 l 1011 1244 b 721 1036 1008 1118 890 1036 m 713 -14 b 68 486 292 -14 68 194 b 719 986 68 778 308 986 b 1301 639 1078 986 1274 832 l 1079 639 b 732 814 1065 707 971 814 l 704 814 b 268 486 449 814 268 696 b 699 158 268 276 436 158 l 726 158 b 1126 343 990 158 1126 250 l 1126 347 l 699 347 l 699 519 l 1192 519 b 1324 388 1285 519 1324 457 l 1324 0 l 1126 0 l 1126 126 b 713 -14 1078 68 960 -14 "},"Ĝ":{"ha":1413,"x_min":0,"x_max":0,"o":"m 410 1035 l 618 1236 l 824 1236 l 1032 1035 l 874 1035 l 721 1124 l 568 1035 m 713 -14 b 68 486 292 -14 68 194 b 719 986 68 778 308 986 b 1301 639 1078 986 1274 832 l 1079 639 b 732 814 1065 707 971 814 l 704 814 b 268 486 449 814 268 696 b 699 158 268 276 436 158 l 726 158 b 1126 343 990 158 1126 250 l 1126 347 l 699 347 l 699 519 l 1192 519 b 1324 388 1285 519 1324 457 l 1324 0 l 1126 0 l 1126 126 b 713 -14 1078 68 960 -14 "},"Ģ":{"ha":1413,"x_min":0,"x_max":0,"o":"m 713 -14 b 68 486 292 -14 68 194 b 719 986 68 778 308 986 b 1301 639 1078 986 1274 832 l 1079 639 b 732 814 1065 707 971 814 l 704 814 b 268 486 449 814 268 696 b 699 158 268 276 436 158 l 726 158 b 1126 343 990 158 1126 250 l 1126 347 l 699 347 l 699 519 l 1192 519 b 1324 388 1285 519 1324 457 l 1324 0 l 1126 0 l 1126 126 b 713 -14 1078 68 960 -14 m 564 -429 l 564 -325 l 626 -325 b 699 -271 678 -325 699 -303 l 699 -269 l 613 -269 l 613 -86 l 813 -86 l 813 -269 b 635 -429 813 -362 739 -429 "},"Ġ":{"ha":1413,"x_min":0,"x_max":0,"o":"m 618 1053 l 618 1249 l 822 1249 l 822 1053 m 713 -14 b 68 486 292 -14 68 194 b 719 986 68 778 308 986 b 1301 639 1078 986 1274 832 l 1079 639 b 732 814 1065 707 971 814 l 704 814 b 268 486 449 814 268 696 b 699 158 268 276 436 158 l 726 158 b 1126 343 990 158 1126 250 l 1126 347 l 699 347 l 699 519 l 1192 519 b 1324 388 1285 519 1324 457 l 1324 0 l 1126 0 l 1126 126 b 713 -14 1078 68 960 -14 "},"H":{"ha":1372,"x_min":0,"x_max":0,"o":"m 131 0 l 131 972 l 328 972 l 328 576 l 1044 576 l 1044 972 l 1242 972 l 1242 0 l 1044 0 l 1044 404 l 328 404 l 328 0 "},"Ħ":{"ha":1513,"x_min":0,"x_max":0,"o":"m 1469 844 l 1469 682 l 1313 682 l 1313 0 l 1115 0 l 1115 404 l 399 404 l 399 0 l 201 0 l 201 682 l 43 682 l 43 844 l 201 844 l 201 972 l 399 972 l 399 844 l 1115 844 l 1115 972 l 1313 972 l 1313 844 m 1115 576 l 1115 682 l 399 682 l 399 576 "},"Ĥ":{"ha":1372,"x_min":0,"x_max":0,"o":"m 375 1035 l 583 1236 l 789 1236 l 997 1035 l 839 1035 l 686 1124 l 533 1035 m 131 0 l 131 972 l 328 972 l 328 576 l 1044 576 l 1044 972 l 1242 972 l 1242 0 l 1044 0 l 1044 404 l 328 404 l 328 0 "},"I":{"ha":458,"x_min":0,"x_max":0,"o":"m 131 0 l 131 972 l 328 972 l 328 0 "},"Ĳ":{"ha":1175,"x_min":0,"x_max":0,"o":"m 125 0 l 125 179 l 742 179 b 853 290 818 179 853 214 l 853 972 l 1050 972 l 1050 278 b 772 0 1050 86 964 0 m 125 288 l 125 972 l 322 972 l 322 288 "},"Í":{"ha":458,"x_min":0,"x_max":0,"o":"m 164 1035 l 275 1236 l 496 1236 l 294 1035 m 131 0 l 131 972 l 328 972 l 328 0 "},"Ĭ":{"ha":458,"x_min":0,"x_max":0,"o":"m 229 1036 b -61 1244 60 1036 -58 1118 l 97 1244 b 229 1168 106 1193 158 1168 b 361 1244 300 1168 353 1193 l 519 1244 b 229 1036 517 1118 399 1036 m 131 0 l 131 972 l 328 972 l 328 0 "},"Î":{"ha":458,"x_min":0,"x_max":0,"o":"m -82 1035 l 126 1236 l 332 1236 l 540 1035 l 382 1035 l 229 1124 l 76 1035 m 131 0 l 131 972 l 328 972 l 328 0 "},"Ï":{"ha":458,"x_min":0,"x_max":0,"o":"m -42 1061 l -42 1231 l 147 1231 l 147 1061 m 311 1061 l 311 1231 l 500 1231 l 500 1061 m 131 0 l 131 972 l 328 972 l 328 0 "},"İ":{"ha":458,"x_min":0,"x_max":0,"o":"m 126 1053 l 126 1249 l 331 1249 l 331 1053 m 131 0 l 131 972 l 328 972 l 328 0 "},"Ì":{"ha":458,"x_min":0,"x_max":0,"o":"m 164 1021 l -37 1222 l 183 1222 l 294 1021 m 131 0 l 131 972 l 328 972 l 328 0 "},"Ī":{"ha":458,"x_min":0,"x_max":0,"o":"m -83 1061 l -83 1217 l 540 1217 l 540 1061 m 131 0 l 131 972 l 328 972 l 328 0 "},"Į":{"ha":458,"x_min":0,"x_max":0,"o":"m 376 -192 l 376 -306 l 253 -306 b 68 -167 153 -306 68 -247 b 188 0 68 -86 129 -32 l 131 0 l 131 972 l 328 972 l 328 0 b 199 -125 276 -26 199 -69 b 286 -192 199 -174 244 -192 "},"Ĩ":{"ha":458,"x_min":0,"x_max":0,"o":"m 392 1036 b 261 1064 357 1036 314 1046 l 176 1092 b 94 1111 147 1101 122 1111 b 35 1050 53 1111 35 1082 l -104 1050 l -104 1089 b 69 1250 -104 1175 -25 1250 b 201 1224 128 1250 167 1235 l 283 1197 b 365 1175 308 1189 343 1175 b 424 1236 407 1175 424 1204 l 563 1236 l 563 1197 b 392 1036 563 1111 508 1036 m 131 0 l 131 972 l 328 972 l 328 0 "},"J":{"ha":783,"x_min":0,"x_max":0,"o":"m 44 0 l 44 179 l 350 179 b 461 290 426 179 461 214 l 461 972 l 658 972 l 658 278 b 381 0 658 86 572 0 "},"Ĵ":{"ha":783,"x_min":0,"x_max":0,"o":"m 249 1035 l 457 1236 l 663 1236 l 871 1035 l 713 1035 l 560 1124 l 407 1035 m 44 0 l 44 179 l 350 179 b 461 290 426 179 461 214 l 461 972 l 658 972 l 658 278 b 381 0 658 86 572 0 "},"K":{"ha":1257,"x_min":0,"x_max":0,"o":"m 985 0 l 500 444 l 328 322 l 328 0 l 131 0 l 131 972 l 328 972 l 328 542 l 929 972 l 1240 972 l 661 558 l 1275 0 "},"Ķ":{"ha":1257,"x_min":0,"x_max":0,"o":"m 661 558 l 1275 0 l 985 0 l 500 444 l 328 322 l 328 0 l 131 0 l 131 972 l 328 972 l 328 542 l 929 972 l 1240 972 m 557 -269 l 557 -86 l 757 -86 l 757 -269 b 579 -429 757 -362 683 -429 l 508 -429 l 508 -325 l 571 -325 b 643 -271 622 -325 643 -303 l 643 -269 "},"L":{"ha":1136,"x_min":0,"x_max":0,"o":"m 131 0 l 131 972 l 328 972 l 328 172 l 1106 172 l 1106 0 "},"Ĺ":{"ha":1136,"x_min":0,"x_max":0,"o":"m 164 1035 l 275 1236 l 496 1236 l 294 1035 m 131 0 l 131 972 l 328 972 l 328 172 l 1106 172 l 1106 0 "},"Ľ":{"ha":1138,"x_min":0,"x_max":0,"o":"m 131 0 l 131 972 l 328 972 l 328 172 l 1106 172 l 1106 0 m 551 629 l 551 733 l 614 733 b 686 788 665 733 686 756 l 686 789 l 600 789 l 600 972 l 800 972 l 800 789 b 622 629 800 696 726 629 "},"Ļ":{"ha":1136,"x_min":0,"x_max":0,"o":"m 131 0 l 131 972 l 328 972 l 328 172 l 1106 172 l 1106 0 m 469 -429 l 469 -325 l 532 -325 b 604 -271 583 -325 604 -303 l 604 -269 l 518 -269 l 518 -86 l 718 -86 l 718 -269 b 540 -429 718 -362 644 -429 "},"Ŀ":{"ha":1138,"x_min":0,"x_max":0,"o":"m 131 0 l 131 972 l 328 972 l 328 172 l 1106 172 l 1106 0 m 657 410 l 657 614 l 879 614 l 879 410 "},"Ł":{"ha":1253,"x_min":0,"x_max":0,"o":"m 444 172 l 1222 172 l 1222 0 l 247 0 l 247 326 l 65 257 l 65 442 l 247 510 l 247 972 l 444 972 l 444 585 l 892 753 l 892 569 l 444 400 "},"M":{"ha":1632,"x_min":0,"x_max":0,"o":"m 1189 972 l 1501 972 l 1501 0 l 1304 0 l 1304 778 l 931 0 l 699 0 l 328 767 l 328 0 l 131 0 l 131 972 l 443 972 l 817 197 "},"N":{"ha":1343,"x_min":0,"x_max":0,"o":"m 1015 972 l 1213 972 l 1213 0 l 965 0 l 328 742 l 328 0 l 131 0 l 131 972 l 378 972 l 1015 231 "},"Ń":{"ha":1343,"x_min":0,"x_max":0,"o":"m 939 1236 l 738 1035 l 607 1035 l 718 1236 m 1015 972 l 1213 972 l 1213 0 l 965 0 l 328 742 l 328 0 l 131 0 l 131 972 l 378 972 l 1015 231 "},"Ň":{"ha":1343,"x_min":0,"x_max":0,"o":"m 775 1035 l 569 1035 l 361 1236 l 519 1236 l 672 1147 l 825 1236 l 983 1236 m 1015 972 l 1213 972 l 1213 0 l 965 0 l 328 742 l 328 0 l 131 0 l 131 972 l 378 972 l 1015 231 "},"Ņ":{"ha":1343,"x_min":0,"x_max":0,"o":"m 1015 972 l 1213 972 l 1213 0 l 965 0 l 328 742 l 328 0 l 131 0 l 131 972 l 378 972 l 1015 231 m 572 -269 l 572 -86 l 772 -86 l 772 -269 b 594 -429 772 -362 699 -429 l 524 -429 l 524 -325 l 586 -325 b 658 -271 638 -325 658 -303 l 658 -269 "},"Ŋ":{"ha":1343,"x_min":0,"x_max":0,"o":"m 699 -278 l 699 -119 l 951 -119 b 1015 -56 997 -119 1015 -94 l 1015 -21 l 328 746 l 328 0 l 131 0 l 131 972 l 378 972 l 1015 267 l 1015 972 l 1213 972 l 1213 -56 b 1018 -278 1213 -196 1138 -278 "},"Ñ":{"ha":1343,"x_min":0,"x_max":0,"o":"m 538 1111 b 478 1050 496 1111 478 1082 l 339 1050 l 339 1089 b 513 1250 339 1175 418 1250 b 644 1224 571 1250 610 1235 l 726 1197 b 808 1175 751 1189 786 1175 b 867 1236 850 1175 867 1204 l 1006 1236 l 1006 1197 b 835 1036 1006 1111 951 1036 b 704 1064 800 1036 757 1046 l 619 1092 b 538 1111 590 1101 565 1111 m 1015 972 l 1213 972 l 1213 0 l 965 0 l 328 742 l 328 0 l 131 0 l 131 972 l 378 972 l 1015 231 "},"O":{"ha":1440,"x_min":0,"x_max":0,"o":"m 721 -14 b 68 486 356 -14 68 164 b 721 986 68 808 356 986 b 1372 486 1085 986 1372 808 b 721 -14 1372 164 1085 -14 m 735 158 b 1172 486 972 158 1172 271 b 735 814 1172 701 972 814 l 707 814 b 268 486 469 814 268 701 b 707 158 268 271 469 158 "},"Ó":{"ha":1440,"x_min":0,"x_max":0,"o":"m 656 1035 l 767 1236 l 988 1236 l 786 1035 m 721 -14 b 68 486 356 -14 68 164 b 721 986 68 808 356 986 b 1372 486 1085 986 1372 808 b 721 -14 1372 164 1085 -14 m 735 158 b 1172 486 972 158 1172 271 b 735 814 1172 701 972 814 l 707 814 b 268 486 469 814 268 701 b 707 158 268 271 469 158 "},"Ŏ":{"ha":1440,"x_min":0,"x_max":0,"o":"m 721 1036 b 431 1244 551 1036 433 1118 l 589 1244 b 721 1168 597 1193 650 1168 b 853 1244 792 1168 844 1193 l 1011 1244 b 721 1036 1008 1118 890 1036 m 721 -14 b 68 486 356 -14 68 164 b 721 986 68 808 356 986 b 1372 486 1085 986 1372 808 b 721 -14 1372 164 1085 -14 m 735 158 b 1172 486 972 158 1172 271 b 735 814 1172 701 972 814 l 707 814 b 268 486 469 814 268 701 b 707 158 268 271 469 158 "},"Ô":{"ha":1440,"x_min":0,"x_max":0,"o":"m 410 1035 l 618 1236 l 824 1236 l 1032 1035 l 874 1035 l 721 1124 l 568 1035 m 721 -14 b 68 486 356 -14 68 164 b 721 986 68 808 356 986 b 1372 486 1085 986 1372 808 b 721 -14 1372 164 1085 -14 m 735 158 b 1172 486 972 158 1172 271 b 735 814 1172 701 972 814 l 707 814 b 268 486 469 814 268 701 b 707 158 268 271 469 158 "},"Ö":{"ha":1440,"x_min":0,"x_max":0,"o":"m 450 1061 l 450 1231 l 639 1231 l 639 1061 m 803 1061 l 803 1231 l 992 1231 l 992 1061 m 721 -14 b 68 486 356 -14 68 164 b 721 986 68 808 356 986 b 1372 486 1085 986 1372 808 b 721 -14 1372 164 1085 -14 m 735 158 b 1172 486 972 158 1172 271 b 735 814 1172 701 972 814 l 707 814 b 268 486 469 814 268 701 b 707 158 268 271 469 158 "},"Ò":{"ha":1440,"x_min":0,"x_max":0,"o":"m 656 1021 l 454 1222 l 675 1222 l 786 1021 m 721 -14 b 68 486 356 -14 68 164 b 721 986 68 808 356 986 b 1372 486 1085 986 1372 808 b 721 -14 1372 164 1085 -14 m 735 158 b 1172 486 972 158 1172 271 b 735 814 1172 701 972 814 l 707 814 b 268 486 469 814 268 701 b 707 158 268 271 469 158 "},"Ő":{"ha":1440,"x_min":0,"x_max":0,"o":"m 501 1035 l 613 1236 l 833 1236 l 632 1035 m 810 1035 l 921 1236 l 1142 1236 l 940 1035 m 721 -14 b 68 486 356 -14 68 164 b 721 986 68 808 356 986 b 1372 486 1085 986 1372 808 b 721 -14 1372 164 1085 -14 m 735 158 b 1172 486 972 158 1172 271 b 735 814 1172 701 972 814 l 707 814 b 268 486 469 814 268 701 b 707 158 268 271 469 158 "},"Ō":{"ha":1440,"x_min":0,"x_max":0,"o":"m 408 1061 l 408 1217 l 1032 1217 l 1032 1061 m 721 -14 b 68 486 356 -14 68 164 b 721 986 68 808 356 986 b 1372 486 1085 986 1372 808 b 721 -14 1372 164 1085 -14 m 735 158 b 1172 486 972 158 1172 271 b 735 814 1172 701 972 814 l 707 814 b 268 486 469 814 268 701 b 707 158 268 271 469 158 "},"Ø":{"ha":1458,"x_min":0,"x_max":0,"o":"m 1408 890 l 1272 786 b 1382 486 1342 707 1382 607 b 731 -14 1382 164 1094 -14 b 338 72 582 -14 446 15 l 158 -64 l 51 81 l 189 186 b 78 486 118 264 78 365 b 731 986 78 808 365 986 b 1124 900 879 986 1015 957 l 1300 1035 m 278 486 b 342 303 278 413 301 351 l 963 776 b 744 814 899 801 824 814 l 717 814 b 278 486 479 814 278 701 m 1182 486 b 1119 669 1182 560 1158 621 l 497 196 b 717 158 563 171 638 158 l 744 158 b 1182 486 982 158 1182 271 "},"Ǿ":{"ha":1458,"x_min":0,"x_max":0,"o":"m 997 1236 l 796 1035 l 665 1035 l 776 1236 m 1408 890 l 1272 786 b 1382 486 1342 707 1382 607 b 731 -14 1382 164 1094 -14 b 338 72 582 -14 446 15 l 158 -64 l 51 81 l 189 186 b 78 486 118 264 78 365 b 731 986 78 808 365 986 b 1124 900 879 986 1015 957 l 1300 1035 m 278 486 b 342 303 278 413 301 351 l 963 776 b 744 814 899 801 824 814 l 717 814 b 278 486 479 814 278 701 m 1182 486 b 1119 669 1182 560 1158 621 l 497 196 b 717 158 563 171 638 158 l 744 158 b 1182 486 982 158 1182 271 "},"Õ":{"ha":1440,"x_min":0,"x_max":0,"o":"m 883 1036 b 753 1064 849 1036 806 1046 l 668 1092 b 586 1111 639 1101 614 1111 b 526 1050 544 1111 526 1082 l 388 1050 l 388 1089 b 561 1250 388 1175 467 1250 b 693 1224 619 1250 658 1235 l 775 1197 b 857 1175 800 1189 835 1175 b 915 1236 899 1175 915 1204 l 1054 1236 l 1054 1197 b 883 1036 1054 1111 1000 1036 m 721 -14 b 68 486 356 -14 68 164 b 721 986 68 808 356 986 b 1372 486 1085 986 1372 808 b 721 -14 1372 164 1085 -14 m 735 158 b 1172 486 972 158 1172 271 b 735 814 1172 701 972 814 l 707 814 b 268 486 469 814 268 701 b 707 158 268 271 469 158 "},"Œ":{"ha":2272,"x_min":0,"x_max":0,"o":"m 721 -14 b 68 486 356 -14 68 164 b 721 986 68 808 356 986 b 1172 850 900 986 1060 939 l 1172 972 l 2188 972 l 2188 800 l 1369 800 l 1369 586 l 2104 586 l 2104 414 l 1369 414 l 1369 172 l 2201 172 l 2201 0 l 1172 0 l 1172 122 b 721 -14 1060 33 900 -14 m 735 158 b 1172 486 972 158 1172 271 b 735 814 1172 701 972 814 l 707 814 b 268 486 469 814 268 701 b 707 158 268 271 469 158 "},"P":{"ha":1200,"x_min":0,"x_max":0,"o":"m 131 0 l 131 972 l 782 972 b 1154 663 1008 972 1154 846 b 786 354 1154 476 1014 354 l 328 354 l 328 0 m 328 526 l 760 526 b 954 663 890 526 954 576 b 760 800 954 749 890 800 l 328 800 "},"Þ":{"ha":1218,"x_min":0,"x_max":0,"o":"m 131 0 l 131 972 l 328 972 l 328 794 l 782 794 b 1154 485 1008 794 1154 668 b 786 176 1154 299 1014 176 l 328 176 l 328 0 m 328 349 l 760 349 b 954 485 890 349 954 399 b 760 622 954 571 890 622 l 328 622 "},"Q":{"ha":1440,"x_min":0,"x_max":0,"o":"m 772 -278 b 633 -139 682 -278 633 -215 l 633 -10 b 68 486 311 17 68 190 b 721 986 68 808 356 986 b 1372 486 1085 986 1372 808 b 817 -10 1372 193 1133 19 l 817 -64 b 872 -119 817 -106 831 -119 l 1171 -119 l 1171 -278 m 735 158 b 1172 486 972 158 1172 271 b 735 814 1172 701 972 814 l 707 814 b 268 486 469 814 268 701 b 707 158 268 271 469 158 "},"R":{"ha":1257,"x_min":0,"x_max":0,"o":"m 131 0 l 131 972 l 811 972 b 1157 704 1018 972 1157 860 b 975 467 1157 583 1078 496 b 1133 324 1089 467 1133 417 l 1133 0 l 936 0 l 936 269 b 832 367 936 344 907 367 l 328 367 l 328 0 m 328 539 l 785 539 b 957 671 893 539 957 592 b 785 800 957 754 893 800 l 328 800 "},"Ŕ":{"ha":1257,"x_min":0,"x_max":0,"o":"m 542 1035 l 653 1236 l 874 1236 l 672 1035 m 131 0 l 131 972 l 811 972 b 1157 704 1018 972 1157 860 b 975 467 1157 583 1078 496 b 1133 324 1089 467 1133 417 l 1133 0 l 936 0 l 936 269 b 832 367 936 344 907 367 l 328 367 l 328 0 m 328 539 l 785 539 b 957 671 893 539 957 592 b 785 800 957 754 893 800 l 328 800 "},"Ř":{"ha":1257,"x_min":0,"x_max":0,"o":"m 504 1035 l 296 1236 l 454 1236 l 607 1147 l 760 1236 l 918 1236 l 710 1035 m 131 0 l 131 972 l 811 972 b 1157 704 1018 972 1157 860 b 975 467 1157 583 1078 496 b 1133 324 1089 467 1133 417 l 1133 0 l 936 0 l 936 269 b 832 367 936 344 907 367 l 328 367 l 328 0 m 328 539 l 785 539 b 957 671 893 539 957 592 b 785 800 957 754 893 800 l 328 800 "},"Ŗ":{"ha":1257,"x_min":0,"x_max":0,"o":"m 131 0 l 131 972 l 811 972 b 1157 704 1018 972 1157 860 b 975 467 1157 583 1078 496 b 1133 324 1089 467 1133 417 l 1133 0 l 936 0 l 936 269 b 832 367 936 344 907 367 l 328 367 l 328 0 m 328 539 l 785 539 b 957 671 893 539 957 592 b 785 800 957 754 893 800 l 328 800 m 483 -429 l 483 -325 l 546 -325 b 618 -271 597 -325 618 -303 l 618 -269 l 532 -269 l 532 -86 l 732 -86 l 732 -269 b 554 -429 732 -362 658 -429 "},"S":{"ha":1190,"x_min":0,"x_max":0,"o":"m 596 -14 b 50 326 217 -14 56 117 l 263 326 b 581 158 271 240 349 158 l 608 158 b 894 272 839 158 894 215 b 729 379 894 324 864 363 l 492 408 b 110 704 211 444 110 524 b 592 986 110 851 247 986 b 1129 667 935 986 1113 860 l 908 667 b 604 814 893 749 792 814 l 576 814 b 311 700 388 814 311 765 b 501 600 311 650 346 618 l 732 572 b 1101 289 983 542 1101 453 b 596 -14 1101 99 943 -14 "},"Ś":{"ha":1190,"x_min":0,"x_max":0,"o":"m 528 1035 l 639 1236 l 860 1236 l 658 1035 m 596 -14 b 50 326 217 -14 56 117 l 263 326 b 581 158 271 240 349 158 l 608 158 b 894 272 839 158 894 215 b 729 379 894 324 864 363 l 492 408 b 110 704 211 444 110 524 b 592 986 110 851 247 986 b 1129 667 935 986 1113 860 l 908 667 b 604 814 893 749 792 814 l 576 814 b 311 700 388 814 311 765 b 501 600 311 650 346 618 l 732 572 b 1101 289 983 542 1101 453 b 596 -14 1101 99 943 -14 "},"Š":{"ha":1190,"x_min":0,"x_max":0,"o":"m 490 1035 l 282 1236 l 440 1236 l 593 1147 l 746 1236 l 904 1236 l 696 1035 m 596 -14 b 50 326 217 -14 56 117 l 263 326 b 581 158 271 240 349 158 l 608 158 b 894 272 839 158 894 215 b 729 379 894 324 864 363 l 492 408 b 110 704 211 444 110 524 b 592 986 110 851 247 986 b 1129 667 935 986 1113 860 l 908 667 b 604 814 893 749 792 814 l 576 814 b 311 700 388 814 311 765 b 501 600 311 650 346 618 l 732 572 b 1101 289 983 542 1101 453 b 596 -14 1101 99 943 -14 "},"Ş":{"ha":1190,"x_min":0,"x_max":0,"o":"m 732 572 b 1101 289 983 542 1101 453 b 642 -14 1101 107 957 -4 l 642 -62 b 806 -194 739 -62 806 -104 b 632 -342 806 -285 729 -342 l 463 -342 l 463 -235 l 636 -235 b 696 -194 671 -235 696 -222 b 643 -154 696 -174 678 -154 l 536 -154 l 536 -12 b 50 326 200 0 56 128 l 263 326 b 581 158 271 240 349 158 l 608 158 b 894 272 839 158 894 215 b 729 379 894 324 864 363 l 492 408 b 110 704 211 444 110 524 b 592 986 110 851 247 986 b 1129 667 935 986 1113 860 l 908 667 b 604 814 893 749 792 814 l 576 814 b 311 700 388 814 311 765 b 501 600 311 650 346 618 "},"Ŝ":{"ha":1190,"x_min":0,"x_max":0,"o":"m 282 1035 l 490 1236 l 696 1236 l 904 1035 l 746 1035 l 593 1124 l 440 1035 m 596 -14 b 50 326 217 -14 56 117 l 263 326 b 581 158 271 240 349 158 l 608 158 b 894 272 839 158 894 215 b 729 379 894 324 864 363 l 492 408 b 110 704 211 444 110 524 b 592 986 110 851 247 986 b 1129 667 935 986 1113 860 l 908 667 b 604 814 893 749 792 814 l 576 814 b 311 700 388 814 311 765 b 501 600 311 650 346 618 l 732 572 b 1101 289 983 542 1101 453 b 596 -14 1101 99 943 -14 "},"Ș":{"ha":1190,"x_min":0,"x_max":0,"o":"m 596 -14 b 50 326 217 -14 56 117 l 263 326 b 581 158 271 240 349 158 l 608 158 b 894 272 839 158 894 215 b 729 379 894 324 864 363 l 492 408 b 110 704 211 444 110 524 b 592 986 110 851 247 986 b 1129 667 935 986 1113 860 l 908 667 b 604 814 893 749 792 814 l 576 814 b 311 700 388 814 311 765 b 501 600 311 650 346 618 l 732 572 b 1101 289 983 542 1101 453 b 596 -14 1101 99 943 -14 m 440 -429 l 440 -325 l 503 -325 b 575 -271 554 -325 575 -303 l 575 -269 l 489 -269 l 489 -86 l 689 -86 l 689 -269 b 511 -429 689 -362 615 -429 "},"ẞ":{"ha":1244,"x_min":0,"x_max":0,"o":"m 979 510 b 1175 264 1092 485 1175 399 b 860 0 1175 103 1032 0 l 461 0 l 461 172 l 818 172 b 975 290 913 172 975 217 b 818 407 975 360 913 407 l 461 407 l 461 579 l 765 579 b 913 692 865 579 913 621 b 765 800 913 750 865 800 l 328 800 l 328 0 l 131 0 l 131 972 l 807 972 b 1113 724 979 972 1113 865 b 979 510 1113 618 1053 542 "},"T":{"ha":1181,"x_min":0,"x_max":0,"o":"m 492 0 l 492 800 l 29 800 l 29 972 l 1151 972 l 1151 800 l 689 800 l 689 0 "},"Ŧ":{"ha":1217,"x_min":0,"x_max":0,"o":"m 1169 800 l 707 800 l 707 607 l 1044 607 l 1044 444 l 707 444 l 707 0 l 510 0 l 510 444 l 172 444 l 172 607 l 510 607 l 510 800 l 47 800 l 47 972 l 1169 972 "},"Ť":{"ha":1181,"x_min":0,"x_max":0,"o":"m 488 1035 l 279 1236 l 438 1236 l 590 1147 l 743 1236 l 901 1236 l 693 1035 m 492 0 l 492 800 l 29 800 l 29 972 l 1151 972 l 1151 800 l 689 800 l 689 0 "},"Ţ":{"ha":1181,"x_min":0,"x_max":0,"o":"m 689 0 l 643 0 l 643 -62 b 807 -194 740 -62 807 -104 b 633 -342 807 -285 731 -342 l 464 -342 l 464 -235 l 638 -235 b 697 -194 672 -235 697 -222 b 644 -154 697 -174 679 -154 l 538 -154 l 538 0 l 492 0 l 492 800 l 29 800 l 29 972 l 1151 972 l 1151 800 l 689 800 "},"Ț":{"ha":1181,"x_min":0,"x_max":0,"o":"m 492 0 l 492 800 l 29 800 l 29 972 l 1151 972 l 1151 800 l 689 800 l 689 0 m 442 -429 l 442 -325 l 504 -325 b 576 -271 556 -325 576 -303 l 576 -269 l 490 -269 l 490 -86 l 690 -86 l 690 -269 b 513 -429 690 -362 617 -429 "},"U":{"ha":1264,"x_min":0,"x_max":0,"o":"m 632 -14 b 115 439 286 -14 115 164 l 115 972 l 313 972 l 313 453 b 618 158 313 254 419 158 l 646 158 b 951 453 843 158 951 254 l 951 972 l 1149 972 l 1149 439 b 632 -14 1149 164 967 -14 "},"Ú":{"ha":1264,"x_min":0,"x_max":0,"o":"m 567 1035 l 678 1236 l 899 1236 l 697 1035 m 632 -14 b 115 439 286 -14 115 164 l 115 972 l 313 972 l 313 453 b 618 158 313 254 419 158 l 646 158 b 951 453 843 158 951 254 l 951 972 l 1149 972 l 1149 439 b 632 -14 1149 164 967 -14 "},"Ŭ":{"ha":1264,"x_min":0,"x_max":0,"o":"m 632 1036 b 342 1244 463 1036 344 1118 l 500 1244 b 632 1168 508 1193 561 1168 b 764 1244 703 1168 756 1193 l 922 1244 b 632 1036 919 1118 801 1036 m 632 -14 b 115 439 286 -14 115 164 l 115 972 l 313 972 l 313 453 b 618 158 313 254 419 158 l 646 158 b 951 453 843 158 951 254 l 951 972 l 1149 972 l 1149 439 b 632 -14 1149 164 967 -14 "},"Û":{"ha":1264,"x_min":0,"x_max":0,"o":"m 321 1035 l 529 1236 l 735 1236 l 943 1035 l 785 1035 l 632 1124 l 479 1035 m 632 -14 b 115 439 286 -14 115 164 l 115 972 l 313 972 l 313 453 b 618 158 313 254 419 158 l 646 158 b 951 453 843 158 951 254 l 951 972 l 1149 972 l 1149 439 b 632 -14 1149 164 967 -14 "},"Ü":{"ha":1264,"x_min":0,"x_max":0,"o":"m 361 1061 l 361 1231 l 550 1231 l 550 1061 m 714 1061 l 714 1231 l 903 1231 l 903 1061 m 632 -14 b 115 439 286 -14 115 164 l 115 972 l 313 972 l 313 453 b 618 158 313 254 419 158 l 646 158 b 951 453 843 158 951 254 l 951 972 l 1149 972 l 1149 439 b 632 -14 1149 164 967 -14 "},"Ù":{"ha":1264,"x_min":0,"x_max":0,"o":"m 567 1021 l 365 1222 l 586 1222 l 697 1021 m 632 -14 b 115 439 286 -14 115 164 l 115 972 l 313 972 l 313 453 b 618 158 313 254 419 158 l 646 158 b 951 453 843 158 951 254 l 951 972 l 1149 972 l 1149 439 b 632 -14 1149 164 967 -14 "},"Ű":{"ha":1264,"x_min":0,"x_max":0,"o":"m 413 1035 l 524 1236 l 744 1236 l 543 1035 m 721 1035 l 832 1236 l 1053 1236 l 851 1035 m 632 -14 b 115 439 286 -14 115 164 l 115 972 l 313 972 l 313 453 b 618 158 313 254 419 158 l 646 158 b 951 453 843 158 951 254 l 951 972 l 1149 972 l 1149 439 b 632 -14 1149 164 967 -14 "},"Ū":{"ha":1264,"x_min":0,"x_max":0,"o":"m 319 1061 l 319 1217 l 943 1217 l 943 1061 m 632 -14 b 115 439 286 -14 115 164 l 115 972 l 313 972 l 313 453 b 618 158 313 254 419 158 l 646 158 b 951 453 843 158 951 254 l 951 972 l 1149 972 l 1149 439 b 632 -14 1149 164 967 -14 "},"Ų":{"ha":1264,"x_min":0,"x_max":0,"o":"m 951 972 l 1149 972 l 1149 439 b 779 -1 1149 207 1019 44 b 651 -125 728 -28 651 -69 b 739 -192 651 -174 697 -192 l 829 -192 l 829 -306 l 706 -306 b 521 -167 606 -306 521 -247 b 618 -14 521 -96 567 -47 b 115 439 282 -8 115 168 l 115 972 l 313 972 l 313 453 b 618 158 313 254 419 158 l 646 158 b 951 453 843 158 951 254 "},"Ů":{"ha":1264,"x_min":0,"x_max":0,"o":"m 633 1014 b 444 1167 526 1014 444 1079 b 633 1319 444 1246 526 1319 b 822 1167 740 1319 822 1246 b 633 1014 822 1079 740 1014 m 633 1113 b 714 1167 681 1113 714 1138 b 633 1221 714 1196 681 1221 b 551 1167 586 1221 551 1196 b 633 1113 551 1138 586 1113 m 632 -14 b 115 439 286 -14 115 164 l 115 972 l 313 972 l 313 453 b 618 158 313 254 419 158 l 646 158 b 951 453 843 158 951 254 l 951 972 l 1149 972 l 1149 439 b 632 -14 1149 164 967 -14 "},"Ũ":{"ha":1264,"x_min":0,"x_max":0,"o":"m 794 1036 b 664 1064 760 1036 717 1046 l 579 1092 b 497 1111 550 1101 525 1111 b 438 1050 456 1111 438 1082 l 299 1050 l 299 1089 b 472 1250 299 1175 378 1250 b 604 1224 531 1250 569 1235 l 686 1197 b 768 1175 711 1189 746 1175 b 826 1236 810 1175 826 1204 l 965 1236 l 965 1197 b 794 1036 965 1111 911 1036 m 632 -14 b 115 439 286 -14 115 164 l 115 972 l 313 972 l 313 453 b 618 158 313 254 419 158 l 646 158 b 951 453 843 158 951 254 l 951 972 l 1149 972 l 1149 439 b 632 -14 1149 164 967 -14 "},"V":{"ha":1297,"x_min":0,"x_max":0,"o":"m 1082 972 l 1300 972 l 772 0 l 525 0 l -3 972 l 222 972 l 653 167 "},"W":{"ha":1706,"x_min":0,"x_max":0,"o":"m 1481 972 l 1686 972 l 1353 0 l 1119 0 l 853 746 l 588 0 l 353 0 l 19 972 l 229 972 l 475 239 l 733 972 l 976 972 l 1240 232 "},"Ẃ":{"ha":1706,"x_min":0,"x_max":0,"o":"m 1122 1236 l 921 1035 l 790 1035 l 901 1236 m 1481 972 l 1686 972 l 1353 0 l 1119 0 l 853 746 l 588 0 l 353 0 l 19 972 l 229 972 l 475 239 l 733 972 l 976 972 l 1240 232 "},"Ŵ":{"ha":1706,"x_min":0,"x_max":0,"o":"m 856 1124 l 703 1035 l 544 1035 l 753 1236 l 958 1236 l 1167 1035 l 1008 1035 m 1481 972 l 1686 972 l 1353 0 l 1119 0 l 853 746 l 588 0 l 353 0 l 19 972 l 229 972 l 475 239 l 733 972 l 976 972 l 1240 232 "},"Ẅ":{"ha":1706,"x_min":0,"x_max":0,"o":"m 774 1231 l 774 1061 l 585 1061 l 585 1231 m 1126 1231 l 1126 1061 l 938 1061 l 938 1231 m 1481 972 l 1686 972 l 1353 0 l 1119 0 l 853 746 l 588 0 l 353 0 l 19 972 l 229 972 l 475 239 l 733 972 l 976 972 l 1240 232 "},"Ẁ":{"ha":1706,"x_min":0,"x_max":0,"o":"m 921 1021 l 790 1021 l 589 1222 l 810 1222 m 1481 972 l 1686 972 l 1353 0 l 1119 0 l 853 746 l 588 0 l 353 0 l 19 972 l 229 972 l 475 239 l 733 972 l 976 972 l 1240 232 "},"X":{"ha":1203,"x_min":0,"x_max":0,"o":"m 1206 0 l 935 0 l 600 354 l 265 0 l -3 0 l 467 496 l 18 972 l 286 972 l 601 639 l 918 972 l 1185 972 l 736 497 "},"Y":{"ha":1186,"x_min":0,"x_max":0,"o":"m 918 972 l 1174 972 l 692 421 l 692 0 l 494 0 l 494 421 l 11 972 l 274 972 l 594 597 "},"Ý":{"ha":1186,"x_min":0,"x_max":0,"o":"m 860 1236 l 658 1035 l 528 1035 l 639 1236 m 918 972 l 1174 972 l 692 421 l 692 0 l 494 0 l 494 421 l 11 972 l 274 972 l 594 597 "},"Ŷ":{"ha":1186,"x_min":0,"x_max":0,"o":"m 593 1124 l 440 1035 l 282 1035 l 490 1236 l 696 1236 l 904 1035 l 746 1035 m 918 972 l 1174 972 l 692 421 l 692 0 l 494 0 l 494 421 l 11 972 l 274 972 l 594 597 "},"Ÿ":{"ha":1186,"x_min":0,"x_max":0,"o":"m 511 1231 l 511 1061 l 322 1061 l 322 1231 m 864 1231 l 864 1061 l 675 1061 l 675 1231 m 918 972 l 1174 972 l 692 421 l 692 0 l 494 0 l 494 421 l 11 972 l 274 972 l 594 597 "},"Ỳ":{"ha":1186,"x_min":0,"x_max":0,"o":"m 658 1021 l 528 1021 l 326 1222 l 547 1222 m 918 972 l 1174 972 l 692 421 l 692 0 l 494 0 l 494 421 l 11 972 l 274 972 l 594 597 "},"Ȳ":{"ha":1186,"x_min":0,"x_max":0,"o":"m 904 1217 l 904 1061 l 281 1061 l 281 1217 m 918 972 l 1174 972 l 692 421 l 692 0 l 494 0 l 494 421 l 11 972 l 274 972 l 594 597 "},"Z":{"ha":1156,"x_min":0,"x_max":0,"o":"m 367 172 l 1088 172 l 1088 0 l 67 0 l 67 168 l 774 800 l 81 800 l 81 972 l 1074 972 l 1074 804 "},"Ź":{"ha":1156,"x_min":0,"x_max":0,"o":"m 844 1236 l 643 1035 l 513 1035 l 624 1236 m 367 172 l 1088 172 l 1088 0 l 67 0 l 67 168 l 774 800 l 81 800 l 81 972 l 1074 972 l 1074 804 "},"Ž":{"ha":1156,"x_min":0,"x_max":0,"o":"m 681 1035 l 475 1035 l 267 1236 l 425 1236 l 578 1147 l 731 1236 l 889 1236 m 367 172 l 1088 172 l 1088 0 l 67 0 l 67 168 l 774 800 l 81 800 l 81 972 l 1074 972 l 1074 804 "},"Ż":{"ha":1156,"x_min":0,"x_max":0,"o":"m 679 1249 l 679 1053 l 475 1053 l 475 1249 m 367 172 l 1088 172 l 1088 0 l 67 0 l 67 168 l 774 800 l 81 800 l 81 972 l 1074 972 l 1074 804 "},"a":{"ha":982,"x_min":0,"x_max":0,"o":"m 382 -14 b 58 208 153 -14 58 76 b 375 429 58 340 154 415 l 696 449 l 696 457 b 490 557 696 524 618 557 l 465 557 b 278 479 358 557 286 522 l 88 479 b 482 708 96 608 253 708 b 883 435 738 708 883 617 l 883 153 b 900 0 883 111 886 49 l 713 0 b 701 92 704 31 701 67 b 382 -14 654 44 554 -14 m 431 138 b 696 279 589 138 696 188 l 696 303 l 381 283 b 249 214 278 276 249 250 b 406 138 249 174 288 138 "},"á":{"ha":982,"x_min":0,"x_max":0,"o":"m 413 767 l 531 975 l 747 975 l 553 767 m 382 -14 b 58 208 153 -14 58 76 b 375 429 58 340 154 415 l 696 449 l 696 457 b 490 557 696 524 618 557 l 465 557 b 278 479 358 557 286 522 l 88 479 b 482 708 96 608 253 708 b 883 435 738 708 883 617 l 883 153 b 900 0 883 111 886 49 l 713 0 b 701 92 704 31 701 67 b 382 -14 654 44 554 -14 m 431 138 b 696 279 589 138 696 188 l 696 303 l 381 283 b 249 214 278 276 249 250 b 406 138 249 174 288 138 "},"ă":{"ha":982,"x_min":0,"x_max":0,"o":"m 483 767 b 193 983 315 767 196 849 l 349 983 b 483 901 354 929 397 901 b 618 983 569 901 613 929 l 774 983 b 483 767 771 849 651 767 m 382 -14 b 58 208 153 -14 58 76 b 375 429 58 340 154 415 l 696 449 l 696 457 b 490 557 696 524 618 557 l 465 557 b 278 479 358 557 286 522 l 88 479 b 482 708 96 608 253 708 b 883 435 738 708 883 617 l 883 153 b 900 0 883 111 886 49 l 713 0 b 701 92 704 31 701 67 b 382 -14 654 44 554 -14 m 431 138 b 696 279 589 138 696 188 l 696 303 l 381 283 b 249 214 278 276 249 250 b 406 138 249 174 288 138 "},"â":{"ha":982,"x_min":0,"x_max":0,"o":"m 150 767 l 393 975 l 572 975 l 817 767 l 658 767 l 485 868 l 308 767 m 382 -14 b 58 208 153 -14 58 76 b 375 429 58 340 154 415 l 696 449 l 696 457 b 490 557 696 524 618 557 l 465 557 b 278 479 358 557 286 522 l 88 479 b 482 708 96 608 253 708 b 883 435 738 708 883 617 l 883 153 b 900 0 883 111 886 49 l 713 0 b 701 92 704 31 701 67 b 382 -14 654 44 554 -14 m 431 138 b 696 279 589 138 696 188 l 696 303 l 381 283 b 249 214 278 276 249 250 b 406 138 249 174 288 138 "},"ä":{"ha":982,"x_min":0,"x_max":0,"o":"m 224 782 l 224 967 l 413 967 l 413 782 m 554 782 l 554 967 l 743 967 l 743 782 m 382 -14 b 58 208 153 -14 58 76 b 375 429 58 340 154 415 l 696 449 l 696 457 b 490 557 696 524 618 557 l 465 557 b 278 479 358 557 286 522 l 88 479 b 482 708 96 608 253 708 b 883 435 738 708 883 617 l 883 153 b 900 0 883 111 886 49 l 713 0 b 701 92 704 31 701 67 b 382 -14 654 44 554 -14 m 431 138 b 696 279 589 138 696 188 l 696 303 l 381 283 b 249 214 278 276 249 250 b 406 138 249 174 288 138 "},"ȧ":{"ha":982,"x_min":0,"x_max":0,"o":"m 381 776 l 381 972 l 585 972 l 585 776 m 382 -14 b 58 208 153 -14 58 76 b 375 429 58 340 154 415 l 696 449 l 696 457 b 490 557 696 524 618 557 l 465 557 b 278 479 358 557 286 522 l 88 479 b 482 708 96 608 253 708 b 883 435 738 708 883 617 l 883 153 b 900 0 883 111 886 49 l 713 0 b 701 92 704 31 701 67 b 382 -14 654 44 554 -14 m 431 138 b 696 279 589 138 696 188 l 696 303 l 381 283 b 249 214 278 276 249 250 b 406 138 249 174 288 138 "},"à":{"ha":982,"x_min":0,"x_max":0,"o":"m 413 767 l 218 975 l 435 975 l 553 767 m 382 -14 b 58 208 153 -14 58 76 b 375 429 58 340 154 415 l 696 449 l 696 457 b 490 557 696 524 618 557 l 465 557 b 278 479 358 557 286 522 l 88 479 b 482 708 96 608 253 708 b 883 435 738 708 883 617 l 883 153 b 900 0 883 111 886 49 l 713 0 b 701 92 704 31 701 67 b 382 -14 654 44 554 -14 m 431 138 b 696 279 589 138 696 188 l 696 303 l 381 283 b 249 214 278 276 249 250 b 406 138 249 174 288 138 "},"ā":{"ha":982,"x_min":0,"x_max":0,"o":"m 188 785 l 188 931 l 778 931 l 778 785 m 382 -14 b 58 208 153 -14 58 76 b 375 429 58 340 154 415 l 696 449 l 696 457 b 490 557 696 524 618 557 l 465 557 b 278 479 358 557 286 522 l 88 479 b 482 708 96 608 253 708 b 883 435 738 708 883 617 l 883 153 b 900 0 883 111 886 49 l 713 0 b 701 92 704 31 701 67 b 382 -14 654 44 554 -14 m 431 138 b 696 279 589 138 696 188 l 696 303 l 381 283 b 249 214 278 276 249 250 b 406 138 249 174 288 138 "},"ą":{"ha":982,"x_min":0,"x_max":0,"o":"m 949 -192 l 949 -306 l 825 -306 b 640 -167 725 -306 640 -247 b 760 0 640 -86 701 -32 l 713 0 b 701 92 704 31 701 67 b 382 -14 654 44 554 -14 b 58 208 153 -14 58 76 b 375 429 58 340 154 415 l 696 449 l 696 457 b 490 557 696 524 618 557 l 465 557 b 278 479 358 557 286 522 l 88 479 b 482 708 96 608 253 708 b 883 435 738 708 883 617 l 883 153 b 900 0 883 111 886 49 b 771 -125 849 -26 771 -69 b 858 -192 771 -174 817 -192 m 696 303 l 381 283 b 249 214 278 276 249 250 b 406 138 249 174 288 138 l 431 138 b 696 279 589 138 696 188 "},"å":{"ha":982,"x_min":0,"x_max":0,"o":"m 483 767 b 290 924 368 767 290 835 b 483 1081 290 1004 368 1081 b 676 924 599 1081 676 1004 b 483 767 676 835 599 767 m 485 864 b 569 924 533 864 569 892 b 485 983 569 956 533 983 b 399 924 439 983 399 956 b 485 864 399 892 439 864 m 382 -14 b 58 208 153 -14 58 76 b 375 429 58 340 154 415 l 696 449 l 696 457 b 490 557 696 524 618 557 l 465 557 b 278 479 358 557 286 522 l 88 479 b 482 708 96 608 253 708 b 883 435 738 708 883 617 l 883 153 b 900 0 883 111 886 49 l 713 0 b 701 92 704 31 701 67 b 382 -14 654 44 554 -14 m 431 138 b 696 279 589 138 696 188 l 696 303 l 381 283 b 249 214 278 276 249 250 b 406 138 249 174 288 138 "},"ã":{"ha":982,"x_min":0,"x_max":0,"o":"m 647 767 b 529 790 613 767 582 774 l 406 829 b 344 842 376 839 368 842 b 299 781 314 842 299 813 l 165 781 l 165 819 b 325 981 165 906 238 981 b 431 961 383 981 397 971 l 551 924 b 626 906 576 915 604 906 b 671 967 658 906 671 935 l 804 967 l 804 928 b 647 767 804 842 754 767 m 382 -14 b 58 208 153 -14 58 76 b 375 429 58 340 154 415 l 696 449 l 696 457 b 490 557 696 524 618 557 l 465 557 b 278 479 358 557 286 522 l 88 479 b 482 708 96 608 253 708 b 883 435 738 708 883 617 l 883 153 b 900 0 883 111 886 49 l 713 0 b 701 92 704 31 701 67 b 382 -14 654 44 554 -14 m 431 138 b 696 279 589 138 696 188 l 696 303 l 381 283 b 249 214 278 276 249 250 b 406 138 249 174 288 138 "},"æ":{"ha":1650,"x_min":0,"x_max":0,"o":"m 424 -14 b 58 208 147 -14 58 76 b 375 429 58 340 154 415 l 696 449 l 696 457 b 490 557 696 524 618 557 l 465 557 b 278 479 358 557 286 522 l 88 479 b 482 708 96 608 253 708 b 815 585 646 708 757 663 b 1158 708 896 665 1022 708 b 1586 354 1431 708 1586 557 l 1586 286 l 894 286 b 1146 138 925 193 1019 138 l 1171 138 b 1379 219 1296 138 1357 179 l 1579 219 b 1158 -14 1553 99 1432 -14 b 794 131 999 -14 871 36 b 424 -14 701 19 563 -14 m 1390 428 b 1171 557 1386 507 1296 557 l 1146 557 b 899 428 1013 557 929 506 m 431 138 b 696 279 589 138 696 188 l 696 303 l 381 283 b 249 214 278 276 249 250 b 406 138 249 174 288 138 "},"ǽ":{"ha":1650,"x_min":0,"x_max":0,"o":"m 747 767 l 865 975 l 1082 975 l 888 767 m 424 -14 b 58 208 147 -14 58 76 b 375 429 58 340 154 415 l 696 449 l 696 457 b 490 557 696 524 618 557 l 465 557 b 278 479 358 557 286 522 l 88 479 b 482 708 96 608 253 708 b 815 585 646 708 757 663 b 1158 708 896 665 1022 708 b 1586 354 1431 708 1586 557 l 1586 286 l 894 286 b 1146 138 925 193 1019 138 l 1171 138 b 1379 219 1296 138 1357 179 l 1579 219 b 1158 -14 1553 99 1432 -14 b 794 131 999 -14 871 36 b 424 -14 701 19 563 -14 m 1390 428 b 1171 557 1386 507 1296 557 l 1146 557 b 899 428 1013 557 929 506 m 431 138 b 696 279 589 138 696 188 l 696 303 l 381 283 b 249 214 278 276 249 250 b 406 138 249 174 288 138 "},"b":{"ha":1118,"x_min":0,"x_max":0,"o":"m 626 -14 b 293 106 481 -14 365 29 l 293 0 l 106 0 l 106 972 l 293 972 l 293 590 b 624 708 344 647 451 708 b 1058 347 878 708 1058 560 b 626 -14 1058 114 878 -14 m 603 138 b 868 347 763 138 868 222 b 603 557 868 472 763 557 l 578 557 b 293 347 406 557 293 472 b 578 138 293 222 406 138 "},"c":{"ha":1003,"x_min":0,"x_max":0,"o":"m 519 -14 b 58 347 221 -14 58 140 b 519 708 58 551 231 708 b 950 451 772 708 928 600 l 753 451 b 533 550 728 521 643 550 l 508 550 b 249 347 333 550 249 456 b 508 144 249 240 333 144 l 533 144 b 751 243 649 144 738 186 l 949 243 b 519 -14 926 110 800 -14 "},"ć":{"ha":1003,"x_min":0,"x_max":0,"o":"m 450 767 l 568 975 l 785 975 l 590 767 m 519 -14 b 58 347 221 -14 58 140 b 519 708 58 551 231 708 b 950 451 772 708 928 600 l 753 451 b 533 550 728 521 643 550 l 508 550 b 249 347 333 550 249 456 b 508 144 249 240 333 144 l 533 144 b 751 243 649 144 738 186 l 949 243 b 519 -14 926 110 800 -14 "},"č":{"ha":1003,"x_min":0,"x_max":0,"o":"m 431 765 l 188 974 l 346 974 l 522 876 l 696 974 l 854 974 l 610 765 m 519 -14 b 58 347 221 -14 58 140 b 519 708 58 551 231 708 b 950 451 772 708 928 600 l 753 451 b 533 550 728 521 643 550 l 508 550 b 249 347 333 550 249 456 b 508 144 249 240 333 144 l 533 144 b 751 243 649 144 738 186 l 949 243 b 519 -14 926 110 800 -14 "},"ç":{"ha":1003,"x_min":0,"x_max":0,"o":"m 533 144 b 751 243 649 144 738 186 l 949 243 b 569 -12 928 118 815 1 l 569 -62 b 733 -194 667 -62 733 -104 b 560 -342 733 -285 657 -342 l 390 -342 l 390 -235 l 564 -235 b 624 -194 599 -235 624 -222 b 571 -154 624 -174 606 -154 l 464 -154 l 464 -12 b 58 347 201 6 58 154 b 519 708 58 551 231 708 b 950 451 772 708 928 600 l 753 451 b 533 550 728 521 643 550 l 508 550 b 249 347 333 550 249 456 b 508 144 249 240 333 144 "},"ĉ":{"ha":1003,"x_min":0,"x_max":0,"o":"m 188 767 l 431 975 l 610 975 l 854 767 l 696 767 l 522 868 l 346 767 m 519 -14 b 58 347 221 -14 58 140 b 519 708 58 551 231 708 b 950 451 772 708 928 600 l 753 451 b 533 550 728 521 643 550 l 508 550 b 249 347 333 550 249 456 b 508 144 249 240 333 144 l 533 144 b 751 243 649 144 738 186 l 949 243 b 519 -14 926 110 800 -14 "},"ċ":{"ha":1003,"x_min":0,"x_max":0,"o":"m 418 776 l 418 972 l 622 972 l 622 776 m 519 -14 b 58 347 221 -14 58 140 b 519 708 58 551 231 708 b 950 451 772 708 928 600 l 753 451 b 533 550 728 521 643 550 l 508 550 b 249 347 333 550 249 456 b 508 144 249 240 333 144 l 533 144 b 751 243 649 144 738 186 l 949 243 b 519 -14 926 110 800 -14 "},"d":{"ha":1118,"x_min":0,"x_max":0,"o":"m 492 -14 b 60 347 240 -14 60 114 b 494 708 60 560 247 708 b 825 597 667 708 774 647 l 825 972 l 1013 972 l 1013 0 l 825 0 l 825 106 b 492 -14 753 29 638 -14 m 540 138 b 825 347 713 138 825 222 b 540 557 825 472 713 557 l 515 557 b 250 347 356 557 250 472 b 515 138 250 222 356 138 "},"ð":{"ha":1104,"x_min":0,"x_max":0,"o":"m 808 863 b 1036 406 950 764 1036 607 b 543 -14 1036 181 917 -14 b 57 335 222 -14 57 136 b 528 663 57 515 231 663 b 825 578 626 663 744 642 b 639 775 794 669 729 735 l 463 683 l 404 785 l 469 818 b 374 824 439 822 407 824 b 310 822 356 824 335 824 l 310 978 b 683 929 475 978 583 967 l 878 1029 l 933 926 m 557 138 b 846 331 713 138 846 208 b 557 511 846 458 713 511 l 532 511 b 244 331 363 511 244 458 b 532 138 244 208 363 138 "},"ď":{"ha":1319,"x_min":0,"x_max":0,"o":"m 492 -14 b 60 347 240 -14 60 114 b 494 708 60 560 247 708 b 825 597 667 708 774 647 l 825 972 l 1013 972 l 1013 0 l 825 0 l 825 106 b 492 -14 753 29 638 -14 m 1096 629 l 1096 733 l 1158 733 b 1231 788 1210 733 1231 756 l 1231 789 l 1144 789 l 1144 972 l 1344 972 l 1344 789 b 1167 629 1344 696 1271 629 m 540 138 b 825 347 713 138 825 222 b 540 557 825 472 713 557 l 515 557 b 250 347 356 557 250 472 b 515 138 250 222 356 138 "},"đ":{"ha":1118,"x_min":0,"x_max":0,"o":"m 1142 901 l 1142 769 l 1013 769 l 1013 0 l 825 0 l 825 106 b 492 -14 753 29 638 -14 b 60 347 240 -14 60 114 b 494 708 60 560 247 708 b 825 597 667 708 774 647 l 825 769 l 458 769 l 458 901 l 825 901 l 825 972 l 1013 972 l 1013 901 m 540 138 b 825 347 713 138 825 222 b 540 557 825 472 713 557 l 515 557 b 250 347 356 557 250 472 b 515 138 250 222 356 138 "},"e":{"ha":1015,"x_min":0,"x_max":0,"o":"m 951 286 l 260 286 b 511 138 290 193 385 138 l 536 138 b 744 219 661 138 722 179 l 944 219 b 524 -14 918 99 797 -14 b 60 358 247 -14 60 121 b 524 708 60 582 276 708 b 951 354 796 708 951 557 m 756 428 b 536 557 751 507 661 557 l 511 557 b 264 428 378 557 294 506 "},"é":{"ha":1015,"x_min":0,"x_max":0,"o":"m 783 975 l 589 767 l 449 767 l 567 975 m 951 286 l 260 286 b 511 138 290 193 385 138 l 536 138 b 744 219 661 138 722 179 l 944 219 b 524 -14 918 99 797 -14 b 60 358 247 -14 60 121 b 524 708 60 582 276 708 b 951 354 796 708 951 557 m 756 428 b 536 557 751 507 661 557 l 511 557 b 264 428 378 557 294 506 "},"ĕ":{"ha":1015,"x_min":0,"x_max":0,"o":"m 519 767 b 229 983 351 767 232 849 l 385 983 b 519 901 390 929 433 901 b 654 983 606 901 649 929 l 810 983 b 519 767 807 849 688 767 m 951 286 l 260 286 b 511 138 290 193 385 138 l 536 138 b 744 219 661 138 722 179 l 944 219 b 524 -14 918 99 797 -14 b 60 358 247 -14 60 121 b 524 708 60 582 276 708 b 951 354 796 708 951 557 m 756 428 b 536 557 751 507 661 557 l 511 557 b 264 428 378 557 294 506 "},"ě":{"ha":1015,"x_min":0,"x_max":0,"o":"m 608 765 l 429 765 l 186 974 l 344 974 l 521 876 l 694 974 l 853 974 m 951 286 l 260 286 b 511 138 290 193 385 138 l 536 138 b 744 219 661 138 722 179 l 944 219 b 524 -14 918 99 797 -14 b 60 358 247 -14 60 121 b 524 708 60 582 276 708 b 951 354 796 708 951 557 m 756 428 b 536 557 751 507 661 557 l 511 557 b 264 428 378 557 294 506 "},"ê":{"ha":1015,"x_min":0,"x_max":0,"o":"m 521 868 l 344 767 l 186 767 l 429 975 l 608 975 l 853 767 l 694 767 m 951 286 l 260 286 b 511 138 290 193 385 138 l 536 138 b 744 219 661 138 722 179 l 944 219 b 524 -14 918 99 797 -14 b 60 358 247 -14 60 121 b 524 708 60 582 276 708 b 951 354 796 708 951 557 m 756 428 b 536 557 751 507 661 557 l 511 557 b 264 428 378 557 294 506 "},"ë":{"ha":1015,"x_min":0,"x_max":0,"o":"m 449 967 l 449 782 l 260 782 l 260 967 m 779 967 l 779 782 l 590 782 l 590 967 m 951 286 l 260 286 b 511 138 290 193 385 138 l 536 138 b 744 219 661 138 722 179 l 944 219 b 524 -14 918 99 797 -14 b 60 358 247 -14 60 121 b 524 708 60 582 276 708 b 951 354 796 708 951 557 m 756 428 b 536 557 751 507 661 557 l 511 557 b 264 428 378 557 294 506 "},"ė":{"ha":1015,"x_min":0,"x_max":0,"o":"m 621 972 l 621 776 l 417 776 l 417 972 m 951 286 l 260 286 b 511 138 290 193 385 138 l 536 138 b 744 219 661 138 722 179 l 944 219 b 524 -14 918 99 797 -14 b 60 358 247 -14 60 121 b 524 708 60 582 276 708 b 951 354 796 708 951 557 m 756 428 b 536 557 751 507 661 557 l 511 557 b 264 428 378 557 294 506 "},"è":{"ha":1015,"x_min":0,"x_max":0,"o":"m 589 767 l 449 767 l 254 975 l 471 975 m 951 286 l 260 286 b 511 138 290 193 385 138 l 536 138 b 744 219 661 138 722 179 l 944 219 b 524 -14 918 99 797 -14 b 60 358 247 -14 60 121 b 524 708 60 582 276 708 b 951 354 796 708 951 557 m 756 428 b 536 557 751 507 661 557 l 511 557 b 264 428 378 557 294 506 "},"ē":{"ha":1015,"x_min":0,"x_max":0,"o":"m 814 931 l 814 785 l 224 785 l 224 931 m 951 286 l 260 286 b 511 138 290 193 385 138 l 536 138 b 744 219 661 138 722 179 l 944 219 b 524 -14 918 99 797 -14 b 60 358 247 -14 60 121 b 524 708 60 582 276 708 b 951 354 796 708 951 557 m 756 428 b 536 557 751 507 661 557 l 511 557 b 264 428 378 557 294 506 "},"ę":{"ha":1015,"x_min":0,"x_max":0,"o":"m 951 286 l 260 286 b 511 138 290 193 385 138 l 536 138 b 744 219 661 138 722 179 l 944 219 b 676 0 924 124 844 33 b 547 -125 625 -26 547 -69 b 635 -192 547 -174 593 -192 l 725 -192 l 725 -306 l 601 -306 b 417 -167 501 -306 417 -247 b 514 -14 417 -96 463 -47 b 60 358 243 -11 60 124 b 524 708 60 582 276 708 b 951 354 796 708 951 557 m 756 428 b 536 557 751 507 661 557 l 511 557 b 264 428 378 557 294 506 "},"f":{"ha":717,"x_min":0,"x_max":0,"o":"m 251 0 l 251 543 l 28 543 l 28 694 l 251 694 l 251 785 b 465 972 251 910 324 972 l 738 972 l 738 810 l 499 810 b 440 753 457 810 440 794 l 440 694 l 685 694 l 685 543 l 440 543 l 440 0 "},"g":{"ha":1089,"x_min":0,"x_max":0,"o":"m 493 -306 b 46 -76 199 -306 65 -210 l 240 -76 b 481 -154 269 -133 350 -154 l 506 -154 b 796 56 689 -154 796 -92 l 796 119 b 475 0 749 61 656 0 b 60 354 268 0 60 108 b 475 708 60 594 268 708 b 796 592 658 708 756 642 l 796 694 l 983 694 l 983 42 b 493 -306 983 -161 836 -306 m 526 151 b 796 354 669 151 796 214 b 526 557 796 494 676 557 l 501 557 b 250 354 375 557 250 494 b 501 151 250 214 368 151 "},"ğ":{"ha":1089,"x_min":0,"x_max":0,"o":"m 517 767 b 226 983 349 767 229 849 l 382 983 b 517 901 388 929 431 901 b 651 983 603 901 646 929 l 807 983 b 517 767 804 849 685 767 m 493 -306 b 46 -76 199 -306 65 -210 l 240 -76 b 481 -154 269 -133 350 -154 l 506 -154 b 796 56 689 -154 796 -92 l 796 119 b 475 0 749 61 656 0 b 60 354 268 0 60 108 b 475 708 60 594 268 708 b 796 592 658 708 756 642 l 796 694 l 983 694 l 983 42 b 493 -306 983 -161 836 -306 m 526 151 b 796 354 669 151 796 214 b 526 557 796 494 676 557 l 501 557 b 250 354 375 557 250 494 b 501 151 250 214 368 151 "},"ĝ":{"ha":1089,"x_min":0,"x_max":0,"o":"m 183 767 l 426 975 l 606 975 l 850 767 l 692 767 l 518 868 l 342 767 m 493 -306 b 46 -76 199 -306 65 -210 l 240 -76 b 481 -154 269 -133 350 -154 l 506 -154 b 796 56 689 -154 796 -92 l 796 119 b 475 0 749 61 656 0 b 60 354 268 0 60 108 b 475 708 60 594 268 708 b 796 592 658 708 756 642 l 796 694 l 983 694 l 983 42 b 493 -306 983 -161 836 -306 m 526 151 b 796 354 669 151 796 214 b 526 557 796 494 676 557 l 501 557 b 250 354 375 557 250 494 b 501 151 250 214 368 151 "},"ģ":{"ha":1089,"x_min":0,"x_max":0,"o":"m 661 1133 l 661 1029 l 599 1029 b 526 975 547 1029 526 1007 l 526 974 l 613 974 l 613 790 l 413 790 l 413 974 b 590 1133 413 1067 486 1133 m 493 -306 b 46 -76 199 -306 65 -210 l 240 -76 b 481 -154 269 -133 350 -154 l 506 -154 b 796 56 689 -154 796 -92 l 796 119 b 475 0 749 61 656 0 b 60 354 268 0 60 108 b 475 708 60 594 268 708 b 796 592 658 708 756 642 l 796 694 l 983 694 l 983 42 b 493 -306 983 -161 836 -306 m 526 151 b 796 354 669 151 796 214 b 526 557 796 494 676 557 l 501 557 b 250 354 375 557 250 494 b 501 151 250 214 368 151 "},"ġ":{"ha":1089,"x_min":0,"x_max":0,"o":"m 414 776 l 414 972 l 618 972 l 618 776 m 493 -306 b 46 -76 199 -306 65 -210 l 240 -76 b 481 -154 269 -133 350 -154 l 506 -154 b 796 56 689 -154 796 -92 l 796 119 b 475 0 749 61 656 0 b 60 354 268 0 60 108 b 475 708 60 594 268 708 b 796 592 658 708 756 642 l 796 694 l 983 694 l 983 42 b 493 -306 983 -161 836 -306 m 526 151 b 796 354 669 151 796 214 b 526 557 796 494 676 557 l 501 557 b 250 354 375 557 250 494 b 501 151 250 214 368 151 "},"h":{"ha":1051,"x_min":0,"x_max":0,"o":"m 106 0 l 106 972 l 293 972 l 293 567 b 603 708 349 651 444 708 b 958 381 818 708 958 585 l 958 0 l 771 0 l 771 343 b 565 557 771 488 708 557 l 540 557 b 293 308 419 557 293 467 l 293 0 "},"ħ":{"ha":1051,"x_min":0,"x_max":0,"o":"m 603 708 b 958 381 818 708 958 585 l 958 0 l 771 0 l 771 343 b 565 557 771 488 708 557 l 540 557 b 293 308 419 557 293 467 l 293 0 l 106 0 l 106 769 l -24 769 l -24 901 l 106 901 l 106 972 l 293 972 l 293 901 l 660 901 l 660 769 l 293 769 l 293 567 b 603 708 349 651 444 708 "},"ĥ":{"ha":1051,"x_min":0,"x_max":0,"o":"m 194 1017 l 438 1225 l 617 1225 l 861 1017 l 703 1017 l 529 1118 l 353 1017 m 106 0 l 106 972 l 293 972 l 293 567 b 603 708 349 651 444 708 b 958 381 818 708 958 585 l 958 0 l 771 0 l 771 343 b 565 557 771 488 708 557 l 540 557 b 293 308 419 557 293 467 l 293 0 "},"i":{"ha":399,"x_min":0,"x_max":0,"o":"m 97 776 l 97 972 l 301 972 l 301 776 m 106 0 l 106 694 l 293 694 l 293 0 "},"ı":{"ha":399,"x_min":0,"x_max":0,"o":"m 106 0 l 106 694 l 293 694 l 293 0 "},"í":{"ha":399,"x_min":0,"x_max":0,"o":"m 129 767 l 247 975 l 464 975 l 269 767 m 106 0 l 106 694 l 293 694 l 293 0 "},"ĭ":{"ha":399,"x_min":0,"x_max":0,"o":"m 200 767 b -90 983 32 767 -87 849 l 65 983 b 200 901 71 929 114 901 b 335 983 286 901 329 929 l 490 983 b 200 767 488 849 368 767 m 106 0 l 106 694 l 293 694 l 293 0 "},"î":{"ha":399,"x_min":0,"x_max":0,"o":"m -133 767 l 110 975 l 289 975 l 533 767 l 375 767 l 201 868 l 25 767 m 106 0 l 106 694 l 293 694 l 293 0 "},"ï":{"ha":399,"x_min":0,"x_max":0,"o":"m -60 782 l -60 967 l 129 967 l 129 782 m 271 782 l 271 967 l 460 967 l 460 782 m 106 0 l 106 694 l 293 694 l 293 0 "},"ì":{"ha":399,"x_min":0,"x_max":0,"o":"m 129 767 l -65 975 l 151 975 l 269 767 m 106 0 l 106 694 l 293 694 l 293 0 "},"ĳ":{"ha":903,"x_min":0,"x_max":0,"o":"m 99 776 l 99 972 l 303 972 l 303 776 m 601 776 l 601 972 l 806 972 l 806 776 m 106 -264 l 106 -106 l 554 -106 b 610 -50 594 -106 610 -92 l 610 694 l 797 694 l 797 -69 b 610 -264 797 -194 728 -264 m 106 0 l 106 694 l 293 694 l 293 0 "},"ī":{"ha":399,"x_min":0,"x_max":0,"o":"m -96 785 l -96 931 l 494 931 l 494 785 m 106 0 l 106 694 l 293 694 l 293 0 "},"į":{"ha":399,"x_min":0,"x_max":0,"o":"m 301 972 l 301 776 l 97 776 l 97 972 m 342 -192 l 342 -306 l 218 -306 b 33 -167 118 -306 33 -247 b 153 0 33 -86 94 -32 l 106 0 l 106 694 l 293 694 l 293 0 b 164 -125 242 -26 164 -69 b 251 -192 164 -174 210 -192 "},"ĩ":{"ha":399,"x_min":0,"x_max":0,"o":"m 364 767 b 246 790 329 767 299 774 l 122 829 b 61 842 93 839 85 842 b 15 781 31 842 15 813 l -118 781 l -118 819 b 42 981 -118 906 -46 981 b 147 961 100 981 114 971 l 268 924 b 343 906 293 915 321 906 b 388 967 375 906 388 935 l 521 967 l 521 928 b 364 767 521 842 471 767 m 106 0 l 106 694 l 293 694 l 293 0 "},"j":{"ha":415,"x_min":0,"x_max":0,"o":"m 114 776 l 114 972 l 318 972 l 318 776 m -211 -264 l -211 -106 l 67 -106 b 122 -50 108 -106 122 -92 l 122 694 l 310 694 l 310 -69 b 122 -264 310 -194 242 -264 "},"ȷ":{"ha":415,"x_min":0,"x_max":0,"o":"m -211 -264 l -211 -106 l 67 -106 b 122 -50 108 -106 122 -92 l 122 694 l 310 694 l 310 -69 b 122 -264 310 -194 242 -264 "},"ĵ":{"ha":415,"x_min":0,"x_max":0,"o":"m -117 767 l 126 975 l 306 975 l 550 767 l 392 767 l 218 868 l 42 767 m -211 -264 l -211 -106 l 67 -106 b 122 -50 108 -106 122 -92 l 122 694 l 310 694 l 310 -69 b 122 -264 310 -194 242 -264 "},"k":{"ha":999,"x_min":0,"x_max":0,"o":"m 719 0 l 392 317 l 293 256 l 293 0 l 106 0 l 106 972 l 293 972 l 293 442 l 679 694 l 986 694 l 547 417 l 1004 0 "},"ķ":{"ha":999,"x_min":0,"x_max":0,"o":"m 547 417 l 1004 0 l 719 0 l 392 317 l 293 256 l 293 0 l 106 0 l 106 972 l 293 972 l 293 442 l 679 694 l 986 694 m 407 -269 l 407 -86 l 607 -86 l 607 -269 b 429 -429 607 -362 533 -429 l 358 -429 l 358 -325 l 421 -325 b 493 -271 472 -325 493 -303 l 493 -269 "},"l":{"ha":399,"x_min":0,"x_max":0,"o":"m 106 0 l 106 972 l 293 972 l 293 0 "},"ĺ":{"ha":399,"x_min":0,"x_max":0,"o":"m 129 1044 l 247 1253 l 464 1253 l 269 1044 m 106 0 l 106 972 l 293 972 l 293 0 "},"ľ":{"ha":583,"x_min":0,"x_max":0,"o":"m 106 0 l 106 972 l 293 972 l 293 0 m 357 629 l 357 733 l 419 733 b 492 788 471 733 492 756 l 492 789 l 406 789 l 406 972 l 606 972 l 606 789 b 428 629 606 696 532 629 "},"ļ":{"ha":399,"x_min":0,"x_max":0,"o":"m 106 0 l 106 972 l 293 972 l 293 0 m 51 -429 l 51 -325 l 114 -325 b 186 -271 165 -325 186 -303 l 186 -269 l 100 -269 l 100 -86 l 300 -86 l 300 -269 b 122 -429 300 -362 226 -429 "},"ŀ":{"ha":618,"x_min":0,"x_max":0,"o":"m 106 0 l 106 972 l 293 972 l 293 0 m 397 382 l 397 586 l 619 586 l 619 382 "},"ł":{"ha":549,"x_min":0,"x_max":0,"o":"m 524 756 l 524 586 l 371 514 l 371 0 l 183 0 l 183 426 l 39 358 l 39 528 l 183 596 l 183 972 l 371 972 l 371 683 "},"m":{"ha":1678,"x_min":0,"x_max":0,"o":"m 106 0 l 106 694 l 293 694 l 293 586 b 564 708 343 663 431 708 b 871 556 700 708 813 660 b 1215 708 936 664 1067 708 b 1585 378 1492 708 1585 564 l 1585 0 l 1397 0 l 1397 371 b 1193 557 1397 481 1342 557 l 1168 557 b 939 322 1024 557 939 465 l 939 0 l 751 0 l 751 371 b 531 557 751 481 685 557 l 506 557 b 293 322 369 557 293 465 l 293 0 "},"n":{"ha":1051,"x_min":0,"x_max":0,"o":"m 106 0 l 106 694 l 293 694 l 293 567 b 603 708 349 651 444 708 b 958 381 818 708 958 585 l 958 0 l 771 0 l 771 343 b 565 557 771 488 708 557 l 540 557 b 293 308 419 557 293 467 l 293 0 "},"ń":{"ha":1051,"x_min":0,"x_max":0,"o":"m 496 767 l 614 975 l 831 975 l 636 767 m 106 0 l 106 694 l 293 694 l 293 567 b 603 708 349 651 444 708 b 958 381 818 708 958 585 l 958 0 l 771 0 l 771 343 b 565 557 771 488 708 557 l 540 557 b 293 308 419 557 293 467 l 293 0 "},"ň":{"ha":1051,"x_min":0,"x_max":0,"o":"m 476 765 l 233 974 l 392 974 l 568 876 l 742 974 l 900 974 l 656 765 m 106 0 l 106 694 l 293 694 l 293 567 b 603 708 349 651 444 708 b 958 381 818 708 958 585 l 958 0 l 771 0 l 771 343 b 565 557 771 488 708 557 l 540 557 b 293 308 419 557 293 467 l 293 0 "},"ņ":{"ha":1051,"x_min":0,"x_max":0,"o":"m 106 0 l 106 694 l 293 694 l 293 567 b 603 708 349 651 444 708 b 958 381 818 708 958 585 l 958 0 l 771 0 l 771 343 b 565 557 771 488 708 557 l 540 557 b 293 308 419 557 293 467 l 293 0 m 383 -429 l 383 -325 l 446 -325 b 518 -271 497 -325 518 -303 l 518 -269 l 432 -269 l 432 -86 l 632 -86 l 632 -269 b 454 -429 632 -362 558 -429 "},"ŋ":{"ha":1051,"x_min":0,"x_max":0,"o":"m 511 -278 l 511 -117 l 715 -117 b 771 -61 760 -117 771 -103 l 771 343 b 565 557 771 488 708 557 l 540 557 b 293 308 419 557 293 467 l 293 0 l 106 0 l 106 694 l 293 694 l 293 567 b 603 708 349 651 444 708 b 958 381 818 708 958 585 l 958 -97 b 782 -278 958 -222 904 -278 "},"ñ":{"ha":1051,"x_min":0,"x_max":0,"o":"m 731 767 b 613 790 696 767 665 774 l 489 829 b 428 842 460 839 451 842 b 382 781 397 842 382 813 l 249 781 l 249 819 b 408 981 249 906 321 981 b 514 961 467 981 481 971 l 635 924 b 710 906 660 915 688 906 b 754 967 742 906 754 935 l 888 967 l 888 928 b 731 767 888 842 838 767 m 106 0 l 106 694 l 293 694 l 293 567 b 603 708 349 651 444 708 b 958 381 818 708 958 585 l 958 0 l 771 0 l 771 343 b 565 557 771 488 708 557 l 540 557 b 293 308 419 557 293 467 l 293 0 "},"o":{"ha":1083,"x_min":0,"x_max":0,"o":"m 540 -14 b 57 347 267 -14 57 136 b 540 708 57 560 267 708 b 1026 347 814 708 1026 560 b 540 -14 1026 136 814 -14 m 554 138 b 836 347 729 138 836 222 b 554 557 836 472 729 557 l 529 557 b 247 347 356 557 247 472 b 529 138 247 222 356 138 "},"ó":{"ha":1083,"x_min":0,"x_max":0,"o":"m 471 767 l 589 975 l 806 975 l 611 767 m 540 -14 b 57 347 267 -14 57 136 b 540 708 57 560 267 708 b 1026 347 814 708 1026 560 b 540 -14 1026 136 814 -14 m 554 138 b 836 347 729 138 836 222 b 554 557 836 472 729 557 l 529 557 b 247 347 356 557 247 472 b 529 138 247 222 356 138 "},"ŏ":{"ha":1083,"x_min":0,"x_max":0,"o":"m 542 767 b 251 983 374 767 254 849 l 407 983 b 542 901 413 929 456 901 b 676 983 628 901 671 929 l 832 983 b 542 767 829 849 710 767 m 540 -14 b 57 347 267 -14 57 136 b 540 708 57 560 267 708 b 1026 347 814 708 1026 560 b 540 -14 1026 136 814 -14 m 554 138 b 836 347 729 138 836 222 b 554 557 836 472 729 557 l 529 557 b 247 347 356 557 247 472 b 529 138 247 222 356 138 "},"ô":{"ha":1083,"x_min":0,"x_max":0,"o":"m 208 767 l 451 975 l 631 975 l 875 767 l 717 767 l 543 868 l 367 767 m 540 -14 b 57 347 267 -14 57 136 b 540 708 57 560 267 708 b 1026 347 814 708 1026 560 b 540 -14 1026 136 814 -14 m 554 138 b 836 347 729 138 836 222 b 554 557 836 472 729 557 l 529 557 b 247 347 356 557 247 472 b 529 138 247 222 356 138 "},"ö":{"ha":1083,"x_min":0,"x_max":0,"o":"m 282 782 l 282 967 l 471 967 l 471 782 m 613 782 l 613 967 l 801 967 l 801 782 m 540 -14 b 57 347 267 -14 57 136 b 540 708 57 560 267 708 b 1026 347 814 708 1026 560 b 540 -14 1026 136 814 -14 m 554 138 b 836 347 729 138 836 222 b 554 557 836 472 729 557 l 529 557 b 247 347 356 557 247 472 b 529 138 247 222 356 138 "},"ò":{"ha":1083,"x_min":0,"x_max":0,"o":"m 471 767 l 276 975 l 493 975 l 611 767 m 540 -14 b 57 347 267 -14 57 136 b 540 708 57 560 267 708 b 1026 347 814 708 1026 560 b 540 -14 1026 136 814 -14 m 554 138 b 836 347 729 138 836 222 b 554 557 836 472 729 557 l 529 557 b 247 347 356 557 247 472 b 529 138 247 222 356 138 "},"ő":{"ha":1083,"x_min":0,"x_max":0,"o":"m 343 767 l 461 975 l 678 975 l 483 767 m 606 767 l 724 975 l 940 975 l 746 767 m 540 -14 b 57 347 267 -14 57 136 b 540 708 57 560 267 708 b 1026 347 814 708 1026 560 b 540 -14 1026 136 814 -14 m 554 138 b 836 347 729 138 836 222 b 554 557 836 472 729 557 l 529 557 b 247 347 356 557 247 472 b 529 138 247 222 356 138 "},"ō":{"ha":1083,"x_min":0,"x_max":0,"o":"m 246 785 l 246 931 l 836 931 l 836 785 m 540 -14 b 57 347 267 -14 57 136 b 540 708 57 560 267 708 b 1026 347 814 708 1026 560 b 540 -14 1026 136 814 -14 m 554 138 b 836 347 729 138 836 222 b 554 557 836 472 729 557 l 529 557 b 247 347 356 557 247 472 b 529 138 247 222 356 138 "},"ø":{"ha":1085,"x_min":0,"x_max":0,"o":"m 929 572 b 1028 347 992 513 1028 435 b 542 -14 1028 136 815 -14 b 300 31 453 -14 371 1 l 185 -69 l 78 56 l 156 122 b 58 347 94 183 58 260 b 542 708 58 560 268 708 b 785 664 631 708 714 693 l 900 764 l 1007 639 m 249 347 b 285 235 249 304 261 267 l 649 547 b 556 557 621 554 589 557 l 531 557 b 249 347 357 557 249 472 m 556 138 b 838 347 731 138 838 222 b 800 461 838 390 825 429 l 436 147 b 531 138 465 140 496 138 "},"ǿ":{"ha":1085,"x_min":0,"x_max":0,"o":"m 807 975 l 613 767 l 472 767 l 590 975 m 929 572 b 1028 347 992 513 1028 435 b 542 -14 1028 136 815 -14 b 300 31 453 -14 371 1 l 185 -69 l 78 56 l 156 122 b 58 347 94 183 58 260 b 542 708 58 560 268 708 b 785 664 631 708 714 693 l 900 764 l 1007 639 m 249 347 b 285 235 249 304 261 267 l 649 547 b 556 557 621 554 589 557 l 531 557 b 249 347 357 557 249 472 m 556 138 b 838 347 731 138 838 222 b 800 461 838 390 825 429 l 436 147 b 531 138 465 140 496 138 "},"õ":{"ha":1083,"x_min":0,"x_max":0,"o":"m 706 767 b 588 790 671 767 640 774 l 464 829 b 403 842 435 839 426 842 b 357 781 372 842 357 813 l 224 781 l 224 819 b 383 981 224 906 296 981 b 489 961 442 981 456 971 l 610 924 b 685 906 635 915 663 906 b 729 967 717 906 729 935 l 863 967 l 863 928 b 706 767 863 842 813 767 m 540 -14 b 57 347 267 -14 57 136 b 540 708 57 560 267 708 b 1026 347 814 708 1026 560 b 540 -14 1026 136 814 -14 m 554 138 b 836 347 729 138 836 222 b 554 557 836 472 729 557 l 529 557 b 247 347 356 557 247 472 b 529 138 247 222 356 138 "},"œ":{"ha":1792,"x_min":0,"x_max":0,"o":"m 540 -14 b 57 347 281 -14 57 136 b 540 708 57 560 281 708 b 924 572 692 708 832 657 b 1300 708 1008 661 1149 708 b 1728 354 1572 708 1728 557 l 1728 286 l 1036 286 b 1288 138 1067 193 1161 138 l 1313 138 b 1521 219 1438 138 1499 179 l 1721 219 b 1300 -14 1694 99 1574 -14 b 922 122 1136 -14 1003 33 b 540 -14 832 38 692 -14 m 554 138 b 836 347 715 138 836 222 b 554 557 836 472 715 557 l 529 557 b 247 347 369 557 247 472 b 529 138 247 222 369 138 m 1532 428 b 1313 557 1528 507 1438 557 l 1288 557 b 1040 428 1154 557 1071 506 "},"p":{"ha":1118,"x_min":0,"x_max":0,"o":"m 106 -278 l 106 694 l 293 694 l 293 589 b 626 708 365 665 481 708 b 1058 347 878 708 1058 578 b 624 -14 1058 132 871 -14 b 293 104 451 -14 344 47 l 293 -278 m 603 138 b 868 347 763 138 868 222 b 603 557 868 472 763 557 l 578 557 b 293 347 406 557 293 472 b 578 138 293 222 406 138 "},"þ":{"ha":1118,"x_min":0,"x_max":0,"o":"m 106 -278 l 106 972 l 293 972 l 293 589 b 626 708 365 665 481 708 b 1058 347 874 708 1058 578 b 624 -14 1058 132 874 -14 b 293 104 451 -14 344 47 l 293 -278 m 603 138 b 868 347 763 138 868 222 b 603 557 868 472 763 557 l 578 557 b 293 347 406 557 293 472 b 578 138 293 222 406 138 "},"q":{"ha":1118,"x_min":0,"x_max":0,"o":"m 825 -278 l 825 104 b 494 -14 774 47 667 -14 b 60 347 247 -14 60 132 b 492 708 60 578 240 708 b 825 589 638 708 753 665 l 825 694 l 1013 694 l 1013 -278 m 540 138 b 825 347 713 138 825 222 b 540 557 825 472 713 557 l 515 557 b 250 347 356 557 250 472 b 515 138 250 222 356 138 "},"r":{"ha":706,"x_min":0,"x_max":0,"o":"m 106 0 l 106 694 l 293 694 l 293 565 b 511 694 324 638 397 694 l 675 694 l 675 526 l 471 526 b 293 356 333 526 293 475 l 293 0 "},"ŕ":{"ha":706,"x_min":0,"x_max":0,"o":"m 301 767 l 419 975 l 636 975 l 442 767 m 106 0 l 106 694 l 293 694 l 293 565 b 511 694 324 638 397 694 l 675 694 l 675 526 l 471 526 b 293 356 333 526 293 475 l 293 0 "},"ř":{"ha":706,"x_min":0,"x_max":0,"o":"m 282 765 l 39 974 l 197 974 l 374 876 l 547 974 l 706 974 l 461 765 m 106 0 l 106 694 l 293 694 l 293 565 b 511 694 324 638 397 694 l 675 694 l 675 526 l 471 526 b 293 356 333 526 293 475 l 293 0 "},"ŗ":{"ha":706,"x_min":0,"x_max":0,"o":"m 106 0 l 106 694 l 293 694 l 293 565 b 511 694 324 638 397 694 l 675 694 l 675 526 l 471 526 b 293 356 333 526 293 475 l 293 0 m 51 -429 l 51 -325 l 114 -325 b 186 -271 165 -325 186 -303 l 186 -269 l 100 -269 l 100 -86 l 300 -86 l 300 -269 b 122 -429 300 -362 226 -429 "},"s":{"ha":921,"x_min":0,"x_max":0,"o":"m 463 -14 b 47 229 210 -14 58 79 l 240 229 b 451 138 249 178 340 138 l 476 138 b 657 199 619 138 657 161 b 544 258 657 226 640 249 l 349 278 b 89 485 147 297 89 381 b 456 708 89 639 239 708 b 861 465 721 708 847 610 l 668 465 b 469 557 654 519 596 557 l 444 557 b 278 497 332 557 278 532 b 400 436 278 468 292 447 l 569 419 b 847 207 783 399 847 313 b 463 -14 847 71 728 -14 "},"ś":{"ha":921,"x_min":0,"x_max":0,"o":"m 390 767 l 508 975 l 725 975 l 531 767 m 463 -14 b 47 229 210 -14 58 79 l 240 229 b 451 138 249 178 340 138 l 476 138 b 657 199 619 138 657 161 b 544 258 657 226 640 249 l 349 278 b 89 485 147 297 89 381 b 456 708 89 639 239 708 b 861 465 721 708 847 610 l 668 465 b 469 557 654 519 596 557 l 444 557 b 278 497 332 557 278 532 b 400 436 278 468 292 447 l 569 419 b 847 207 783 399 847 313 b 463 -14 847 71 728 -14 "},"š":{"ha":921,"x_min":0,"x_max":0,"o":"m 371 765 l 128 974 l 286 974 l 463 876 l 636 974 l 794 974 l 550 765 m 463 -14 b 47 229 210 -14 58 79 l 240 229 b 451 138 249 178 340 138 l 476 138 b 657 199 619 138 657 161 b 544 258 657 226 640 249 l 349 278 b 89 485 147 297 89 381 b 456 708 89 639 239 708 b 861 465 721 708 847 610 l 668 465 b 469 557 654 519 596 557 l 444 557 b 278 497 332 557 278 532 b 400 436 278 468 292 447 l 569 419 b 847 207 783 399 847 313 b 463 -14 847 71 728 -14 "},"ş":{"ha":921,"x_min":0,"x_max":0,"o":"m 569 419 b 847 207 783 399 847 313 b 504 -12 847 78 740 -4 l 504 -62 b 668 -194 601 -62 668 -104 b 494 -342 668 -285 592 -342 l 325 -342 l 325 -235 l 499 -235 b 558 -194 533 -235 558 -222 b 506 -154 558 -174 540 -154 l 399 -154 l 399 -11 b 47 229 185 3 57 92 l 240 229 b 451 138 249 178 340 138 l 476 138 b 657 199 619 138 657 161 b 544 258 657 226 640 249 l 349 278 b 89 485 147 297 89 381 b 456 708 89 639 239 708 b 861 465 721 708 847 610 l 668 465 b 469 557 654 519 596 557 l 444 557 b 278 497 332 557 278 532 b 400 436 278 468 292 447 "},"ŝ":{"ha":921,"x_min":0,"x_max":0,"o":"m 128 767 l 371 975 l 550 975 l 794 767 l 636 767 l 463 868 l 286 767 m 463 -14 b 47 229 210 -14 58 79 l 240 229 b 451 138 249 178 340 138 l 476 138 b 657 199 619 138 657 161 b 544 258 657 226 640 249 l 349 278 b 89 485 147 297 89 381 b 456 708 89 639 239 708 b 861 465 721 708 847 610 l 668 465 b 469 557 654 519 596 557 l 444 557 b 278 497 332 557 278 532 b 400 436 278 468 292 447 l 569 419 b 847 207 783 399 847 313 b 463 -14 847 71 728 -14 "},"ș":{"ha":921,"x_min":0,"x_max":0,"o":"m 463 -14 b 47 229 210 -14 58 79 l 240 229 b 451 138 249 178 340 138 l 476 138 b 657 199 619 138 657 161 b 544 258 657 226 640 249 l 349 278 b 89 485 147 297 89 381 b 456 708 89 639 239 708 b 861 465 721 708 847 610 l 668 465 b 469 557 654 519 596 557 l 444 557 b 278 497 332 557 278 532 b 400 436 278 468 292 447 l 569 419 b 847 207 783 399 847 313 b 463 -14 847 71 728 -14 m 303 -429 l 303 -325 l 365 -325 b 438 -271 417 -325 438 -303 l 438 -269 l 351 -269 l 351 -86 l 551 -86 l 551 -269 b 374 -429 551 -362 478 -429 "},"ß":{"ha":1019,"x_min":0,"x_max":0,"o":"m 106 -257 l 106 657 b 524 986 106 851 238 986 b 922 732 821 986 922 850 b 768 518 922 601 822 540 b 957 282 840 503 957 428 b 593 0 957 115 826 0 l 422 0 l 422 151 l 560 151 b 767 292 710 151 767 206 b 556 433 767 378 697 433 l 422 433 l 422 585 l 549 585 b 742 713 686 585 742 638 b 531 835 742 774 683 835 l 517 835 b 293 650 390 835 293 786 l 293 -257 "},"t":{"ha":778,"x_min":0,"x_max":0,"o":"m 378 0 b 225 153 281 0 225 56 l 225 543 l 19 543 l 19 694 l 225 694 l 225 919 l 413 919 l 413 694 l 699 694 l 699 543 l 413 543 l 413 211 b 468 156 413 169 426 156 l 740 156 l 740 0 "},"ŧ":{"ha":799,"x_min":0,"x_max":0,"o":"m 757 156 l 757 0 l 394 0 b 242 153 297 0 242 56 l 242 317 l 33 317 l 33 449 l 242 449 l 242 543 l 36 543 l 36 694 l 242 694 l 242 919 l 429 919 l 429 694 l 715 694 l 715 543 l 429 543 l 429 449 l 717 449 l 717 317 l 429 317 l 429 211 b 485 156 429 169 443 156 "},"ť":{"ha":924,"x_min":0,"x_max":0,"o":"m 768 629 l 768 733 l 831 733 b 903 788 882 733 903 756 l 903 789 l 817 789 l 817 972 l 1017 972 l 1017 789 b 839 629 1017 696 943 629 m 378 0 b 225 153 281 0 225 56 l 225 543 l 19 543 l 19 694 l 225 694 l 225 919 l 413 919 l 413 694 l 699 694 l 699 543 l 413 543 l 413 211 b 468 156 413 169 426 156 l 740 156 l 740 0 "},"ţ":{"ha":778,"x_min":0,"x_max":0,"o":"m 740 0 l 432 0 l 432 -62 b 596 -194 529 -62 596 -104 b 422 -342 596 -285 519 -342 l 253 -342 l 253 -235 l 426 -235 b 486 -194 461 -235 486 -222 b 433 -154 486 -174 468 -154 l 326 -154 l 326 6 b 225 153 261 24 225 74 l 225 543 l 19 543 l 19 694 l 225 694 l 225 919 l 413 919 l 413 694 l 699 694 l 699 543 l 413 543 l 413 211 b 468 156 413 169 426 156 l 740 156 "},"ț":{"ha":778,"x_min":0,"x_max":0,"o":"m 378 0 b 225 153 281 0 225 56 l 225 543 l 19 543 l 19 694 l 225 694 l 225 919 l 413 919 l 413 694 l 699 694 l 699 543 l 413 543 l 413 211 b 468 156 413 169 426 156 l 740 156 l 740 0 m 231 -429 l 231 -325 l 293 -325 b 365 -271 344 -325 365 -303 l 365 -269 l 279 -269 l 279 -86 l 479 -86 l 479 -269 b 301 -429 479 -362 406 -429 "},"u":{"ha":1036,"x_min":0,"x_max":0,"o":"m 456 -14 b 94 306 225 -14 94 106 l 94 694 l 282 694 l 282 343 b 485 138 282 208 338 138 l 510 138 b 743 374 636 138 743 222 l 743 694 l 931 694 l 931 0 l 743 0 l 743 111 b 456 -14 685 36 593 -14 "},"ú":{"ha":1036,"x_min":0,"x_max":0,"o":"m 442 767 l 560 975 l 776 975 l 582 767 m 456 -14 b 94 306 225 -14 94 106 l 94 694 l 282 694 l 282 343 b 485 138 282 208 338 138 l 510 138 b 743 374 636 138 743 222 l 743 694 l 931 694 l 931 0 l 743 0 l 743 111 b 456 -14 685 36 593 -14 "},"ŭ":{"ha":1036,"x_min":0,"x_max":0,"o":"m 513 767 b 222 983 344 767 225 849 l 378 983 b 513 901 383 929 426 901 b 647 983 599 901 642 929 l 803 983 b 513 767 800 849 681 767 m 456 -14 b 94 306 225 -14 94 106 l 94 694 l 282 694 l 282 343 b 485 138 282 208 338 138 l 510 138 b 743 374 636 138 743 222 l 743 694 l 931 694 l 931 0 l 743 0 l 743 111 b 456 -14 685 36 593 -14 "},"û":{"ha":1036,"x_min":0,"x_max":0,"o":"m 179 767 l 422 975 l 601 975 l 846 767 l 688 767 l 514 868 l 338 767 m 456 -14 b 94 306 225 -14 94 106 l 94 694 l 282 694 l 282 343 b 485 138 282 208 338 138 l 510 138 b 743 374 636 138 743 222 l 743 694 l 931 694 l 931 0 l 743 0 l 743 111 b 456 -14 685 36 593 -14 "},"ü":{"ha":1036,"x_min":0,"x_max":0,"o":"m 253 782 l 253 967 l 442 967 l 442 782 m 583 782 l 583 967 l 772 967 l 772 782 m 456 -14 b 94 306 225 -14 94 106 l 94 694 l 282 694 l 282 343 b 485 138 282 208 338 138 l 510 138 b 743 374 636 138 743 222 l 743 694 l 931 694 l 931 0 l 743 0 l 743 111 b 456 -14 685 36 593 -14 "},"ù":{"ha":1036,"x_min":0,"x_max":0,"o":"m 442 767 l 247 975 l 464 975 l 582 767 m 456 -14 b 94 306 225 -14 94 106 l 94 694 l 282 694 l 282 343 b 485 138 282 208 338 138 l 510 138 b 743 374 636 138 743 222 l 743 694 l 931 694 l 931 0 l 743 0 l 743 111 b 456 -14 685 36 593 -14 "},"ű":{"ha":1036,"x_min":0,"x_max":0,"o":"m 314 767 l 432 975 l 649 975 l 454 767 m 576 767 l 694 975 l 911 975 l 717 767 m 456 -14 b 94 306 225 -14 94 106 l 94 694 l 282 694 l 282 343 b 485 138 282 208 338 138 l 510 138 b 743 374 636 138 743 222 l 743 694 l 931 694 l 931 0 l 743 0 l 743 111 b 456 -14 685 36 593 -14 "},"ū":{"ha":1036,"x_min":0,"x_max":0,"o":"m 217 785 l 217 931 l 807 931 l 807 785 m 456 -14 b 94 306 225 -14 94 106 l 94 694 l 282 694 l 282 343 b 485 138 282 208 338 138 l 510 138 b 743 374 636 138 743 222 l 743 694 l 931 694 l 931 0 l 743 0 l 743 111 b 456 -14 685 36 593 -14 "},"ų":{"ha":1036,"x_min":0,"x_max":0,"o":"m 979 -192 l 979 -306 l 856 -306 b 671 -167 756 -306 671 -247 b 790 0 671 -86 732 -32 l 743 0 l 743 111 b 456 -14 685 36 593 -14 b 94 306 225 -14 94 106 l 94 694 l 282 694 l 282 343 b 485 138 282 208 338 138 l 510 138 b 743 374 636 138 743 222 l 743 694 l 931 694 l 931 0 b 801 -125 879 -26 801 -69 b 889 -192 801 -174 847 -192 "},"ů":{"ha":1036,"x_min":0,"x_max":0,"o":"m 513 767 b 319 924 397 767 319 835 b 513 1081 319 1004 397 1081 b 706 924 628 1081 706 1004 b 513 767 706 835 628 767 m 514 864 b 599 924 563 864 599 892 b 514 983 599 956 563 983 b 428 924 468 983 428 956 b 514 864 428 892 468 864 m 456 -14 b 94 306 225 -14 94 106 l 94 694 l 282 694 l 282 343 b 485 138 282 208 338 138 l 510 138 b 743 374 636 138 743 222 l 743 694 l 931 694 l 931 0 l 743 0 l 743 111 b 456 -14 685 36 593 -14 "},"ũ":{"ha":1036,"x_min":0,"x_max":0,"o":"m 676 767 b 558 790 642 767 611 774 l 435 829 b 374 842 406 839 397 842 b 328 781 343 842 328 813 l 194 781 l 194 819 b 354 981 194 906 267 981 b 460 961 413 981 426 971 l 581 924 b 656 906 606 915 633 906 b 700 967 688 906 700 935 l 833 967 l 833 928 b 676 767 833 842 783 767 m 456 -14 b 94 306 225 -14 94 106 l 94 694 l 282 694 l 282 343 b 485 138 282 208 338 138 l 510 138 b 743 374 636 138 743 222 l 743 694 l 931 694 l 931 0 l 743 0 l 743 111 b 456 -14 685 36 593 -14 "},"v":{"ha":1001,"x_min":0,"x_max":0,"o":"m 788 694 l 997 694 l 619 0 l 381 0 l 4 694 l 215 694 l 501 163 "},"w":{"ha":1428,"x_min":0,"x_max":0,"o":"m 1221 694 l 1422 694 l 1111 0 l 919 0 l 714 483 l 507 0 l 310 0 l 13 694 l 217 694 l 415 224 l 611 694 l 817 694 l 1018 224 "},"ẃ":{"ha":1428,"x_min":0,"x_max":0,"o":"m 978 975 l 783 767 l 643 767 l 761 975 m 1221 694 l 1422 694 l 1111 0 l 919 0 l 714 483 l 507 0 l 310 0 l 13 694 l 217 694 l 415 224 l 611 694 l 817 694 l 1018 224 "},"ŵ":{"ha":1428,"x_min":0,"x_max":0,"o":"m 715 868 l 539 767 l 381 767 l 624 975 l 803 975 l 1047 767 l 889 767 m 1221 694 l 1422 694 l 1111 0 l 919 0 l 714 483 l 507 0 l 310 0 l 13 694 l 217 694 l 415 224 l 611 694 l 817 694 l 1018 224 "},"ẅ":{"ha":1428,"x_min":0,"x_max":0,"o":"m 643 967 l 643 782 l 454 782 l 454 967 m 974 967 l 974 782 l 785 782 l 785 967 m 1221 694 l 1422 694 l 1111 0 l 919 0 l 714 483 l 507 0 l 310 0 l 13 694 l 217 694 l 415 224 l 611 694 l 817 694 l 1018 224 "},"ẁ":{"ha":1428,"x_min":0,"x_max":0,"o":"m 783 767 l 643 767 l 449 975 l 665 975 m 1221 694 l 1422 694 l 1111 0 l 919 0 l 714 483 l 507 0 l 310 0 l 13 694 l 217 694 l 415 224 l 611 694 l 817 694 l 1018 224 "},"x":{"ha":936,"x_min":0,"x_max":0,"o":"m 924 0 l 671 0 l 467 219 l 263 0 l 13 0 l 343 353 l 25 694 l 278 694 l 469 489 l 661 694 l 911 694 l 594 354 "},"y":{"ha":1018,"x_min":0,"x_max":0,"o":"m 90 -278 l 90 -117 l 375 -117 b 431 -61 417 -117 431 -103 l 431 40 l 15 694 l 239 694 l 524 235 l 801 694 l 1019 694 l 618 44 l 618 -132 b 471 -278 618 -229 568 -278 "},"ý":{"ha":1018,"x_min":0,"x_max":0,"o":"m 450 767 l 568 975 l 785 975 l 590 767 m 90 -278 l 90 -117 l 375 -117 b 431 -61 417 -117 431 -103 l 431 40 l 15 694 l 239 694 l 524 235 l 801 694 l 1019 694 l 618 44 l 618 -132 b 471 -278 618 -229 568 -278 "},"ŷ":{"ha":1018,"x_min":0,"x_max":0,"o":"m 188 767 l 431 975 l 610 975 l 854 767 l 696 767 l 522 868 l 346 767 m 90 -278 l 90 -117 l 375 -117 b 431 -61 417 -117 431 -103 l 431 40 l 15 694 l 239 694 l 524 235 l 801 694 l 1019 694 l 618 44 l 618 -132 b 471 -278 618 -229 568 -278 "},"ÿ":{"ha":1018,"x_min":0,"x_max":0,"o":"m 261 782 l 261 967 l 450 967 l 450 782 m 592 782 l 592 967 l 781 967 l 781 782 m 90 -278 l 90 -117 l 375 -117 b 431 -61 417 -117 431 -103 l 431 40 l 15 694 l 239 694 l 524 235 l 801 694 l 1019 694 l 618 44 l 618 -132 b 471 -278 618 -229 568 -278 "},"ỳ":{"ha":1018,"x_min":0,"x_max":0,"o":"m 450 767 l 256 975 l 472 975 l 590 767 m 90 -278 l 90 -117 l 375 -117 b 431 -61 417 -117 431 -103 l 431 40 l 15 694 l 239 694 l 524 235 l 801 694 l 1019 694 l 618 44 l 618 -132 b 471 -278 618 -229 568 -278 "},"ȳ":{"ha":1018,"x_min":0,"x_max":0,"o":"m 225 785 l 225 931 l 815 931 l 815 785 m 90 -278 l 90 -117 l 375 -117 b 431 -61 417 -117 431 -103 l 431 40 l 15 694 l 239 694 l 524 235 l 801 694 l 1019 694 l 618 44 l 618 -132 b 471 -278 618 -229 568 -278 "},"z":{"ha":933,"x_min":0,"x_max":0,"o":"m 357 151 l 876 151 l 876 0 l 64 0 l 64 150 l 563 543 l 71 543 l 71 694 l 856 694 l 856 544 "},"ź":{"ha":933,"x_min":0,"x_max":0,"o":"m 728 975 l 533 767 l 393 767 l 511 975 m 357 151 l 876 151 l 876 0 l 64 0 l 64 150 l 563 543 l 71 543 l 71 694 l 856 694 l 856 544 "},"ž":{"ha":933,"x_min":0,"x_max":0,"o":"m 553 765 l 374 765 l 131 974 l 289 974 l 465 876 l 639 974 l 797 974 m 357 151 l 876 151 l 876 0 l 64 0 l 64 150 l 563 543 l 71 543 l 71 694 l 856 694 l 856 544 "},"ż":{"ha":933,"x_min":0,"x_max":0,"o":"m 565 972 l 565 776 l 361 776 l 361 972 m 357 151 l 876 151 l 876 0 l 64 0 l 64 150 l 563 543 l 71 543 l 71 694 l 856 694 l 856 544 "},"ﬁ":{"ha":1099,"x_min":0,"x_max":0,"o":"m 251 0 l 251 543 l 28 543 l 28 694 l 251 694 l 251 785 b 465 972 251 910 324 972 l 682 972 l 682 810 l 499 810 b 440 753 457 810 440 794 l 440 694 l 993 694 l 993 0 l 808 0 l 808 543 l 440 543 l 440 0 m 800 779 l 800 972 l 999 972 l 999 779 "},"ﬂ":{"ha":1103,"x_min":0,"x_max":0,"o":"m 214 0 l 214 543 l 32 543 l 32 694 l 214 694 l 214 785 b 428 972 214 910 286 972 l 997 972 l 997 0 l 813 0 l 813 810 l 461 810 b 403 753 419 810 403 794 l 403 694 l 647 694 l 647 543 l 403 543 l 403 0 "},"ª":{"ha":660,"x_min":0,"x_max":0,"o":"m 249 569 b 81 686 158 569 81 613 b 235 810 81 756 133 803 l 418 822 l 418 833 b 329 879 418 864 386 879 l 324 879 b 224 838 271 879 235 863 l 94 838 b 329 979 99 914 182 979 b 551 818 465 979 551 929 l 551 664 b 557 576 551 640 553 604 l 433 576 b 428 626 431 588 429 604 b 249 569 392 593 329 569 m 283 669 b 421 738 357 669 421 693 l 421 749 l 267 738 b 214 704 231 735 214 722 b 278 669 214 682 239 669 "},"º":{"ha":692,"x_min":0,"x_max":0,"o":"m 349 569 b 69 774 174 569 69 658 b 349 979 69 889 174 979 b 622 774 518 979 622 889 b 349 569 622 658 518 569 m 351 681 b 481 774 429 681 481 714 b 351 868 481 833 429 868 l 346 868 b 211 774 261 868 211 833 b 346 681 211 714 261 681 "},"Δ":{"ha":1310,"x_min":0,"x_max":0,"o":"m 761 972 l 1282 125 l 1282 0 l 28 0 l 28 125 l 549 972 m 656 808 l 250 165 l 1060 165 "},"Ω":{"ha":1489,"x_min":0,"x_max":0,"o":"m 106 0 l 106 165 l 304 165 b 82 514 178 242 82 344 b 744 986 82 792 367 986 b 1407 514 1122 986 1407 792 b 1185 165 1407 344 1311 242 l 1383 165 l 1383 0 l 842 0 l 842 165 b 1211 492 1057 201 1211 315 b 751 814 1211 697 1035 814 l 738 814 b 278 492 454 814 278 697 b 647 165 278 315 432 201 l 647 0 "},"μ":{"ha":1057,"x_min":0,"x_max":0,"o":"m 106 -278 l 106 694 l 292 694 l 292 326 b 503 135 292 189 393 135 l 514 135 b 765 364 690 135 765 222 l 765 694 l 951 694 l 951 0 l 765 0 l 765 103 b 468 -14 700 24 607 -14 b 292 14 400 -14 342 -4 l 292 -278 "},"π":{"ha":1371,"x_min":0,"x_max":0,"o":"m 256 0 l 256 543 l 21 543 l 21 694 l 1299 694 l 1299 543 l 1063 543 l 1063 207 b 1118 151 1063 165 1076 151 l 1299 151 l 1299 0 l 1051 0 b 875 146 954 0 875 49 l 875 543 l 443 543 l 443 0 "},"⓿":{"ha":1717,"x_min":0,"x_max":0,"o":"m 858 -56 b 69 486 408 -56 69 161 b 858 1028 69 811 408 1028 b 1647 486 1308 1028 1647 811 b 858 -56 1647 161 1308 -56 m 858 211 b 1172 492 1079 211 1172 350 b 858 774 1172 633 1079 774 b 544 492 638 774 544 633 b 858 211 544 350 638 211 m 856 342 b 700 492 751 342 700 394 b 856 643 700 589 751 643 l 861 643 b 1017 492 965 643 1017 589 b 861 342 1017 394 965 342 "},"❶":{"ha":1717,"x_min":0,"x_max":0,"o":"m 858 -56 b 69 486 408 -56 69 161 b 858 1028 69 811 408 1028 b 1647 486 1308 1028 1647 811 b 858 -56 1647 161 1308 -56 m 811 218 l 961 218 l 961 767 l 833 767 l 594 624 l 594 465 l 811 589 "},"❷":{"ha":1717,"x_min":0,"x_max":0,"o":"m 858 -56 b 69 486 408 -56 69 161 b 858 1028 69 811 408 1028 b 1647 486 1308 1028 1647 811 b 858 -56 1647 161 1308 -56 m 583 219 l 1122 219 l 1122 344 l 817 344 l 972 425 b 1126 608 1086 485 1126 542 b 863 775 1126 685 1054 775 b 581 593 699 775 588 704 l 735 593 b 847 650 736 625 769 650 l 853 650 b 964 594 933 650 964 626 b 889 522 964 567 940 551 l 583 353 "},"❸":{"ha":1717,"x_min":0,"x_max":0,"o":"m 858 -56 b 69 486 408 -56 69 161 b 858 1028 69 811 408 1028 b 1647 486 1308 1028 1647 811 b 858 -56 1647 161 1308 -56 m 836 213 b 1115 368 978 213 1115 264 b 1024 497 1115 424 1090 472 b 1111 618 1089 519 1111 564 b 843 775 1111 719 983 775 b 571 601 699 775 571 715 l 726 601 b 846 651 733 629 754 651 l 853 651 b 958 604 933 651 958 632 b 843 556 958 574 929 556 l 729 556 l 729 436 l 844 436 b 963 388 933 436 963 419 b 843 336 963 356 936 336 l 836 336 b 717 389 775 336 719 356 l 561 389 b 836 213 561 275 690 213 "},"❹":{"ha":1717,"x_min":0,"x_max":0,"o":"m 858 -56 b 69 486 408 -56 69 161 b 858 1028 69 811 408 1028 b 1647 486 1308 1028 1647 811 b 858 -56 1647 161 1308 -56 m 882 218 l 1022 218 l 1022 318 l 1131 318 l 1131 436 l 1022 436 l 1022 767 l 851 767 l 494 469 l 494 318 l 882 318 m 639 436 l 882 638 l 882 436 "},"❺":{"ha":1717,"x_min":0,"x_max":0,"o":"m 858 -56 b 69 486 408 -56 69 161 b 858 1028 69 811 408 1028 b 1647 486 1308 1028 1647 811 b 858 -56 1647 161 1308 -56 m 835 211 b 1103 407 1003 211 1103 286 b 883 583 1103 524 997 583 b 735 551 807 583 769 569 l 754 642 l 1093 642 l 1093 767 l 649 767 l 588 431 l 738 431 b 836 463 751 454 797 463 l 842 463 b 950 400 922 463 950 438 b 839 335 950 364 919 335 l 833 335 b 724 382 778 335 733 354 l 568 382 b 835 211 579 276 686 211 "},"❻":{"ha":1717,"x_min":0,"x_max":0,"o":"m 858 -56 b 69 486 408 -56 69 161 b 858 1028 69 811 408 1028 b 1647 486 1308 1028 1647 811 b 858 -56 1647 161 1308 -56 m 840 211 b 1117 403 1003 211 1117 292 b 871 575 1117 504 1008 575 b 689 519 786 575 731 554 b 853 651 700 590 750 651 l 861 651 b 975 608 933 651 965 632 l 1122 608 b 868 774 1111 703 1019 774 b 544 465 661 774 544 656 b 840 211 544 310 663 211 m 833 333 b 711 396 746 333 711 360 b 833 457 711 431 751 457 l 839 457 b 964 397 926 457 964 433 b 839 333 964 361 926 333 "},"❼":{"ha":1717,"x_min":0,"x_max":0,"o":"m 858 -56 b 69 486 408 -56 69 161 b 858 1028 69 811 408 1028 b 1647 486 1308 1028 1647 811 b 858 -56 1647 161 1308 -56 m 711 218 l 874 218 l 874 243 b 1147 656 874 413 928 519 l 1147 767 l 593 767 l 593 639 l 951 639 b 711 236 767 501 711 401 "},"❽":{"ha":1717,"x_min":0,"x_max":0,"o":"m 858 -56 b 69 486 408 -56 69 161 b 858 1028 69 811 408 1028 b 1647 486 1308 1028 1647 811 b 858 -56 1647 161 1308 -56 m 858 211 b 1114 368 1008 211 1114 275 b 1001 488 1114 422 1074 469 b 1124 624 1075 510 1124 551 b 858 774 1124 719 1003 774 b 592 624 714 774 592 719 b 713 488 592 551 640 510 b 600 368 642 469 600 422 b 858 211 600 275 708 211 m 857 549 b 744 600 789 549 744 567 b 857 651 744 633 789 651 l 864 651 b 971 600 931 651 971 633 b 864 549 971 567 931 549 m 854 333 b 753 382 786 333 753 353 b 854 432 753 411 786 432 l 861 432 b 961 382 933 432 961 411 b 861 333 961 353 933 333 "},"❾":{"ha":1717,"x_min":0,"x_max":0,"o":"m 858 -56 b 69 486 408 -56 69 161 b 858 1028 69 811 408 1028 b 1647 486 1308 1028 1647 811 b 858 -56 1647 161 1308 -56 m 839 211 b 1163 519 1046 211 1163 329 b 867 774 1163 675 1044 774 b 590 582 704 774 590 693 b 836 410 590 481 699 410 b 1018 465 921 410 976 431 b 854 333 1007 394 957 333 l 846 333 b 732 376 774 333 742 353 l 582 376 b 839 211 593 282 688 211 m 868 528 b 743 588 781 528 743 551 b 868 651 743 624 781 651 l 874 651 b 996 589 961 651 996 625 b 874 528 996 554 956 528 "},"⓪":{"ha":1717,"x_min":0,"x_max":0,"o":"m 858 -56 b 69 486 408 -56 69 161 b 858 1028 69 811 408 1028 b 1647 486 1308 1028 1647 811 b 858 -56 1647 161 1308 -56 m 858 65 b 1508 486 1228 65 1508 235 b 858 907 1508 738 1228 907 b 208 486 489 907 208 738 b 858 65 208 235 489 65 m 858 211 b 544 492 638 211 544 350 b 858 774 544 633 638 774 b 1172 492 1079 774 1172 633 b 858 211 1172 350 1079 211 m 861 342 b 1017 492 965 342 1017 394 b 861 643 1017 589 965 643 l 856 643 b 700 492 751 643 700 589 b 856 342 700 394 751 342 "},"①":{"ha":1717,"x_min":0,"x_max":0,"o":"m 858 -56 b 69 486 408 -56 69 161 b 858 1028 69 811 408 1028 b 1647 486 1308 1028 1647 811 b 858 -56 1647 161 1308 -56 m 858 65 b 1508 486 1228 65 1508 235 b 858 907 1508 738 1228 907 b 208 486 489 907 208 738 b 858 65 208 235 489 65 m 811 218 l 811 589 l 594 465 l 594 624 l 833 767 l 961 767 l 961 218 "},"②":{"ha":1717,"x_min":0,"x_max":0,"o":"m 858 -56 b 69 486 408 -56 69 161 b 858 1028 69 811 408 1028 b 1647 486 1308 1028 1647 811 b 858 -56 1647 161 1308 -56 m 858 65 b 1508 486 1228 65 1508 235 b 858 907 1508 738 1228 907 b 208 486 489 907 208 738 b 858 65 208 235 489 65 m 583 219 l 583 353 l 889 522 b 964 594 940 551 964 567 b 853 650 964 626 933 650 l 847 650 b 735 593 769 650 736 625 l 581 593 b 863 775 588 704 699 775 b 1126 608 1054 775 1126 685 b 972 425 1126 542 1086 485 l 817 344 l 1122 344 l 1122 219 "},"③":{"ha":1717,"x_min":0,"x_max":0,"o":"m 858 -56 b 69 486 408 -56 69 161 b 858 1028 69 811 408 1028 b 1647 486 1308 1028 1647 811 b 858 -56 1647 161 1308 -56 m 858 65 b 1508 486 1228 65 1508 235 b 858 907 1508 738 1228 907 b 208 486 489 907 208 738 b 858 65 208 235 489 65 m 836 213 b 561 389 690 213 561 275 l 717 389 b 836 336 719 356 775 336 l 843 336 b 963 388 936 336 963 356 b 844 436 963 419 933 436 l 729 436 l 729 556 l 843 556 b 958 604 929 556 958 574 b 853 651 958 632 933 651 l 846 651 b 726 601 754 651 733 629 l 571 601 b 843 775 571 715 699 775 b 1111 618 983 775 1111 719 b 1024 497 1111 564 1089 519 b 1115 368 1090 472 1115 424 b 836 213 1115 264 978 213 "},"④":{"ha":1717,"x_min":0,"x_max":0,"o":"m 858 -56 b 69 486 408 -56 69 161 b 858 1028 69 811 408 1028 b 1647 486 1308 1028 1647 811 b 858 -56 1647 161 1308 -56 m 858 65 b 1508 486 1228 65 1508 235 b 858 907 1508 738 1228 907 b 208 486 489 907 208 738 b 858 65 208 235 489 65 m 882 218 l 882 318 l 494 318 l 494 469 l 851 767 l 1022 767 l 1022 436 l 1131 436 l 1131 318 l 1022 318 l 1022 218 m 639 436 l 882 436 l 882 638 "},"⑤":{"ha":1717,"x_min":0,"x_max":0,"o":"m 858 -56 b 69 486 408 -56 69 161 b 858 1028 69 811 408 1028 b 1647 486 1308 1028 1647 811 b 858 -56 1647 161 1308 -56 m 858 65 b 1508 486 1228 65 1508 235 b 858 907 1508 738 1228 907 b 208 486 489 907 208 738 b 858 65 208 235 489 65 m 835 211 b 568 382 686 211 579 276 l 724 382 b 833 335 733 354 778 335 l 839 335 b 950 400 919 335 950 364 b 842 463 950 438 922 463 l 836 463 b 738 431 797 463 751 454 l 588 431 l 649 767 l 1093 767 l 1093 642 l 754 642 l 735 551 b 883 583 769 569 807 583 b 1103 407 997 583 1103 524 b 835 211 1103 286 1003 211 "},"⑥":{"ha":1717,"x_min":0,"x_max":0,"o":"m 858 -56 b 69 486 408 -56 69 161 b 858 1028 69 811 408 1028 b 1647 486 1308 1028 1647 811 b 858 -56 1647 161 1308 -56 m 858 65 b 1508 486 1228 65 1508 235 b 858 907 1508 738 1228 907 b 208 486 489 907 208 738 b 858 65 208 235 489 65 m 840 211 b 544 465 663 211 544 310 b 868 774 544 656 661 774 b 1122 608 1019 774 1111 703 l 975 608 b 861 651 965 632 933 651 l 853 651 b 689 519 750 651 700 590 b 871 575 731 554 786 575 b 1117 403 1008 575 1117 504 b 840 211 1117 292 1003 211 m 839 333 b 964 397 926 333 964 361 b 839 457 964 433 926 457 l 833 457 b 711 396 751 457 711 431 b 833 333 711 360 746 333 "},"⑦":{"ha":1717,"x_min":0,"x_max":0,"o":"m 858 -56 b 69 486 408 -56 69 161 b 858 1028 69 811 408 1028 b 1647 486 1308 1028 1647 811 b 858 -56 1647 161 1308 -56 m 858 65 b 1508 486 1228 65 1508 235 b 858 907 1508 738 1228 907 b 208 486 489 907 208 738 b 858 65 208 235 489 65 m 711 218 l 711 236 b 951 639 711 401 767 501 l 593 639 l 593 767 l 1147 767 l 1147 656 b 874 243 928 519 874 413 l 874 218 "},"⑧":{"ha":1717,"x_min":0,"x_max":0,"o":"m 858 -56 b 69 486 408 -56 69 161 b 858 1028 69 811 408 1028 b 1647 486 1308 1028 1647 811 b 858 -56 1647 161 1308 -56 m 858 65 b 1508 486 1228 65 1508 235 b 858 907 1508 738 1228 907 b 208 486 489 907 208 738 b 858 65 208 235 489 65 m 858 211 b 600 368 708 211 600 275 b 713 488 600 422 642 469 b 592 624 640 510 592 551 b 858 774 592 719 714 774 b 1124 624 1003 774 1124 719 b 1001 488 1124 551 1075 510 b 1114 368 1074 469 1114 422 b 858 211 1114 275 1008 211 m 864 549 b 971 600 931 549 971 567 b 864 651 971 633 931 651 l 857 651 b 744 600 789 651 744 633 b 857 549 744 567 789 549 m 861 333 b 961 382 933 333 961 353 b 861 432 961 411 933 432 l 854 432 b 753 382 786 432 753 411 b 854 333 753 353 786 333 "},"⑨":{"ha":1717,"x_min":0,"x_max":0,"o":"m 858 -56 b 69 486 408 -56 69 161 b 858 1028 69 811 408 1028 b 1647 486 1308 1028 1647 811 b 858 -56 1647 161 1308 -56 m 858 65 b 1508 486 1228 65 1508 235 b 858 907 1508 738 1228 907 b 208 486 489 907 208 738 b 858 65 208 235 489 65 m 839 211 b 582 376 688 211 593 282 l 732 376 b 846 333 742 353 774 333 l 854 333 b 1018 465 957 333 1007 394 b 836 410 976 431 921 410 b 590 582 699 410 590 481 b 867 774 590 693 704 774 b 1163 519 1044 774 1163 675 b 839 211 1163 329 1046 211 m 874 528 b 996 589 956 528 996 554 b 874 651 996 625 961 651 l 868 651 b 743 588 781 651 743 624 b 868 528 743 551 781 528 "},"⁰":{"ha":736,"x_min":0,"x_max":0,"o":"m 368 569 b 54 850 147 569 54 708 b 368 1132 54 992 147 1132 b 682 850 589 1132 682 992 b 368 569 682 708 589 569 m 371 700 b 526 850 475 700 526 753 b 371 1001 526 947 475 1001 l 365 1001 b 210 850 261 1001 210 947 b 365 700 210 753 261 700 "},"¹":{"ha":501,"x_min":0,"x_max":0,"o":"m 258 576 l 258 947 l 42 824 l 42 982 l 281 1125 l 408 1125 l 408 576 "},"²":{"ha":669,"x_min":0,"x_max":0,"o":"m 64 576 l 64 710 l 369 879 b 444 951 421 908 444 924 b 333 1007 444 983 414 1007 l 328 1007 b 215 950 250 1007 217 982 l 61 950 b 343 1132 68 1061 179 1132 b 607 965 535 1132 607 1042 b 453 782 607 899 567 842 l 297 701 l 603 701 l 603 576 "},"³":{"ha":667,"x_min":0,"x_max":0,"o":"m 325 569 b 50 746 179 569 50 632 l 206 746 b 325 693 208 713 264 693 l 332 693 b 451 744 425 693 451 713 b 333 793 451 776 422 793 l 218 793 l 218 913 l 332 913 b 447 961 418 913 447 931 b 342 1008 447 989 422 1008 l 335 1008 b 215 958 243 1008 222 986 l 60 958 b 332 1132 60 1072 188 1132 b 600 975 472 1132 600 1076 b 513 854 600 921 578 876 b 604 725 579 829 604 781 b 325 569 604 621 467 569 "},"⁴":{"ha":725,"x_min":0,"x_max":0,"o":"m 431 576 l 431 676 l 43 676 l 43 828 l 400 1125 l 571 1125 l 571 794 l 679 794 l 679 676 l 571 676 l 571 576 m 188 794 l 431 794 l 431 996 "},"⁵":{"ha":643,"x_min":0,"x_max":0,"o":"m 314 569 b 47 740 165 569 58 635 l 203 740 b 313 693 213 713 257 693 l 318 693 b 429 758 399 693 429 722 b 321 821 429 796 401 821 l 315 821 b 217 789 276 821 231 813 l 67 789 l 128 1125 l 572 1125 l 572 1000 l 233 1000 l 214 910 b 363 942 249 928 286 942 b 582 765 476 942 582 882 b 314 569 582 644 482 569 "},"⁶":{"ha":690,"x_min":0,"x_max":0,"o":"m 351 569 b 56 824 174 569 56 668 b 379 1132 56 1014 172 1132 b 633 967 531 1132 622 1061 l 486 967 b 372 1010 476 990 444 1010 l 364 1010 b 200 878 261 1010 211 949 b 382 933 242 913 297 933 b 628 761 519 933 628 863 b 351 569 628 650 514 569 m 350 692 b 475 756 438 692 475 719 b 350 815 475 792 438 815 l 344 815 b 222 754 263 815 222 789 b 344 692 222 718 257 692 "},"⁷":{"ha":613,"x_min":0,"x_max":0,"o":"m 151 576 l 151 594 b 392 997 151 760 207 860 l 33 997 l 33 1125 l 588 1125 l 588 1014 b 314 601 368 878 314 771 l 314 576 "},"⁸":{"ha":651,"x_min":0,"x_max":0,"o":"m 326 569 b 68 726 176 569 68 633 b 181 846 68 781 110 828 b 60 982 108 868 60 910 b 326 1132 60 1078 182 1132 b 592 982 471 1132 592 1078 b 469 846 592 910 543 868 b 582 726 542 828 582 781 b 326 569 582 633 476 569 m 332 907 b 439 958 399 907 439 925 b 332 1010 439 992 399 1010 l 325 1010 b 213 958 257 1010 213 992 b 325 907 213 925 257 907 m 329 692 b 429 740 401 692 429 711 b 329 790 429 769 401 790 l 322 790 b 221 740 254 790 221 769 b 322 692 221 711 254 692 "},"⁹":{"ha":690,"x_min":0,"x_max":0,"o":"m 311 569 b 54 735 160 569 65 640 l 204 735 b 318 692 214 711 246 692 l 326 692 b 490 824 429 692 479 753 b 308 768 449 789 393 768 b 63 940 171 768 63 839 b 339 1132 63 1051 176 1132 b 635 878 517 1132 635 1033 b 311 569 635 688 518 569 m 346 886 b 468 947 428 886 468 913 b 346 1010 468 983 433 1010 l 340 1010 b 215 946 253 1010 215 982 b 340 886 215 910 253 886 "},"⁄":{"ha":240,"x_min":0,"x_max":0,"o":"m -306 0 l 397 972 l 546 972 l -157 0 "},"⅟":{"ha":742,"x_min":0,"x_max":0,"o":"m 258 424 l 258 794 l 42 671 l 42 829 l 281 972 l 408 972 l 408 424 m 196 0 l 899 972 l 1047 972 l 344 0 "},"½":{"ha":1440,"x_min":0,"x_max":0,"o":"m 258 424 l 258 794 l 42 671 l 42 829 l 281 972 l 408 972 l 408 424 m 196 0 l 899 972 l 1047 972 l 344 0 m 804 0 l 804 133 l 1110 303 b 1185 375 1161 332 1185 347 b 1074 431 1185 407 1154 431 l 1068 431 b 956 374 990 431 957 406 l 801 374 b 1083 556 808 485 919 556 b 1347 389 1275 556 1347 465 b 1193 206 1347 322 1307 265 l 1038 125 l 1343 125 l 1343 0 "},"⅓":{"ha":1439,"x_min":0,"x_max":0,"o":"m 258 424 l 258 794 l 42 671 l 42 829 l 281 972 l 408 972 l 408 424 m 196 0 l 899 972 l 1047 972 l 344 0 m 1067 -7 b 792 169 921 -7 792 56 l 947 169 b 1067 117 950 136 1006 117 l 1074 117 b 1193 168 1167 117 1193 136 b 1075 217 1193 200 1164 217 l 960 217 l 960 336 l 1074 336 b 1189 385 1160 336 1189 354 b 1083 432 1189 413 1164 432 l 1076 432 b 957 382 985 432 964 410 l 801 382 b 1074 556 801 496 929 556 b 1342 399 1214 556 1342 500 b 1254 278 1342 344 1319 300 b 1346 149 1321 253 1346 204 b 1067 -7 1346 44 1208 -7 "},"⅔":{"ha":1578,"x_min":0,"x_max":0,"o":"m 63 424 l 63 557 l 368 726 b 443 799 419 756 443 771 b 332 854 443 831 413 854 l 326 854 b 214 797 249 854 215 829 l 60 797 b 342 979 67 908 178 979 b 606 813 533 979 606 889 b 451 629 606 746 565 689 l 296 549 l 601 549 l 601 424 m 364 0 l 1067 972 l 1215 972 l 513 0 m 1235 -7 b 960 169 1089 -7 960 56 l 1115 169 b 1235 117 1118 136 1174 117 l 1242 117 b 1361 168 1335 117 1361 136 b 1243 217 1361 200 1332 217 l 1128 217 l 1128 336 l 1242 336 b 1357 385 1328 336 1357 354 b 1251 432 1357 413 1332 432 l 1244 432 b 1125 382 1153 432 1132 410 l 969 382 b 1242 556 969 496 1097 556 b 1510 399 1382 556 1510 500 b 1422 278 1510 344 1488 300 b 1514 149 1489 253 1514 204 b 1235 -7 1514 44 1376 -7 "},"¼":{"ha":1444,"x_min":0,"x_max":0,"o":"m 258 424 l 258 794 l 42 671 l 42 829 l 281 972 l 408 972 l 408 424 m 196 0 l 899 972 l 1047 972 l 344 0 m 1103 0 l 1103 100 l 715 100 l 715 251 l 1072 549 l 1243 549 l 1243 218 l 1351 218 l 1351 100 l 1243 100 l 1243 0 m 860 218 l 1103 218 l 1103 419 "},"¾":{"ha":1579,"x_min":0,"x_max":0,"o":"m 325 417 b 50 593 179 417 50 479 l 206 593 b 325 540 208 560 264 540 l 332 540 b 451 592 425 540 451 560 b 333 640 451 624 422 640 l 218 640 l 218 760 l 332 760 b 447 808 418 760 447 778 b 342 856 447 836 422 856 l 335 856 b 215 806 243 856 222 833 l 60 806 b 332 979 60 919 188 979 b 600 822 472 979 600 924 b 513 701 600 768 578 724 b 604 572 579 676 604 628 b 325 417 604 468 467 417 m 361 0 l 1064 972 l 1213 972 l 510 0 m 1268 0 l 1268 100 l 881 100 l 881 251 l 1238 549 l 1408 549 l 1408 218 l 1517 218 l 1517 100 l 1408 100 l 1408 0 m 1025 218 l 1268 218 l 1268 419 "},"⅕":{"ha":1417,"x_min":0,"x_max":0,"o":"m 258 424 l 258 794 l 42 671 l 42 829 l 281 972 l 408 972 l 408 424 m 196 0 l 899 972 l 1047 972 l 344 0 m 1056 -7 b 789 164 907 -7 800 58 l 944 164 b 1054 117 954 136 999 117 l 1060 117 b 1171 182 1140 117 1171 146 b 1063 244 1171 219 1143 244 l 1057 244 b 958 213 1018 244 972 236 l 808 213 l 869 549 l 1314 549 l 1314 424 l 975 424 l 956 333 b 1104 365 990 351 1028 365 b 1324 189 1218 365 1324 306 b 1056 -7 1324 68 1224 -7 "},"⅖":{"ha":1556,"x_min":0,"x_max":0,"o":"m 63 424 l 63 557 l 368 726 b 443 799 419 756 443 771 b 332 854 443 831 413 854 l 326 854 b 214 797 249 854 215 829 l 60 797 b 342 979 67 908 178 979 b 606 813 533 979 606 889 b 451 629 606 746 565 689 l 296 549 l 601 549 l 601 424 m 364 0 l 1067 972 l 1215 972 l 513 0 m 1224 -7 b 957 164 1075 -7 968 58 l 1113 164 b 1222 117 1122 136 1167 117 l 1228 117 b 1339 182 1308 117 1339 146 b 1231 244 1339 219 1311 244 l 1225 244 b 1126 213 1186 244 1140 236 l 976 213 l 1038 549 l 1482 549 l 1482 424 l 1143 424 l 1124 333 b 1272 365 1158 351 1196 365 b 1492 189 1386 365 1492 306 b 1224 -7 1492 68 1392 -7 "},"⅗":{"ha":1551,"x_min":0,"x_max":0,"o":"m 325 417 b 50 593 179 417 50 479 l 206 593 b 325 540 208 560 264 540 l 332 540 b 451 592 425 540 451 560 b 333 640 451 624 422 640 l 218 640 l 218 760 l 332 760 b 447 808 418 760 447 778 b 342 856 447 836 422 856 l 335 856 b 215 806 243 856 222 833 l 60 806 b 332 979 60 919 188 979 b 600 822 472 979 600 924 b 513 701 600 768 578 724 b 604 572 579 676 604 628 b 325 417 604 468 467 417 m 361 0 l 1064 972 l 1213 972 l 510 0 m 1221 -7 b 954 164 1072 -7 965 58 l 1110 164 b 1219 117 1119 136 1164 117 l 1225 117 b 1336 182 1306 117 1336 146 b 1228 244 1336 219 1308 244 l 1222 244 b 1124 213 1183 244 1138 236 l 974 213 l 1035 549 l 1479 549 l 1479 424 l 1140 424 l 1121 333 b 1269 365 1156 351 1193 365 b 1489 189 1383 365 1489 306 b 1221 -7 1489 68 1389 -7 "},"⅘":{"ha":1594,"x_min":0,"x_max":0,"o":"m 429 424 l 429 524 l 42 524 l 42 675 l 399 972 l 569 972 l 569 642 l 678 642 l 678 524 l 569 524 l 569 424 m 419 0 l 1122 972 l 1271 972 l 568 0 m 186 642 l 429 642 l 429 843 m 1279 -7 b 1013 164 1131 -7 1024 58 l 1168 164 b 1278 117 1178 136 1222 117 l 1283 117 b 1394 182 1364 117 1394 146 b 1286 244 1394 219 1367 244 l 1281 244 b 1182 213 1242 244 1196 236 l 1032 213 l 1093 549 l 1538 549 l 1538 424 l 1199 424 l 1179 333 b 1328 365 1214 351 1251 365 b 1547 189 1442 365 1547 306 b 1279 -7 1547 68 1447 -7 "},"⅙":{"ha":1468,"x_min":0,"x_max":0,"o":"m 258 424 l 258 794 l 42 671 l 42 829 l 281 972 l 408 972 l 408 424 m 196 0 l 899 972 l 1047 972 l 344 0 m 1093 -7 b 797 247 915 -7 797 92 b 1121 556 797 438 914 556 b 1375 390 1272 556 1364 485 l 1228 390 b 1114 433 1218 414 1186 433 l 1106 433 b 942 301 1003 433 953 372 b 1124 357 983 336 1039 357 b 1369 185 1261 357 1369 286 b 1093 -7 1369 74 1256 -7 m 1092 115 b 1217 179 1179 115 1217 143 b 1092 239 1217 215 1179 239 l 1086 239 b 964 178 1004 239 964 213 b 1086 115 964 142 999 115 "},"⅚":{"ha":1579,"x_min":0,"x_max":0,"o":"m 313 417 b 46 588 164 417 57 482 l 201 588 b 311 540 211 560 256 540 l 317 540 b 428 606 397 540 428 569 b 319 668 428 643 400 668 l 314 668 b 215 636 275 668 229 660 l 65 636 l 126 972 l 571 972 l 571 847 l 232 847 l 213 757 b 361 789 247 775 285 789 b 581 613 475 789 581 729 b 313 417 581 492 481 417 m 338 0 l 1040 972 l 1189 972 l 486 0 m 1235 -7 b 939 247 1057 -7 939 92 b 1263 556 939 438 1056 556 b 1517 390 1414 556 1506 485 l 1369 390 b 1256 433 1360 414 1328 433 l 1247 433 b 1083 301 1144 433 1094 372 b 1265 357 1125 336 1181 357 b 1511 185 1403 357 1511 286 b 1235 -7 1511 74 1397 -7 m 1233 115 b 1358 179 1321 115 1358 143 b 1233 239 1358 215 1321 239 l 1228 239 b 1106 178 1146 239 1106 213 b 1228 115 1106 142 1140 115 "},"⅛":{"ha":1426,"x_min":0,"x_max":0,"o":"m 258 424 l 258 794 l 42 671 l 42 829 l 281 972 l 408 972 l 408 424 m 196 0 l 899 972 l 1047 972 l 344 0 m 1068 -7 b 810 150 918 -7 810 57 b 922 269 810 204 851 251 b 801 406 850 292 801 333 b 1068 556 801 501 924 556 b 1333 406 1213 556 1333 501 b 1211 269 1333 333 1285 292 b 1324 150 1283 251 1324 204 b 1068 -7 1324 57 1218 -7 m 1074 331 b 1181 382 1140 331 1181 349 b 1074 433 1181 415 1140 433 l 1067 433 b 954 382 999 433 954 415 b 1067 331 954 349 999 331 m 1071 115 b 1171 164 1143 115 1171 135 b 1071 214 1171 193 1143 214 l 1064 214 b 963 164 996 214 963 193 b 1064 115 963 135 996 115 "},"⅜":{"ha":1561,"x_min":0,"x_max":0,"o":"m 325 417 b 50 593 179 417 50 479 l 206 593 b 325 540 208 560 264 540 l 332 540 b 451 592 425 540 451 560 b 333 640 451 624 422 640 l 218 640 l 218 760 l 332 760 b 447 808 418 760 447 778 b 342 856 447 836 422 856 l 335 856 b 215 806 243 856 222 833 l 60 806 b 332 979 60 919 188 979 b 600 822 472 979 600 924 b 513 701 600 768 578 724 b 604 572 579 676 604 628 b 325 417 604 468 467 417 m 361 0 l 1064 972 l 1213 972 l 510 0 m 1233 -7 b 975 150 1083 -7 975 57 b 1088 269 975 204 1017 251 b 967 406 1015 292 967 333 b 1233 556 967 501 1089 556 b 1499 406 1378 556 1499 501 b 1376 269 1499 333 1450 292 b 1489 150 1449 251 1489 204 b 1233 -7 1489 57 1383 -7 m 1239 331 b 1346 382 1306 331 1346 349 b 1239 433 1346 415 1306 433 l 1232 433 b 1119 382 1164 433 1119 415 b 1232 331 1119 349 1164 331 m 1236 115 b 1336 164 1308 115 1336 135 b 1236 214 1336 193 1308 214 l 1229 214 b 1128 164 1161 214 1128 193 b 1229 115 1128 135 1161 115 "},"⅝":{"ha":1538,"x_min":0,"x_max":0,"o":"m 313 417 b 46 588 164 417 57 482 l 201 588 b 311 540 211 560 256 540 l 317 540 b 428 606 397 540 428 569 b 319 668 428 643 400 668 l 314 668 b 215 636 275 668 229 660 l 65 636 l 126 972 l 571 972 l 571 847 l 232 847 l 213 757 b 361 789 247 775 285 789 b 581 613 475 789 581 729 b 313 417 581 492 481 417 m 338 0 l 1040 972 l 1189 972 l 486 0 m 1210 -7 b 951 150 1060 -7 951 57 b 1064 269 951 204 993 251 b 943 406 992 292 943 333 b 1210 556 943 501 1065 556 b 1475 406 1354 556 1475 501 b 1353 269 1475 333 1426 292 b 1465 150 1425 251 1465 204 b 1210 -7 1465 57 1360 -7 m 1215 331 b 1322 382 1282 331 1322 349 b 1215 433 1322 415 1282 433 l 1208 433 b 1096 382 1140 433 1096 415 b 1208 331 1096 349 1140 331 m 1213 115 b 1313 164 1285 115 1313 135 b 1213 214 1313 193 1285 214 l 1206 214 b 1104 164 1138 214 1104 193 b 1206 115 1104 135 1138 115 "},"⅞":{"ha":1400,"x_min":0,"x_max":0,"o":"m 151 424 l 151 442 b 392 844 151 607 207 707 l 33 844 l 33 972 l 588 972 l 588 861 b 314 449 368 725 314 618 l 314 424 m 238 0 l 940 972 l 1089 972 l 386 0 m 1110 -7 b 851 150 960 -7 851 57 b 964 269 851 204 893 251 b 843 406 892 292 843 333 b 1110 556 843 501 965 556 b 1375 406 1254 556 1375 501 b 1253 269 1375 333 1326 292 b 1365 150 1325 251 1365 204 b 1110 -7 1365 57 1260 -7 m 1115 331 b 1222 382 1182 331 1222 349 b 1115 433 1222 415 1182 433 l 1108 433 b 996 382 1040 433 996 415 b 1108 331 996 349 1040 331 m 1113 115 b 1213 164 1185 115 1213 135 b 1113 214 1213 193 1185 214 l 1106 214 b 1004 164 1038 214 1004 193 b 1106 115 1004 135 1038 115 "},"Ⅰ":{"ha":921,"x_min":0,"x_max":0,"o":"m 82 0 l 82 149 l 367 149 l 367 824 l 82 824 l 82 972 l 839 972 l 839 824 l 553 824 l 553 149 l 839 149 l 839 0 "},"Ⅱ":{"ha":1511,"x_min":0,"x_max":0,"o":"m 82 0 l 82 149 l 367 149 l 367 824 l 82 824 l 82 972 l 1429 972 l 1429 824 l 1143 824 l 1143 149 l 1429 149 l 1429 0 m 553 149 l 957 149 l 957 824 l 553 824 "},"Ⅲ":{"ha":2101,"x_min":0,"x_max":0,"o":"m 82 0 l 82 149 l 367 149 l 367 824 l 82 824 l 82 972 l 2019 972 l 2019 824 l 1733 824 l 1733 149 l 2019 149 l 2019 0 m 553 149 l 957 149 l 957 824 l 553 824 m 1143 149 l 1547 149 l 1547 824 l 1143 824 "},"Ⅳ":{"ha":2104,"x_min":0,"x_max":0,"o":"m 94 0 l 94 149 l 379 149 l 379 824 l 94 824 l 94 972 l 1199 972 l 1199 824 l 1004 824 l 1314 163 l 1628 824 l 1428 824 l 1428 972 l 2053 972 l 2053 824 l 1818 824 l 1496 149 l 1761 149 l 1761 0 m 565 149 l 1128 149 l 810 824 l 565 824 "},"Ⅴ":{"ha":1583,"x_min":0,"x_max":0,"o":"m 331 0 l 331 149 l 607 149 l 289 824 l 53 824 l 53 972 l 678 972 l 678 824 l 483 824 l 793 163 l 1107 824 l 907 824 l 907 972 l 1532 972 l 1532 824 l 1297 824 l 975 149 l 1240 149 l 1240 0 "},"Ⅵ":{"ha":2107,"x_min":0,"x_max":0,"o":"m 331 0 l 331 149 l 607 149 l 289 824 l 53 824 l 53 972 l 678 972 l 678 824 l 483 824 l 793 163 l 1107 824 l 907 824 l 907 972 l 2013 972 l 2013 824 l 1726 824 l 1726 149 l 2013 149 l 2013 0 m 975 149 l 1540 149 l 1540 824 l 1297 824 "},"Ⅶ":{"ha":2697,"x_min":0,"x_max":0,"o":"m 331 0 l 331 149 l 607 149 l 289 824 l 53 824 l 53 972 l 678 972 l 678 824 l 483 824 l 793 163 l 1107 824 l 907 824 l 907 972 l 2603 972 l 2603 824 l 2317 824 l 2317 149 l 2603 149 l 2603 0 m 975 149 l 1540 149 l 1540 824 l 1297 824 m 1726 149 l 2131 149 l 2131 824 l 1726 824 "},"Ⅷ":{"ha":3286,"x_min":0,"x_max":0,"o":"m 331 0 l 331 149 l 607 149 l 289 824 l 53 824 l 53 972 l 678 972 l 678 824 l 483 824 l 793 163 l 1107 824 l 907 824 l 907 972 l 3192 972 l 3192 824 l 2906 824 l 2906 149 l 3192 149 l 3192 0 m 971 149 l 1539 149 l 1539 824 l 1292 824 m 1725 149 l 2129 149 l 2129 824 l 1725 824 m 2315 149 l 2719 149 l 2719 824 l 2315 824 "},"Ⅸ":{"ha":2096,"x_min":0,"x_max":0,"o":"m 82 0 l 82 149 l 367 149 l 367 824 l 82 824 l 82 972 l 2011 972 l 2011 824 l 1776 824 l 1428 490 l 1785 149 l 2011 149 l 2011 0 m 553 149 l 821 149 l 1174 486 l 821 824 l 553 824 m 1303 597 l 1532 824 l 1072 824 m 1064 149 l 1533 149 l 1299 379 "},"Ⅹ":{"ha":1589,"x_min":0,"x_max":0,"o":"m 79 0 l 79 149 l 318 149 l 671 486 l 318 824 l 93 824 l 93 972 l 1497 972 l 1497 824 l 1274 824 l 925 490 l 1282 149 l 1511 149 l 1511 0 m 800 597 l 1029 824 l 569 824 m 561 149 l 1031 149 l 796 379 "},"Ⅼ":{"ha":1368,"x_min":0,"x_max":0,"o":"m 82 0 l 82 149 l 354 149 l 354 824 l 82 824 l 82 972 l 811 972 l 811 824 l 540 824 l 540 149 l 1121 149 l 1121 375 l 1307 375 l 1307 0 "},"Ⅽ":{"ha":1414,"x_min":0,"x_max":0,"o":"m 678 -14 b 78 486 329 -14 78 174 b 699 986 78 799 354 986 b 1119 886 858 986 1008 956 l 1119 972 l 1306 972 l 1306 653 l 1128 653 b 729 838 1093 779 885 838 l 715 838 b 267 492 435 838 267 708 b 713 135 267 264 429 135 l 726 135 b 1121 319 893 135 1075 194 l 1299 319 l 1299 0 l 1113 0 l 1113 94 b 678 -14 1000 18 808 -14 "},"Ⅾ":{"ha":1546,"x_min":0,"x_max":0,"o":"m 82 0 l 82 149 l 353 149 l 353 824 l 82 824 l 82 972 l 850 972 b 1468 490 1206 972 1468 792 b 850 0 1468 181 1206 0 m 539 149 l 832 149 b 1279 492 1114 149 1279 281 b 832 824 1279 703 1114 824 l 539 824 "},"Ⅿ":{"ha":2117,"x_min":0,"x_max":0,"o":"m 82 0 l 82 149 l 350 149 l 350 824 l 82 824 l 82 972 l 650 972 l 1064 196 l 1474 972 l 2035 972 l 2035 824 l 1767 824 l 1767 149 l 2035 149 l 2035 0 l 1415 0 l 1415 149 l 1581 149 l 1581 806 l 1153 0 l 969 0 l 536 806 l 536 149 l 701 149 l 701 0 "},".":{"ha":428,"x_min":0,"x_max":0,"o":"m 103 0 l 103 204 l 325 204 l 325 0 "},",":{"ha":447,"x_min":0,"x_max":0,"o":"m 43 -208 l 43 -99 l 139 -99 b 219 -14 201 -99 219 -62 l 219 0 l 114 0 l 114 204 l 339 204 l 339 -21 b 146 -208 339 -118 271 -208 "},":":{"ha":428,"x_min":0,"x_max":0,"o":"m 103 490 l 103 694 l 325 694 l 325 490 m 103 0 l 103 204 l 325 204 l 325 0 "},";":{"ha":472,"x_min":0,"x_max":0,"o":"m 133 490 l 133 694 l 356 694 l 356 490 m 60 -208 l 60 -99 l 156 -99 b 236 -14 218 -99 236 -62 l 236 0 l 131 0 l 131 204 l 356 204 l 356 -21 b 163 -208 356 -118 288 -208 "},"…":{"ha":1275,"x_min":0,"x_max":0,"o":"m 103 0 l 103 204 l 325 204 l 325 0 m 526 0 l 526 204 l 749 204 l 749 0 m 950 0 l 950 204 l 1172 204 l 1172 0 "},"!":{"ha":444,"x_min":0,"x_max":0,"o":"m 174 264 l 124 646 l 124 972 l 321 972 l 321 646 l 271 264 m 107 0 l 107 204 l 335 204 l 335 0 "},"¡":{"ha":425,"x_min":0,"x_max":0,"o":"m 328 694 l 328 490 l 100 490 l 100 694 m 261 431 l 311 49 l 311 -278 l 114 -278 l 114 49 l 164 431 "},"?":{"ha":931,"x_min":0,"x_max":0,"o":"m 215 278 l 215 426 b 381 604 215 554 282 604 l 565 604 b 679 706 636 604 679 644 b 560 800 679 758 643 800 l 65 800 l 65 972 l 572 972 b 874 707 754 972 874 867 b 582 439 874 558 761 439 l 461 439 b 400 390 415 439 400 425 l 400 278 m 193 0 l 193 204 l 421 204 l 421 0 "},"¿":{"ha":918,"x_min":0,"x_max":0,"o":"m 732 694 l 732 490 l 504 490 l 504 694 m 710 417 l 710 268 b 544 90 710 140 643 90 l 360 90 b 246 -11 289 90 246 50 b 365 -106 246 -64 282 -106 l 860 -106 l 860 -278 l 353 -278 b 51 -12 171 -278 51 -172 b 343 256 51 136 164 256 l 464 256 b 525 304 510 256 525 269 l 525 417 "},"·":{"ha":428,"x_min":0,"x_max":0,"o":"m 103 382 l 103 586 l 325 586 l 325 382 "},"•":{"ha":867,"x_min":0,"x_max":0,"o":"m 433 201 b 121 486 247 201 121 329 b 433 771 121 643 247 771 b 746 486 619 771 746 643 b 433 201 746 329 619 201 "},"*":{"ha":781,"x_min":0,"x_max":0,"o":"m 271 554 l 160 638 l 247 746 l 74 746 l 74 876 l 247 876 l 160 985 l 271 1068 l 389 922 l 506 1068 l 617 985 l 529 876 l 708 876 l 708 746 l 529 746 l 617 638 l 506 554 l 389 700 "},"#":{"ha":1382,"x_min":0,"x_max":0,"o":"m 1315 586 l 1057 586 l 992 383 l 1243 383 l 1243 218 l 938 218 l 868 0 l 692 0 l 761 218 l 444 218 l 375 0 l 199 0 l 268 218 l 67 218 l 67 383 l 322 383 l 388 586 l 140 586 l 140 751 l 440 751 l 511 972 l 688 972 l 617 751 l 933 751 l 1004 972 l 1181 972 l 1110 751 l 1315 751 m 815 383 l 881 586 l 564 586 l 499 383 "},"/":{"ha":860,"x_min":0,"x_max":0,"o":"m 50 0 l 611 972 l 808 972 l 247 0 "},"\\":{"ha":867,"x_min":0,"x_max":0,"o":"m 618 0 l 51 972 l 251 972 l 818 0 "},"(":{"ha":722,"x_min":0,"x_max":0,"o":"m 679 -201 b 67 486 235 -172 67 164 b 679 1174 67 807 239 1135 l 679 1022 b 256 486 357 974 256 747 b 679 -50 256 225 357 -1 "},")":{"ha":722,"x_min":0,"x_max":0,"o":"m 43 1174 b 656 486 488 1144 656 808 b 43 -201 656 165 483 -162 l 43 -50 b 467 486 365 -1 467 225 b 43 1022 467 747 365 974 "},"{":{"ha":660,"x_min":0,"x_max":0,"o":"m 389 -201 b 201 14 254 -201 201 -132 l 201 326 b 146 388 201 368 190 388 l 56 388 l 56 585 l 146 585 b 201 646 190 585 201 604 l 201 958 b 389 1174 201 1104 254 1174 l 611 1174 l 611 1022 l 433 1022 b 389 963 394 1022 389 1011 l 389 618 b 278 500 389 521 340 500 l 239 500 l 239 472 l 278 472 b 389 354 340 472 389 444 l 389 10 b 433 -50 389 -39 394 -50 l 611 -50 l 611 -201 "},"}":{"ha":658,"x_min":0,"x_max":0,"o":"m 269 1175 b 457 960 404 1175 457 1106 l 457 647 b 513 586 457 606 468 586 l 603 586 l 603 389 l 513 389 b 457 328 468 389 457 369 l 457 15 b 269 -200 457 -131 404 -200 l 47 -200 l 47 -49 l 225 -49 b 269 11 264 -49 269 -37 l 269 356 b 381 474 269 453 318 474 l 419 474 l 419 501 l 381 501 b 269 619 318 501 269 529 l 269 964 b 225 1024 269 1013 264 1024 l 47 1024 l 47 1175 "},"[":{"ha":638,"x_min":0,"x_max":0,"o":"m 128 -201 l 128 1174 l 592 1174 l 592 1022 l 315 1022 l 315 -50 l 592 -50 l 592 -201 "},"]":{"ha":638,"x_min":0,"x_max":0,"o":"m 510 1174 l 510 -201 l 46 -201 l 46 -50 l 322 -50 l 322 1022 l 46 1022 l 46 1174 "},"":{"ha":632,"x_min":0,"x_max":0,"o":"m 351 -201 b 151 -28 247 -201 151 -139 b 204 97 151 14 164 54 b 89 249 113 117 89 183 l 89 724 b 204 882 89 789 113 863 b 151 1000 167 922 151 958 b 349 1174 151 1111 244 1174 l 678 1174 l 678 1025 l 404 1025 b 340 976 368 1025 340 1007 l 340 965 b 404 917 340 935 368 917 l 546 917 l 546 768 l 364 768 b 278 690 308 768 278 746 l 278 282 b 364 204 278 226 308 204 l 546 204 l 546 56 l 403 56 b 340 6 367 56 340 36 l 340 -6 b 403 -53 340 -36 367 -53 l 678 -53 l 678 -201 "},"":{"ha":632,"x_min":0,"x_max":0,"o":"m 281 1174 b 481 1000 385 1174 481 1111 b 428 875 481 958 468 918 b 543 724 519 856 543 789 l 543 249 b 428 90 543 183 519 110 b 481 -28 465 50 481 14 b 283 -201 481 -139 388 -201 l -46 -201 l -46 -53 l 228 -53 b 292 -4 264 -53 292 -35 l 292 7 b 228 56 292 38 264 56 l 86 56 l 86 204 l 268 204 b 354 282 324 204 354 226 l 354 690 b 268 768 354 746 324 768 l 86 768 l 86 917 l 229 917 b 292 967 265 917 292 936 l 292 978 b 229 1025 292 1008 265 1025 l -46 1025 l -46 1174 "},"〈":{"ha":690,"x_min":0,"x_max":0,"o":"m 485 -118 l 11 486 l 485 1090 l 683 1090 l 214 489 l 683 -118 "},"〉":{"ha":690,"x_min":0,"x_max":0,"o":"m 206 1090 l 679 486 l 206 -118 l 7 -118 l 476 483 l 7 1090 "},"【":{"ha":710,"x_min":0,"x_max":0,"o":"m 128 -201 l 128 1174 l 722 1174 b 314 488 436 976 314 726 b 722 -201 314 253 433 1 "},"】":{"ha":711,"x_min":0,"x_max":0,"o":"m 583 1175 l 583 -200 l -11 -200 b 397 486 275 -3 397 247 b -11 1175 397 721 278 972 "},"「":{"ha":576,"x_min":0,"x_max":0,"o":"m 90 536 l 90 1174 l 549 1174 l 549 1022 l 278 1022 l 278 536 "},"」":{"ha":604,"x_min":0,"x_max":0,"o":"m 521 436 l 521 -201 l 63 -201 l 63 -50 l 333 -50 l 333 436 "},"《":{"ha":1028,"x_min":0,"x_max":0,"o":"m 482 -118 l 11 486 l 482 1090 l 679 1090 l 213 489 l 679 -118 m 822 -118 l 351 486 l 822 1090 l 1019 1090 l 553 489 l 1019 -118 "},"》":{"ha":1028,"x_min":0,"x_max":0,"o":"m 206 1090 l 676 486 l 206 -118 l 8 -118 l 475 483 l 8 1090 m 546 1090 l 1017 486 l 546 -118 l 349 -118 l 815 483 l 349 1090 "},"〔":{"ha":635,"x_min":0,"x_max":0,"o":"m 400 -201 l 100 21 l 100 951 l 400 1174 l 646 1174 l 289 908 l 289 64 l 646 -201 "},"〕":{"ha":635,"x_min":0,"x_max":0,"o":"m 235 1175 l 535 953 l 535 22 l 235 -200 l -11 -200 l 346 65 l 346 910 l -11 1175 "},"『":{"ha":729,"x_min":0,"x_max":0,"o":"m 83 422 l 83 1174 l 701 1174 l 701 894 l 421 894 l 421 422 m 201 524 l 303 524 l 303 996 l 583 996 l 583 1072 l 201 1072 "},"』":{"ha":757,"x_min":0,"x_max":0,"o":"m 667 550 l 667 -201 l 49 -201 l 49 78 l 329 78 l 329 550 m 549 449 l 447 449 l 447 -24 l 167 -24 l 167 -100 l 549 -100 "},"-":{"ha":765,"x_min":0,"x_max":0,"o":"m 103 343 l 103 497 l 663 497 l 663 343 "},"­":{"ha":765,"x_min":0,"x_max":0,"o":"m 103 343 l 103 497 l 663 497 l 663 343 "},"–":{"ha":1136,"x_min":0,"x_max":0,"o":"m 103 343 l 103 497 l 1033 497 l 1033 343 "},"—":{"ha":1803,"x_min":0,"x_max":0,"o":"m 103 343 l 103 497 l 1700 497 l 1700 343 "},"―":{"ha":1803,"x_min":0,"x_max":0,"o":"m 103 343 l 103 497 l 1700 497 l 1700 343 "},"_":{"ha":1133,"x_min":0,"x_max":0,"o":"m 94 -149 l 94 0 l 1039 0 l 1039 -149 "},"‚":{"ha":447,"x_min":0,"x_max":0,"o":"m 43 -208 l 43 -99 l 139 -99 b 219 -14 201 -99 219 -62 l 219 0 l 114 0 l 114 204 l 339 204 l 339 -21 b 146 -208 339 -118 271 -208 "},"„":{"ha":800,"x_min":0,"x_max":0,"o":"m 33 -208 l 33 -101 l 139 -101 b 222 -14 201 -101 222 -62 l 222 0 l 114 0 l 114 204 l 336 204 l 336 -21 b 146 -208 336 -118 271 -208 m 389 -208 l 389 -101 l 494 -101 b 578 -14 557 -101 578 -62 l 578 0 l 469 0 l 469 204 l 692 204 l 692 -21 b 501 -208 692 -118 626 -208 "},"“":{"ha":831,"x_min":0,"x_max":0,"o":"m 407 986 l 407 879 l 301 879 b 218 792 239 879 218 840 l 218 778 l 326 778 l 326 574 l 104 574 l 104 799 b 294 986 104 896 169 986 m 763 986 l 763 879 l 657 879 b 574 792 594 879 574 840 l 574 778 l 682 778 l 682 574 l 460 574 l 460 799 b 650 986 460 896 525 986 "},"”":{"ha":831,"x_min":0,"x_max":0,"o":"m 85 597 l 85 704 l 190 704 b 274 792 253 704 274 743 l 274 806 l 165 806 l 165 1010 l 388 1010 l 388 785 b 197 597 388 688 322 597 m 440 597 l 440 704 l 546 704 b 629 792 608 704 629 743 l 629 806 l 521 806 l 521 1010 l 743 1010 l 743 785 b 553 597 743 688 678 597 "},"‘":{"ha":474,"x_min":0,"x_max":0,"o":"m 400 986 l 400 876 l 304 876 b 224 792 242 876 224 840 l 224 778 l 329 778 l 329 574 l 104 574 l 104 799 b 297 986 104 896 172 986 "},"’":{"ha":471,"x_min":0,"x_max":0,"o":"m 88 597 l 88 707 l 183 707 b 264 792 246 707 264 743 l 264 806 l 158 806 l 158 1010 l 383 1010 l 383 785 b 190 597 383 688 315 597 "},"«":{"ha":1038,"x_min":0,"x_max":0,"o":"m 594 694 l 286 397 l 599 97 l 358 97 l 50 396 l 358 694 m 668 397 l 981 97 l 740 97 l 432 396 l 740 694 l 976 694 "},"»":{"ha":1036,"x_min":0,"x_max":0,"o":"m 296 694 l 604 396 l 296 97 l 60 97 l 368 394 l 56 694 m 678 694 l 986 396 l 678 97 l 442 97 l 750 394 l 438 694 "},"‹":{"ha":656,"x_min":0,"x_max":0,"o":"m 286 397 l 599 97 l 358 97 l 50 396 l 358 694 l 594 694 "},"›":{"ha":656,"x_min":0,"x_max":0,"o":"m 297 694 l 606 396 l 297 97 l 57 97 l 369 397 l 61 694 "},"\"":{"ha":586,"x_min":0,"x_max":0,"o":"m 140 639 l 93 826 l 93 972 l 258 972 l 258 826 l 211 639 m 375 639 l 328 826 l 328 972 l 493 972 l 493 826 l 446 639 "},"'":{"ha":351,"x_min":0,"x_max":0,"o":"m 140 639 l 93 826 l 93 972 l 258 972 l 258 826 l 211 639 "}," ":{"ha":104,"x_min":0,"x_max":0,"o":""}," ":{"ha":174,"x_min":0,"x_max":0,"o":""}," ":{"ha":411,"x_min":0,"x_max":0,"o":""}," ":{"ha":694,"x_min":0,"x_max":0,"o":""}," ":{"ha":1389,"x_min":0,"x_max":0,"o":""},"₿":{"ha":1269,"x_min":0,"x_max":0,"o":"m 1015 501 b 1188 267 1107 476 1188 389 b 860 0 1188 101 1047 0 l 857 0 l 857 -167 l 715 -167 l 715 0 l 507 0 l 507 -167 l 365 -167 l 365 0 l 131 0 l 131 972 l 365 972 l 365 1139 l 507 1139 l 507 972 l 715 972 l 715 1139 l 857 1139 l 857 972 b 1160 715 1033 964 1160 868 b 1015 501 1160 606 1089 532 m 328 800 l 328 579 l 804 579 b 958 690 906 579 958 619 b 804 800 958 760 906 800 m 818 172 b 986 290 926 172 986 207 b 818 407 986 365 926 407 l 328 407 l 328 172 "},"¢":{"ha":1035,"x_min":0,"x_max":0,"o":"m 549 147 b 761 243 663 147 747 186 l 964 243 b 532 -14 942 110 813 -14 l 508 -14 l 471 -167 l 321 -167 l 364 6 b 68 347 172 53 68 183 b 532 708 68 551 243 708 l 539 708 l 576 861 l 726 861 l 685 693 b 965 451 847 658 949 567 l 763 451 b 646 538 746 497 704 525 m 264 347 b 403 165 264 268 308 196 l 499 547 b 264 347 339 539 264 451 "},"¤":{"ha":1258,"x_min":0,"x_max":0,"o":"m 1101 424 b 1043 244 1101 358 1081 297 l 1175 118 l 1050 -7 l 910 126 b 626 56 831 82 733 56 b 347 124 522 56 425 81 l 210 -7 l 85 118 l 213 240 b 151 424 174 293 151 356 b 208 599 151 489 172 547 l 85 722 l 210 847 l 346 718 b 626 785 424 760 521 785 b 913 715 733 785 833 760 l 1050 847 l 1175 722 l 1047 594 b 1101 424 1082 544 1101 486 m 632 221 b 908 424 800 221 908 300 b 632 619 908 543 800 619 l 621 619 b 344 424 453 619 344 543 b 621 221 344 300 453 221 "},"$":{"ha":1204,"x_min":0,"x_max":0,"o":"m 740 572 b 1110 289 992 542 1110 453 b 604 -14 1110 99 951 -14 l 579 -14 l 547 -167 l 382 -167 l 417 -1 b 58 326 171 38 63 156 l 271 326 b 451 171 278 260 325 196 l 501 408 l 500 408 b 118 704 219 444 118 524 b 600 986 118 851 256 986 l 621 986 l 653 1139 l 818 1139 l 783 972 b 1138 667 1007 933 1124 822 l 917 667 b 747 800 906 726 849 776 l 701 576 m 540 596 l 585 814 b 319 700 396 814 319 765 b 510 600 319 650 354 618 m 617 158 b 903 272 847 158 903 215 b 738 379 903 324 872 363 l 663 389 l 615 158 "},"€":{"ha":1372,"x_min":0,"x_max":0,"o":"m 785 151 b 1094 306 969 151 1075 204 l 1293 306 b 779 -14 1265 106 1072 -14 b 292 218 553 -14 381 68 l 75 185 l 75 343 l 235 367 b 224 456 229 396 225 425 l 75 433 l 75 592 l 238 615 b 779 986 290 849 490 986 b 1293 667 1072 986 1265 867 l 1094 667 b 785 821 1075 768 969 821 l 771 821 b 450 647 615 821 503 758 l 839 706 l 839 550 l 417 486 b 426 396 417 454 419 424 l 772 447 l 772 292 l 501 250 b 771 151 563 186 656 151 "},"ƒ":{"ha":836,"x_min":0,"x_max":0,"o":"m 626 807 b 521 713 551 807 535 782 l 508 650 l 754 650 l 754 489 l 478 489 l 382 -14 b 110 -278 346 -201 278 -278 l -103 -278 l -103 -112 l 76 -112 b 189 -18 154 -112 176 -86 l 286 489 l 92 489 l 92 650 l 318 650 l 329 708 b 592 972 365 894 426 972 l 807 972 l 807 807 "},"£":{"ha":1058,"x_min":0,"x_max":0,"o":"m 994 165 l 994 0 l 74 0 l 74 165 l 181 165 b 268 249 240 165 260 190 l 285 367 l 74 328 l 74 483 l 307 526 l 328 681 b 638 972 357 894 431 972 l 933 972 l 933 807 l 636 807 b 514 674 557 807 529 782 l 499 561 l 738 604 l 738 449 l 476 401 l 460 276 b 399 165 453 228 444 196 "},"₩":{"ha":1706,"x_min":0,"x_max":0,"o":"m 1686 972 l 1540 546 l 1672 546 l 1672 407 l 1492 407 l 1353 0 l 1119 0 l 974 407 l 732 407 l 588 0 l 353 0 l 214 407 l 33 407 l 33 546 l 165 546 l 19 972 l 229 972 l 372 546 l 583 546 l 733 972 l 976 972 l 1128 546 l 1342 546 l 1481 972 m 782 546 l 924 546 l 853 746 m 475 239 l 533 407 l 418 407 m 1240 232 l 1297 407 l 1178 407 "},"¥":{"ha":1265,"x_min":0,"x_max":0,"o":"m 1218 972 l 892 600 l 1078 629 l 1078 474 l 736 419 l 736 335 l 1028 381 l 1028 225 l 736 179 l 736 0 l 539 0 l 539 149 l 240 101 l 240 257 l 539 304 l 539 388 l 193 332 l 193 488 l 444 528 l 56 972 l 318 972 l 639 597 l 963 972 "},"∙":{"ha":944,"x_min":0,"x_max":0,"o":"m 472 201 b 160 486 286 201 160 329 b 472 771 160 643 286 771 b 785 486 658 771 785 643 b 472 201 785 329 658 201 "},"∕":{"ha":842,"x_min":0,"x_max":0,"o":"m 44 0 l 606 972 l 803 972 l 242 0 "},"+":{"ha":1049,"x_min":0,"x_max":0,"o":"m 429 21 l 429 276 l 71 276 l 71 439 l 429 439 l 429 694 l 619 694 l 619 439 l 978 439 l 978 276 l 619 276 l 619 21 "},"−":{"ha":1169,"x_min":0,"x_max":0,"o":"m 110 276 l 110 439 l 1060 439 l 1060 276 "},"×":{"ha":943,"x_min":0,"x_max":0,"o":"m 860 172 l 763 38 l 469 251 l 178 39 l 83 169 l 332 351 l 83 533 l 179 668 l 472 454 l 764 667 l 858 535 l 610 354 "},"÷":{"ha":1133,"x_min":0,"x_max":0,"o":"m 467 499 l 467 689 l 667 689 l 667 499 m 85 276 l 85 439 l 1049 439 l 1049 276 m 467 26 l 467 217 l 667 217 l 667 26 "},"=":{"ha":1172,"x_min":0,"x_max":0,"o":"m 111 415 l 111 578 l 1061 578 l 1061 415 m 111 138 l 111 300 l 1061 300 l 1061 138 "},"≠":{"ha":1172,"x_min":0,"x_max":0,"o":"m 1061 415 l 706 415 l 653 300 l 1061 300 l 1061 138 l 578 138 l 524 21 l 339 21 l 393 138 l 111 138 l 111 300 l 468 300 l 521 415 l 111 415 l 111 578 l 596 578 l 650 694 l 835 694 l 781 578 l 1061 578 "},">":{"ha":1040,"x_min":0,"x_max":0,"o":"m 104 678 l 972 442 l 972 272 l 104 36 l 104 219 l 678 356 l 104 490 "},"<":{"ha":1043,"x_min":0,"x_max":0,"o":"m 938 676 l 938 493 l 364 358 l 938 222 l 938 35 l 69 271 l 69 440 "},"≥":{"ha":1197,"x_min":0,"x_max":0,"o":"m 107 732 l 1099 569 l 1099 344 l 107 182 l 107 358 l 793 456 l 107 553 m 107 0 l 107 160 l 1099 160 l 1099 0 "},"≤":{"ha":1197,"x_min":0,"x_max":0,"o":"m 1090 735 l 1090 556 l 414 460 l 1090 364 l 1090 182 l 99 344 l 99 572 m 99 0 l 99 163 l 1090 163 l 1090 0 "},"±":{"ha":1178,"x_min":0,"x_max":0,"o":"m 493 236 l 493 381 l 107 381 l 107 543 l 493 543 l 493 694 l 683 694 l 683 543 l 1071 543 l 1071 381 l 683 381 l 683 236 m 107 0 l 107 161 l 1071 161 l 1071 0 "},"≈":{"ha":1147,"x_min":0,"x_max":0,"o":"m 840 386 b 357 453 743 386 413 453 b 301 400 322 453 301 435 l 115 400 l 115 456 b 306 626 115 553 201 626 b 792 560 417 626 736 560 b 847 613 826 560 847 578 l 1033 613 l 1033 557 b 840 386 1033 460 944 386 m 840 83 b 357 150 743 83 413 150 b 301 97 322 150 301 132 l 115 97 l 115 153 b 311 324 115 250 207 324 b 792 257 422 324 736 257 b 847 310 826 257 847 275 l 1033 310 l 1033 254 b 840 83 1033 157 944 83 "},"¬":{"ha":1118,"x_min":0,"x_max":0,"o":"m 810 160 l 810 344 l 110 344 l 110 507 l 1000 507 l 1000 160 "},"~":{"ha":939,"x_min":0,"x_max":0,"o":"m 689 472 b 567 489 642 472 613 479 l 400 525 b 299 542 358 533 321 542 b 256 486 269 542 257 528 l 118 486 l 118 522 b 258 681 118 608 161 681 b 392 663 304 681 346 672 l 563 624 b 654 611 603 614 636 611 b 696 667 682 611 696 635 l 835 667 l 835 631 b 689 472 835 544 790 472 "},"^":{"ha":1042,"x_min":0,"x_max":0,"o":"m 985 396 l 786 396 l 514 797 l 253 396 l 57 396 l 425 972 l 603 972 "},"∞":{"ha":1639,"x_min":0,"x_max":0,"o":"m 424 233 b 81 500 218 233 81 347 b 424 767 81 653 218 767 b 819 624 606 767 725 714 b 1215 767 914 714 1035 767 b 1558 500 1421 767 1558 653 b 1215 233 1558 347 1421 233 b 819 376 1033 233 914 286 b 424 233 725 286 604 233 m 443 381 b 717 497 538 381 635 421 b 443 619 625 582 539 619 l 436 619 b 260 500 336 619 260 576 b 436 381 260 424 336 381 m 1203 381 b 1379 500 1303 381 1379 424 b 1203 619 1379 576 1303 619 l 1196 619 b 922 503 1101 619 1004 579 b 1196 381 1014 418 1100 381 "},"∫":{"ha":797,"x_min":0,"x_max":0,"o":"m 22 -139 l 22 24 l 206 24 b 317 135 289 24 317 51 l 317 722 b 586 972 317 903 406 972 l 772 972 l 772 810 l 617 810 b 506 699 533 810 506 782 l 506 111 b 235 -139 506 -69 415 -139 "},"Ω":{"ha":1500,"x_min":0,"x_max":0,"o":"m 111 0 l 111 165 l 310 165 b 88 514 183 242 88 344 b 750 986 88 792 372 986 b 1413 514 1128 986 1413 792 b 1190 165 1413 344 1317 242 l 1389 165 l 1389 0 l 847 0 l 847 165 b 1217 492 1063 201 1217 315 b 757 814 1217 697 1040 814 l 743 814 b 283 492 460 814 283 697 b 653 165 283 315 438 201 l 653 0 "},"∆":{"ha":1368,"x_min":0,"x_max":0,"o":"m 790 972 l 1311 125 l 1311 0 l 57 0 l 57 125 l 578 972 m 685 808 l 279 165 l 1089 165 "},"∏":{"ha":1453,"x_min":0,"x_max":0,"o":"m 292 0 l 292 807 l 54 807 l 54 972 l 1399 972 l 1399 807 l 1161 807 l 1161 0 l 972 0 l 972 807 l 481 807 l 481 0 "},"∑":{"ha":1107,"x_min":0,"x_max":0,"o":"m 1017 972 l 1017 807 l 363 807 l 713 486 l 358 165 l 1017 165 l 1017 0 l 79 0 l 79 139 l 461 486 l 79 840 l 79 972 "},"√":{"ha":1326,"x_min":0,"x_max":0,"o":"m 1299 972 l 1299 807 l 843 807 l 593 0 l 350 0 l 31 694 l 219 694 l 464 167 l 703 972 "},"∂":{"ha":1115,"x_min":0,"x_max":0,"o":"m 424 986 b 1043 425 857 986 1043 731 b 550 -14 1043 131 839 -14 b 58 335 240 -14 58 125 b 519 674 58 533 251 674 b 842 575 661 674 771 639 b 413 824 818 757 628 824 b 165 800 321 824 224 811 l 165 963 b 424 986 219 974 310 986 m 556 154 b 856 333 715 154 856 207 b 556 513 856 447 726 513 l 542 513 b 249 335 367 513 249 453 b 549 154 249 213 372 154 "},"µ":{"ha":1110,"x_min":0,"x_max":0,"o":"m 132 -278 l 132 694 l 318 694 l 318 326 b 529 135 318 189 419 135 l 540 135 b 792 364 717 135 792 222 l 792 694 l 978 694 l 978 0 l 792 0 l 792 103 b 494 -14 726 24 633 -14 b 318 14 426 -14 368 -4 l 318 -278 "},"%":{"ha":1553,"x_min":0,"x_max":0,"o":"m 371 417 b 57 697 150 417 57 556 b 371 979 57 839 150 979 b 685 697 592 979 685 839 b 371 417 685 556 592 417 m 340 0 l 1035 972 l 1217 972 l 522 0 m 374 547 b 529 697 478 547 529 600 b 374 849 529 794 478 849 l 368 849 b 213 697 264 849 213 794 b 368 547 213 600 264 547 m 1182 -7 b 868 274 961 -7 868 132 b 1182 556 868 415 961 556 b 1496 274 1403 556 1496 415 b 1182 -7 1496 132 1403 -7 m 1185 124 b 1340 274 1289 124 1340 176 b 1185 425 1340 371 1289 425 l 1179 425 b 1024 274 1075 425 1024 371 b 1179 124 1024 176 1075 124 "},"‰":{"ha":2025,"x_min":0,"x_max":0,"o":"m 685 697 b 371 417 685 556 592 417 b 57 697 150 417 57 556 b 371 979 57 839 150 979 b 685 697 592 979 685 839 m 1035 972 l 1217 972 l 522 0 l 340 0 m 213 697 b 368 547 213 600 264 547 l 374 547 b 529 697 478 547 529 600 b 374 849 529 794 478 849 l 368 849 b 213 697 264 849 213 794 m 1654 556 b 1968 274 1875 556 1968 415 b 1654 -7 1968 132 1875 -7 b 1418 76 1546 -7 1469 26 b 1182 -7 1367 26 1290 -7 b 868 274 961 -7 868 132 b 1182 556 868 415 961 556 b 1418 471 1290 556 1367 522 b 1654 556 1469 522 1546 556 m 1185 124 b 1340 274 1289 124 1340 176 b 1185 425 1340 371 1289 425 l 1179 425 b 1024 274 1075 425 1024 371 b 1179 124 1024 176 1075 124 m 1657 124 b 1813 274 1761 124 1813 176 b 1657 425 1813 371 1761 425 l 1651 425 b 1496 274 1547 425 1496 371 b 1651 124 1496 176 1547 124 "},"↑":{"ha":1097,"x_min":0,"x_max":0,"o":"m 457 0 l 457 696 l 240 474 l 118 594 l 550 1026 l 979 594 l 857 474 l 640 696 l 640 0 "},"↗":{"ha":933,"x_min":0,"x_max":0,"o":"m 69 311 l 561 804 l 250 800 l 250 972 l 860 972 l 858 363 l 686 364 l 690 674 l 199 182 "},"→":{"ha":1558,"x_min":0,"x_max":0,"o":"m 1099 919 l 1531 488 l 1099 58 l 978 181 l 1200 397 l 63 397 l 63 581 l 1200 581 l 978 797 "},"↘":{"ha":933,"x_min":0,"x_max":0,"o":"m 199 790 l 692 299 l 688 610 l 860 610 l 860 0 l 250 1 l 251 174 l 561 169 l 69 661 "},"↓":{"ha":1097,"x_min":0,"x_max":0,"o":"m 640 972 l 640 276 l 857 499 l 979 378 l 547 -54 l 118 378 l 240 499 l 457 276 l 457 972 "},"↙":{"ha":935,"x_min":0,"x_max":0,"o":"m 865 661 l 374 168 l 685 172 l 685 0 l 75 0 l 76 610 l 249 608 l 244 299 l 736 790 "},"←":{"ha":1558,"x_min":0,"x_max":0,"o":"m 460 57 l 28 489 l 460 918 l 581 796 l 358 579 l 1496 579 l 1496 396 l 358 396 l 581 179 "},"↖":{"ha":933,"x_min":0,"x_max":0,"o":"m 735 182 l 242 674 l 246 363 l 74 363 l 74 972 l 683 971 l 682 799 l 372 803 l 864 311 "},"↤":{"ha":1614,"x_min":0,"x_max":0,"o":"m 456 57 l 24 489 l 456 918 l 576 796 l 354 579 l 1308 579 l 1308 836 l 1492 836 l 1492 139 l 1308 139 l 1308 396 l 354 396 l 576 179 "},"↥":{"ha":1188,"x_min":0,"x_max":0,"o":"m 244 0 l 244 185 l 501 185 l 501 696 l 285 474 l 163 594 l 594 1026 l 1024 594 l 901 474 l 685 696 l 685 185 l 942 185 l 942 0 "},"↦":{"ha":1558,"x_min":0,"x_max":0,"o":"m 1103 921 l 1535 489 l 1103 60 l 982 182 l 1204 399 l 250 399 l 250 142 l 67 142 l 67 839 l 250 839 l 250 582 l 1204 582 l 982 799 "},"↧":{"ha":1188,"x_min":0,"x_max":0,"o":"m 943 972 l 943 788 l 686 788 l 686 276 l 903 499 l 1025 378 l 593 -54 l 164 378 l 286 499 l 503 276 l 503 788 l 246 788 l 246 972 "},"↰":{"ha":1628,"x_min":0,"x_max":0,"o":"m 1313 0 l 1313 396 l 358 396 l 581 179 l 460 57 l 28 489 l 460 918 l 581 796 l 358 579 l 1496 579 l 1496 0 "},"↱":{"ha":1628,"x_min":0,"x_max":0,"o":"m 132 0 l 132 579 l 1269 579 l 1047 796 l 1168 918 l 1600 489 l 1168 57 l 1047 179 l 1269 396 l 315 396 l 315 0 "},"↲":{"ha":1628,"x_min":0,"x_max":0,"o":"m 1496 972 l 1496 393 l 358 393 l 581 176 l 460 54 l 28 483 l 460 915 l 581 793 l 358 576 l 1313 576 l 1313 972 "},"↳":{"ha":1628,"x_min":0,"x_max":0,"o":"m 315 972 l 315 576 l 1269 576 l 1047 793 l 1168 915 l 1600 483 l 1168 54 l 1047 176 l 1269 393 l 132 393 l 132 972 "},"◊":{"ha":1207,"x_min":0,"x_max":0,"o":"m 515 0 l 49 486 l 515 972 l 699 972 l 1158 486 l 699 0 m 607 168 l 913 481 l 603 806 l 296 488 "},"▲":{"ha":1167,"x_min":0,"x_max":0,"o":"m 21 0 l 583 1000 l 1146 0 "},"":{"ha":1685,"x_min":0,"x_max":0,"o":"m 1671 981 b 1796 951 1724 981 1776 968 b 1790 913 1794 940 1794 917 b 1749 903 1782 906 1767 903 b 1701 908 1729 903 1710 906 b 1594 764 1704 839 1674 757 b 1356 629 1560 653 1440 629 b 1318 631 1342 629 1329 629 b 1379 361 1318 628 1363 494 b 1492 242 1403 335 1442 288 b 1575 133 1533 204 1565 158 b 1578 118 1578 128 1578 122 b 1551 93 1578 103 1567 96 b 1375 265 1483 133 1443 199 b 1374 244 1374 258 1374 251 b 1410 24 1374 160 1404 83 b 1369 7 1396 13 1381 7 b 1351 19 1360 7 1353 11 b 1297 304 1310 89 1304 275 b 439 240 1267 306 572 272 b 586 -47 436 126 551 69 b 558 -62 583 -51 574 -62 b 535 -54 551 -62 543 -60 b 440 61 504 -37 471 21 b 382 163 410 101 399 151 b 294 -35 349 64 311 -36 l 283 -35 b 253 -10 268 -35 253 -31 b 339 238 253 42 290 153 b 69 297 286 247 142 242 b 56 317 69 297 63 306 b 122 367 79 344 96 350 b 268 503 163 421 226 444 b 138 594 243 524 151 550 b 150 621 139 596 143 604 b 276 574 158 628 222 601 b 290 672 281 607 279 657 b 342 690 294 683 342 690 b 357 669 349 686 357 676 b 343 543 360 644 339 586 b 1254 681 454 553 596 644 b 1226 788 1236 713 1226 751 b 1250 865 1226 818 1233 847 b 1435 746 1375 867 1435 813 b 1426 700 1435 731 1432 715 b 1517 753 1461 703 1511 729 b 1436 825 1481 786 1451 782 b 1414 879 1421 842 1414 861 b 1474 956 1414 911 1436 942 b 1513 963 1488 961 1501 963 b 1607 847 1569 963 1607 914 b 1606 821 1607 839 1607 829 b 1639 936 1632 833 1639 883 b 1638 979 1639 950 1638 965 b 1671 981 1649 981 1660 981 m 1542 817 b 1546 840 1544 824 1546 832 b 1494 907 1546 868 1529 897 b 1486 879 1489 897 1486 888 b 1542 817 1486 847 1517 819 m 1361 707 b 1381 754 1361 707 1381 714 b 1301 793 1361 774 1332 793 b 1296 760 1299 783 1296 771 b 1313 706 1296 738 1301 715 b 1326 701 1315 703 1321 701 b 1361 707 1339 701 1353 706 m 419 308 b 1303 374 547 319 1125 374 b 1276 481 1296 418 1285 443 b 1244 604 1264 543 1272 571 b 382 472 596 574 500 503 b 419 308 401 403 417 317 m 322 310 b 346 311 331 310 339 310 b 306 438 329 353 325 394 b 192 325 261 396 219 371 b 322 310 243 317 286 310 "},"@":{"ha":1814,"x_min":0,"x_max":0,"o":"m 901 -174 b 72 424 424 -174 72 21 b 911 1014 72 792 447 1014 b 1736 499 1394 1014 1736 790 b 1335 132 1736 249 1501 132 l 1133 132 l 1133 208 b 853 118 1081 154 971 118 b 486 414 640 118 486 256 b 853 708 486 572 640 708 b 1133 618 971 708 1081 672 l 1133 694 l 1299 694 l 1299 260 l 1322 260 b 1564 499 1407 260 1564 317 b 911 865 1564 708 1342 865 b 244 424 507 865 244 694 b 914 -18 244 139 517 -18 l 1476 -18 l 1476 -174 m 903 258 b 1126 414 1049 258 1126 336 b 903 568 1126 489 1049 568 l 892 568 b 669 414 757 568 669 506 b 892 258 669 318 757 258 "},"&":{"ha":1285,"x_min":0,"x_max":0,"o":"m 374 0 b 78 257 221 0 78 97 b 263 493 78 375 153 458 b 85 722 163 529 85 604 b 371 972 85 882 218 972 l 750 972 l 750 824 l 426 824 b 271 700 336 824 271 790 b 426 568 271 610 336 568 l 828 568 l 828 735 l 1014 735 l 1014 568 l 1253 568 l 1253 419 l 1014 419 l 1014 0 m 828 149 l 828 419 l 426 419 b 264 286 336 419 264 383 b 426 149 264 189 336 149 "},"¶":{"ha":1303,"x_min":0,"x_max":0,"o":"m 475 -278 l 475 381 l 342 381 b 51 676 171 381 51 515 b 347 972 51 839 174 972 l 1233 972 l 1233 824 l 1074 824 l 1074 -278 l 885 -278 l 885 824 l 664 824 l 664 -278 "},"§":{"ha":1001,"x_min":0,"x_max":0,"o":"m 126 -83 l 126 65 l 622 65 b 706 124 679 65 706 88 b 632 186 706 153 688 176 l 296 247 b 71 444 111 282 71 365 b 189 617 71 524 114 578 b 117 768 135 660 117 717 b 381 972 117 871 193 972 l 853 972 l 853 824 l 385 824 b 301 765 328 824 301 801 b 375 703 301 736 319 713 l 725 640 b 936 457 876 613 936 536 b 818 274 936 379 893 314 b 890 131 868 232 890 179 b 626 -83 890 28 822 -83 m 675 335 b 749 418 732 354 749 385 b 667 493 749 461 713 485 l 332 554 b 258 471 275 535 258 504 b 340 396 258 428 294 404 "},"©":{"ha":1725,"x_min":0,"x_max":0,"o":"m 863 -56 b 74 486 413 -56 74 161 b 863 1028 74 811 413 1028 b 1651 486 1313 1028 1651 811 b 863 -56 1651 161 1313 -56 m 863 49 b 1540 486 1250 49 1540 225 b 863 924 1540 747 1250 924 b 185 486 475 924 185 747 b 863 49 185 225 475 49 m 868 213 b 518 494 619 213 518 353 b 868 776 518 636 619 776 b 1210 569 1094 776 1193 682 l 1053 569 b 871 649 1036 621 972 649 l 865 649 b 669 494 760 649 669 606 b 865 340 669 383 760 340 l 871 340 b 1054 424 972 340 1038 369 l 1210 424 b 868 213 1193 310 1094 213 "},"®":{"ha":1725,"x_min":0,"x_max":0,"o":"m 863 -56 b 74 486 413 -56 74 161 b 863 1028 74 811 413 1028 b 1651 486 1313 1028 1651 811 b 863 -56 1651 161 1313 -56 m 863 49 b 1540 486 1250 49 1540 225 b 863 924 1540 747 1250 924 b 185 486 475 924 185 747 b 863 49 185 225 475 49 m 585 226 l 585 763 l 972 763 b 1167 608 1096 763 1167 697 b 1054 475 1167 531 1117 489 b 1160 392 1124 475 1160 453 l 1160 226 l 1015 226 l 1015 364 b 958 413 1015 400 1004 413 l 729 413 l 729 226 m 729 532 l 949 532 b 1022 586 996 532 1022 551 b 946 639 1022 621 993 639 l 729 639 "},"℗":{"ha":1725,"x_min":0,"x_max":0,"o":"m 863 -56 b 74 486 413 -56 74 161 b 863 1028 74 811 413 1028 b 1651 486 1313 1028 1651 811 b 863 -56 1651 161 1313 -56 m 863 49 b 1540 486 1250 49 1540 225 b 863 924 1540 747 1250 924 b 185 486 475 924 185 747 b 863 49 185 225 475 49 m 625 229 l 625 758 l 1006 758 b 1204 579 1124 758 1204 681 b 1006 404 1204 478 1124 404 l 771 404 l 771 229 m 771 524 l 997 524 b 1058 579 1028 524 1058 544 b 994 635 1058 614 1025 635 l 771 635 "},"™":{"ha":1790,"x_min":0,"x_max":0,"o":"m 60 831 l 60 972 l 761 972 l 761 831 l 493 831 l 493 444 l 328 444 l 328 831 m 1453 972 l 1667 972 l 1667 444 l 1504 444 l 1504 772 l 1304 444 l 1215 444 l 1010 779 l 1010 444 l 847 444 l 847 972 l 1061 972 l 1260 658 "},"℅":{"ha":1307,"x_min":0,"x_max":0,"o":"m 310 569 b 39 774 156 569 39 636 b 310 979 39 911 156 979 b 556 822 479 979 542 900 l 415 822 b 306 868 401 849 372 868 l 300 868 b 181 774 210 868 181 822 b 300 681 181 725 210 681 l 306 681 b 415 722 371 681 401 696 l 556 722 b 310 569 539 646 478 569 m 219 0 l 922 972 l 1071 972 l 368 0 m 997 -7 b 718 197 822 -7 718 82 b 997 403 718 313 822 403 b 1271 197 1167 403 1271 313 b 997 -7 1271 82 1167 -7 m 1000 104 b 1129 197 1078 104 1129 138 b 1000 292 1129 257 1078 292 l 994 292 b 860 197 910 292 860 257 b 994 104 860 138 910 104 "},"°":{"ha":686,"x_min":0,"x_max":0,"o":"m 343 472 b 69 729 189 472 69 583 b 343 986 69 875 189 986 b 617 729 497 986 617 875 b 343 472 617 583 497 472 m 343 622 b 453 729 407 622 453 668 b 343 829 453 786 407 829 b 233 729 279 829 233 786 b 343 622 233 668 279 622 "},"|":{"ha":444,"x_min":0,"x_max":0,"o":"m 128 -118 l 128 1090 l 317 1090 l 317 -118 "},"¦":{"ha":454,"x_min":0,"x_max":0,"o":"m 132 576 l 132 1090 l 322 1090 l 322 576 m 132 -118 l 132 410 l 322 410 l 322 -118 "},"†":{"ha":1028,"x_min":0,"x_max":0,"o":"m 418 -118 l 418 631 l 83 631 l 83 786 l 418 786 l 418 1090 l 604 1090 l 604 786 l 944 786 l 944 631 l 604 631 l 604 -118 "},"ℓ":{"ha":846,"x_min":0,"x_max":0,"o":"m 408 218 b 463 163 408 176 421 163 l 725 163 l 725 0 l 368 0 b 219 146 271 0 219 49 l 219 267 l 63 203 l 63 375 l 219 439 l 219 721 b 511 986 219 892 329 986 b 804 722 714 986 804 858 b 569 408 804 596 728 472 l 408 343 m 408 515 l 442 529 b 614 718 586 588 614 647 b 504 824 614 789 574 824 b 408 731 443 824 408 788 "},"‡":{"ha":1028,"x_min":0,"x_max":0,"o":"m 419 -118 l 419 186 l 82 186 l 82 342 l 419 342 l 419 631 l 82 631 l 82 786 l 419 786 l 419 1090 l 608 1090 l 608 786 l 946 786 l 946 631 l 608 631 l 608 342 l 946 342 l 946 186 l 608 186 l 608 -118 "},"№":{"ha":1972,"x_min":0,"x_max":0,"o":"m 1622 569 b 1343 774 1447 569 1343 658 b 1622 979 1343 889 1447 979 b 1896 774 1792 979 1896 889 b 1622 569 1896 658 1792 569 m 1029 231 l 1029 972 l 1226 972 l 1226 0 l 979 0 l 342 742 l 342 0 l 144 0 l 144 972 l 392 972 m 1619 868 b 1485 774 1535 868 1485 833 b 1619 681 1485 714 1535 681 l 1625 681 b 1754 774 1703 681 1754 714 b 1625 868 1754 833 1703 868 m 1353 375 l 1353 486 l 1886 486 l 1886 375 "},"":{"ha":750,"x_min":0,"x_max":0,"o":"m 97 208 l 97 764 l 653 764 l 653 208 m 201 313 l 549 313 l 549 660 l 201 660 "},"":{"ha":958,"x_min":0,"x_max":0,"o":"m 97 104 l 97 868 l 861 868 l 861 104 m 201 208 l 757 208 l 757 764 l 201 764 "},"":{"ha":1222,"x_min":0,"x_max":0,"o":"m 125 0 l 125 972 l 1097 972 l 1097 0 m 229 104 l 993 104 l 993 868 l 229 868 "},"":{"ha":750,"x_min":0,"x_max":0,"o":"m 97 208 l 97 764 l 653 764 l 653 208 m 201 313 l 549 313 l 549 660 l 201 660 m 306 417 l 306 556 l 444 556 l 444 417 "},"":{"ha":958,"x_min":0,"x_max":0,"o":"m 97 104 l 97 868 l 861 868 l 861 104 m 201 208 l 757 208 l 757 764 l 201 764 m 306 313 l 306 660 l 653 660 l 653 313 m 410 417 l 549 417 l 549 556 l 410 556 "},"":{"ha":1222,"x_min":0,"x_max":0,"o":"m 125 0 l 125 972 l 1097 972 l 1097 0 m 229 104 l 993 104 l 993 868 l 229 868 m 333 208 l 333 764 l 889 764 l 889 208 m 438 313 l 785 313 l 785 660 l 438 660 m 542 417 l 542 556 l 681 556 l 681 417 "},"":{"ha":750,"x_min":0,"x_max":0,"o":"m 97 208 l 97 764 l 653 764 l 653 208 "},"":{"ha":958,"x_min":0,"x_max":0,"o":"m 97 104 l 97 868 l 861 868 l 861 104 "},"":{"ha":1222,"x_min":0,"x_max":0,"o":"m 125 0 l 125 972 l 1097 972 l 1097 0 "},"":{"ha":806,"x_min":0,"x_max":0,"o":"m 403 153 b 69 486 219 153 69 303 b 403 819 69 669 219 819 b 736 486 586 819 736 669 b 403 153 736 303 586 153 m 403 257 b 632 486 529 257 632 360 b 403 715 632 613 529 715 b 174 486 276 715 174 613 b 403 257 174 360 276 257 "},"":{"ha":1014,"x_min":0,"x_max":0,"o":"m 507 49 b 69 486 267 49 69 246 b 507 924 69 726 267 924 b 944 486 747 924 944 726 b 507 49 944 246 747 49 m 507 153 b 840 486 690 153 840 303 b 507 819 840 669 690 819 b 174 486 324 819 174 669 b 507 153 174 303 324 153 "},"":{"ha":1222,"x_min":0,"x_max":0,"o":"m 611 -56 b 69 486 314 -56 69 189 b 611 1028 69 785 314 1028 b 1153 486 910 1028 1153 785 b 611 -56 1153 189 910 -56 m 611 49 b 1049 486 851 49 1049 246 b 611 924 1049 726 851 924 b 174 486 371 924 174 726 b 611 49 174 246 371 49 "},"":{"ha":806,"x_min":0,"x_max":0,"o":"m 403 153 b 69 486 219 153 69 303 b 403 819 69 669 219 819 b 736 486 586 819 736 669 b 403 153 736 303 586 153 m 403 257 b 632 486 529 257 632 360 b 403 715 632 613 529 715 b 174 486 276 715 174 613 b 403 257 174 360 276 257 m 403 361 b 278 486 335 361 278 418 b 403 611 278 556 335 611 b 528 486 472 611 528 556 b 403 361 528 418 472 361 "},"":{"ha":1014,"x_min":0,"x_max":0,"o":"m 507 49 b 69 486 267 49 69 246 b 507 924 69 726 267 924 b 944 486 747 924 944 726 b 507 49 944 246 747 49 m 507 153 b 840 486 690 153 840 303 b 507 819 840 669 690 819 b 174 486 324 819 174 669 b 507 153 174 303 324 153 m 507 257 b 278 486 381 257 278 360 b 507 715 278 613 381 715 b 736 486 633 715 736 613 b 507 257 736 360 633 257 m 507 361 b 632 486 576 361 632 418 b 507 611 632 556 576 611 b 382 486 439 611 382 556 b 507 361 382 418 439 361 "},"":{"ha":1222,"x_min":0,"x_max":0,"o":"m 611 -56 b 69 486 314 -56 69 189 b 611 1028 69 785 314 1028 b 1153 486 910 1028 1153 785 b 611 -56 1153 189 910 -56 m 611 49 b 1049 486 851 49 1049 246 b 611 924 1049 726 851 924 b 174 486 371 924 174 726 b 611 49 174 246 371 49 m 611 153 b 278 486 428 153 278 303 b 611 819 278 669 428 819 b 944 486 794 819 944 669 b 611 153 944 303 794 153 m 611 257 b 840 486 738 257 840 360 b 611 715 840 613 738 715 b 382 486 485 715 382 613 b 611 257 382 360 485 257 m 611 361 b 486 486 543 361 486 418 b 611 611 486 556 543 611 b 736 486 681 611 736 556 b 611 361 736 418 681 361 "},"":{"ha":889,"x_min":0,"x_max":0,"o":"m 444 153 b 111 486 261 153 111 303 b 444 819 111 669 261 819 b 778 486 628 819 778 669 b 444 153 778 303 628 153 "},"":{"ha":972,"x_min":0,"x_max":0,"o":"m 486 69 b 69 486 257 69 69 257 b 486 903 69 715 257 903 b 903 486 715 903 903 715 b 486 69 903 257 715 69 "},"":{"ha":1139,"x_min":0,"x_max":0,"o":"m 569 -14 b 69 486 294 -14 69 211 b 569 986 69 761 294 986 b 1069 486 844 986 1069 761 b 569 -14 1069 211 844 -14 "},"ʼ":{"ha":471,"x_min":0,"x_max":0,"o":"m 88 597 l 88 707 l 183 707 b 264 792 246 707 264 743 l 264 806 l 158 806 l 158 1010 l 383 1010 l 383 785 b 190 597 383 688 315 597 "},"´":{"ha":397,"x_min":0,"x_max":0,"o":"m 35 767 l 153 975 l 369 975 l 175 767 "},"˘":{"ha":664,"x_min":0,"x_max":0,"o":"m 332 767 b 42 983 164 767 44 849 l 197 983 b 332 901 203 929 246 901 b 467 983 418 901 461 929 l 622 983 b 332 767 619 849 500 767 "},"ˇ":{"ha":736,"x_min":0,"x_max":0,"o":"m 278 765 l 35 974 l 193 974 l 369 876 l 543 974 l 701 974 l 457 765 "},"¸":{"ha":419,"x_min":0,"x_max":0,"o":"m 42 -342 l 42 -235 l 215 -235 b 275 -194 250 -235 275 -222 b 222 -154 275 -174 257 -154 l 115 -154 l 115 21 l 221 21 l 221 -62 b 385 -194 318 -62 385 -104 b 211 -342 385 -285 308 -342 "},"ˆ":{"ha":736,"x_min":0,"x_max":0,"o":"m 35 767 l 278 975 l 457 975 l 701 767 l 543 767 l 369 868 l 193 767 "},"¨":{"ha":642,"x_min":0,"x_max":0,"o":"m 61 782 l 61 967 l 250 967 l 250 782 m 392 782 l 392 967 l 581 967 l 581 782 "},"˙":{"ha":285,"x_min":0,"x_max":0,"o":"m 40 776 l 40 972 l 244 972 l 244 776 "},"`":{"ha":397,"x_min":0,"x_max":0,"o":"m 224 767 l 29 975 l 246 975 l 364 767 "},"˝":{"ha":615,"x_min":0,"x_max":0,"o":"m 21 767 l 139 975 l 356 975 l 161 767 m 283 767 l 401 975 l 618 975 l 424 767 "},"¯":{"ha":674,"x_min":0,"x_max":0,"o":"m 42 785 l 42 931 l 632 931 l 632 785 "},"˛":{"ha":386,"x_min":0,"x_max":0,"o":"m 221 -306 b 36 -167 121 -306 36 -247 b 200 21 36 -65 132 -7 l 296 0 b 167 -125 244 -26 167 -69 b 254 -192 167 -174 213 -192 l 344 -192 l 344 -306 "},"˚":{"ha":461,"x_min":0,"x_max":0,"o":"m 231 767 b 38 924 115 767 38 835 b 231 1081 38 1004 115 1081 b 424 924 346 1081 424 1004 b 231 767 424 835 346 767 m 232 864 b 317 924 281 864 317 892 b 232 983 317 956 281 983 b 146 924 186 983 146 956 b 232 864 146 892 186 864 "},"˜":{"ha":736,"x_min":0,"x_max":0,"o":"m 517 767 b 399 790 482 767 451 774 l 275 829 b 214 842 246 839 238 842 b 168 781 183 842 168 813 l 35 781 l 35 819 b 194 981 35 906 107 981 b 300 961 253 981 267 971 l 421 924 b 496 906 446 915 474 906 b 540 967 528 906 540 935 l 674 967 l 674 928 b 517 767 674 842 624 767 "}}}
